<svg xmlns="http://www.w3.org/2000/svg" xmlns:xlink="http://www.w3.org/1999/xlink" width="603.001" height="603" viewBox="0 0 603.001 603">
  <defs>
    <linearGradient id="linear-gradient" x1="0.5" x2="0.5" y2="1" gradientUnits="objectBoundingBox">
      <stop offset="0" stop-color="#cf91e7"/>
      <stop offset="1" stop-color="#761fe3"/>
    </linearGradient>
    <linearGradient id="linear-gradient-2" x1="0.5" x2="0.5" y2="1" gradientUnits="objectBoundingBox">
      <stop offset="0" stop-color="#eceaff"/>
      <stop offset="1" stop-color="#d4bcff"/>
    </linearGradient>
    <linearGradient id="linear-gradient-3" x1="1" y1="0.632" x2="0" y2="0.61" gradientUnits="objectBoundingBox">
      <stop offset="0" stop-color="#9a49b9"/>
      <stop offset="1" stop-color="#9d4eff"/>
    </linearGradient>
    <linearGradient id="linear-gradient-4" x1="0.5" x2="0.5" y2="1" gradientUnits="objectBoundingBox">
      <stop offset="0" stop-color="#24248d"/>
      <stop offset="1" stop-color="#7727d3"/>
    </linearGradient>
    <linearGradient id="linear-gradient-5" x1="0.5" x2="0.5" y2="1" gradientUnits="objectBoundingBox">
      <stop offset="0" stop-color="#8f5dc6"/>
      <stop offset="1" stop-color="#dcbcff"/>
    </linearGradient>
    <linearGradient id="linear-gradient-6" x1="0.5" x2="0.5" y2="1" gradientUnits="objectBoundingBox">
      <stop offset="0" stop-color="#b565d5"/>
      <stop offset="1" stop-color="#7100ff"/>
    </linearGradient>
    <linearGradient id="linear-gradient-7" x1="0.5" x2="0.5" y2="1" gradientUnits="objectBoundingBox">
      <stop offset="0" stop-color="#a443c9"/>
      <stop offset="1" stop-color="#340076"/>
    </linearGradient>
    <linearGradient id="linear-gradient-8" x1="0.5" x2="0.5" y2="1" gradientUnits="objectBoundingBox">
      <stop offset="0" stop-color="#a55c2f"/>
      <stop offset="1" stop-color="#ffb07e"/>
    </linearGradient>
    <linearGradient id="linear-gradient-9" x1="0.5" x2="0.5" y2="1" gradientUnits="objectBoundingBox">
      <stop offset="0" stop-color="#490065"/>
      <stop offset="1" stop-color="#160033"/>
    </linearGradient>
    <linearGradient id="linear-gradient-10" x1="0.5" x2="0.5" y2="1" gradientUnits="objectBoundingBox">
      <stop offset="0" stop-color="#13135f"/>
      <stop offset="1" stop-color="#521796"/>
    </linearGradient>
    <linearGradient id="linear-gradient-13" x1="0.5" x2="0.5" y2="1" gradientUnits="objectBoundingBox">
      <stop offset="0" stop-color="#ffd4b9"/>
      <stop offset="1" stop-color="#ffb07e"/>
    </linearGradient>
    <linearGradient id="linear-gradient-19" x1="0.5" x2="0.5" y2="1" gradientUnits="objectBoundingBox">
      <stop offset="0" stop-color="#5d1aa5"/>
      <stop offset="1" stop-color="#2f0d53"/>
    </linearGradient>
    <linearGradient id="linear-gradient-33" x1="0.5" x2="0.5" y2="1" gradientUnits="objectBoundingBox">
      <stop offset="0" stop-color="#490065"/>
      <stop offset="1" stop-color="#761fe3"/>
    </linearGradient>
    <linearGradient id="linear-gradient-37" x1="0.5" x2="0.5" y2="1" gradientUnits="objectBoundingBox">
      <stop offset="0" stop-color="#2e0c53"/>
      <stop offset="1" stop-color="#9f62e0"/>
    </linearGradient>
    <linearGradient id="linear-gradient-38" x1="0.5" x2="0.5" y2="1" gradientUnits="objectBoundingBox">
      <stop offset="0" stop-color="#100819"/>
      <stop offset="1" stop-color="#4f2b77"/>
    </linearGradient>
    <linearGradient id="linear-gradient-39" x1="0.5" x2="0.5" y2="1" gradientUnits="objectBoundingBox">
      <stop offset="0" stop-color="#771fe3"/>
      <stop offset="1" stop-color="#2f006a"/>
    </linearGradient>
    <linearGradient id="linear-gradient-70" x1="0.5" x2="0.5" y2="1" gradientUnits="objectBoundingBox">
      <stop offset="0" stop-color="#2e0c53"/>
      <stop offset="1" stop-color="#66389a"/>
    </linearGradient>
    <linearGradient id="linear-gradient-71" x1="0.5" x2="0.5" y2="1" gradientUnits="objectBoundingBox">
      <stop offset="0" stop-color="#fff"/>
      <stop offset="1" stop-color="#955aff"/>
    </linearGradient>
    <linearGradient id="linear-gradient-72" x1="0.5" x2="0.5" y2="1" gradientUnits="objectBoundingBox">
      <stop offset="0" stop-color="#fceaff"/>
      <stop offset="1" stop-color="#a42fed"/>
    </linearGradient>
    <linearGradient id="linear-gradient-74" x1="0.5" x2="0.5" y2="1" gradientUnits="objectBoundingBox">
      <stop offset="0" stop-color="#9286ff"/>
      <stop offset="1" stop-color="#d4bcff"/>
    </linearGradient>
    <linearGradient id="linear-gradient-75" x1="0.5" x2="0.5" y2="1" gradientUnits="objectBoundingBox">
      <stop offset="0" stop-color="#fff7be" stop-opacity="0.604"/>
      <stop offset="1" stop-color="#ffd800" stop-opacity="0"/>
    </linearGradient>
  </defs>
  <g id="companyImage" transform="translate(-299.999 -6493)">
    <rect id="矩形_7" data-name="矩形 7" width="603" height="603" rx="10" transform="translate(300 6493)" fill="url(#linear-gradient)"/>
    <path id="交叉_3" data-name="交叉 3" d="M170.159,603c-97.6-.061-160.61-12.872-159.519-37.5v-3.257s9.929-13.216,47.02-14.421c19.934-.647,50.779.286,80.243,1.219,25.36.8,49.7,1.607,65.172,1.4,33.452-.442,42.839-.328,96.145-2.623s105.761-3.614,161.861,0c30.589,1.97,55.3,1.176,75.015.383,16.439-.662,29.4-1.325,39.379-.383,21.947,2.072,27.884,24.907,16.357,25.971s-21.385,28.412-130.751,25.454c-64.248-1.738-119.729-.118-174.356,1.5C249.173,601.863,212.02,602.977,172.7,603Z" transform="translate(300 6493)" fill="#4e0d9f"/>
    <path id="联合_23" data-name="联合 23" d="M38,158.859c-8.179-.679-54.982-40.777-31.44-46.836,5.821-1.5,28.772,31.682,32.259,43.135C41.5,143.3,45.073,130.066,49.484,115.62,39.772,114.249,4.8,83.865,26.959,72.927c6.593-3.254,21.161,23.84,24.308,36.935q4.68-14.917,10.49-31.428C54.383,79.785,31.5,47.821,43.784,39.923c7.463-4.8,19.741,18.915,20.343,31.843q4.1-11.41,8.7-23.488l.057-.15c-1.747-3.008-.659-13.317,2.13-23.627,3.506-12.96,9.7-25.919,16.338-24.376,7.11,1.654-4.531,38.5-15.208,47.887a4.478,4.478,0,0,1-1.34.867l-.05.132Q70.945,59,67.485,68.532c9.805-9.848,35.566-20.616,33.971-5.372-1.218,11.648-31.557,15.618-36.817,13.3q-5.6,15.77-10.185,30.143c8.963-11.207,33.08-27.935,36.2-9.291,2.054,12.264-32.894,21.93-38.723,17.327-4.412,14.33-8,27.464-10.73,39.265,7.935-12.329,35.545-40.395,35.239-19.877-.168,11.247-30.977,27.373-36.5,25.537-4.013,18.621-5.7,33.6-4.909,44.318l-2.055.151C32.167,193.1,33.895,177.83,38,158.859Z" transform="translate(792.62 6674.238)" fill="url(#linear-gradient-2)"/>
    <path id="联合_22" data-name="联合 22" d="M0,198.626c11.767-14.117,24.873-42.566,38.184-82.413-7.421.348-30.214-27.847-21.408-36.624,13.387-13.343,23.265,14.286,24.036,28.617q4.626-14.34,9.256-30.436c-5.625-1.172-27.991-22.056-22.2-32.238,7.574-13.326,22.258,10.421,24.5,24.136q2.734-9.766,5.452-20.1l.036-.136a4.477,4.477,0,0,1-.586-1.486C54.045,34.1,66.022-2.642,72.767.151c11.3,4.68-5.758,46.554-12.915,49.784l-.041.156q-3.285,12.494-6.6,24.161c8.012-10.163,31.8-22.3,35.074-14.057,5.395,13.572-31.811,26.247-37.026,20.86q-4.874,16.784-9.758,31.664C51.685,103.9,79.3,90.342,82.767,96.826c11.655,21.789-34.47,26.15-43.162,21.613-4.819,14.314-9.615,27.151-14.332,38.362,9.5-7.284,47.474-20.913,51.336-16.308,15.621,18.628-45.775,24-52.823,19.794-7.7,17.815-15.183,31.238-22.2,39.659Z" transform="translate(788.535 6534.075)" fill="url(#linear-gradient-3)"/>
    <path id="路径_117" data-name="路径 117" d="M489.507,158.794c-7.058,10.181,12.663,46.8,16.17,41.579s-2.553-61.223-16.17-41.579" transform="translate(306 6493)" fill="#a3a3a3"/>
    <path id="路径_119" data-name="路径 119" d="M587.252,268.35a.619.619,0,0,0-1.194-.067c-5.793,18.433-33.361,38.857-64.472,97.879-16.763,31.8-7.715,110.2-2,128.609l5.08-2.54S525.3,468.738,538,449.055s33.652-47.62,40.636-68.573c6.843-20.527,17.03-71.141,8.618-112.132" transform="translate(306 6493)" fill="url(#linear-gradient-4)"/>
    <path id="联合_24" data-name="联合 24" d="M20.452,106.446C19.87,76.358,32.038,52.119,32.161,51.878l.917.468a127.541,127.541,0,0,0-11.614,51.991q3.449-7.111,7.471-14.294c2.734-4.884,5.279-9.78,7.647-14.631l-.067-.088.176-.135A353.112,353.112,0,0,0,63.167,0L64.2.019c0,1.588-7.955,36.61-25.653,73.671C51.179,62.959,59.619,45.3,61.259,40.929l.964.363c-.081.219-8.87,22.286-24.733,34.579-2.382,4.892-4.932,9.8-7.657,14.674-11.691,20.887-19.71,41.2-24.262,61.778,5.308-4.581,36.015-31.994,45.65-60.9l.979.327c-10.6,31.8-46.394,61.735-46.754,62.033l-.153-.184a196.117,196.117,0,0,0-3.869,53.469L.4,207.131C-1.731,172.162,4.671,139.761,20.452,106.446Z" transform="translate(827.081 6769.796)" stroke="rgba(0,0,0,0)" stroke-width="1" fill="url(#linear-gradient-5)"/>
    <path id="路径_124" data-name="路径 124" d="M575.518,577.04H495.394a2.669,2.669,0,0,1-2.669-2.669V478.825a2.669,2.669,0,0,1,2.669-2.669h80.124a2.669,2.669,0,0,1,2.669,2.669v95.546a2.669,2.669,0,0,1-2.669,2.669" transform="translate(306 6493)" fill="url(#linear-gradient-6)"/>
    <path id="联合_25" data-name="联合 25" d="M67.119,100.884V0h6.765V100.884Zm-13.424,0V0h6.766V100.884Zm-13.424,0V0h6.765V100.884Zm-13.424,0V0h6.766V100.884Zm-13.424,0V0h6.766V100.884ZM0,100.884V0H6.766V100.884Z" transform="translate(804.514 6969.156)" fill="url(#linear-gradient-7)"/>
    <path id="路径_125" data-name="路径 125" d="M396.781,262.551s7.974,38.335,23.308,66.243l8.587-8.894-7.054-61.029Z" transform="translate(306 6493)" fill="url(#linear-gradient-8)"/>
    <path id="路径_126" data-name="路径 126" d="M414.378,306.214s15.371,251.738,14.483,257.512-19.545,13.327-24.875,13.327c-14.04,0-11.525,8.92-11.525,8.92h51.572s.937-16.644-1.173-20.863L448.537,363.3S487.6,553.826,488.9,562.072s-17.36,13.454-25.172,14.322-8.68,9.114-8.68,9.114h49.476l-15.19-303.371-56.421,3.038Z" transform="translate(306 6493)" fill="url(#linear-gradient-9)"/>
    <path id="路径_127" data-name="路径 127" d="M428.9,562.623a9.727,9.727,0,0,1-.036,1.1,5.667,5.667,0,0,1-1.625,2.827,51.359,51.359,0,0,0,15.624-1.443l.07-2.487Z" transform="translate(306 6493)" fill="#fdd0b2"/>
    <path id="路径_128" data-name="路径 128" d="M503.341,561.869l-14.441.2a5.848,5.848,0,0,1-1.441,4.65c4.533.1,12.446-.151,16.111-.284Z" transform="translate(306 6493)" fill="#fdd0b2"/>
    <path id="路径_129" data-name="路径 129" d="M477.368,312.871l-13.148-19.83-20.26-3.233-1.313-5.157-7.047.379-5.867,9.089-7.082,2.7-8.273,9.392s.336,5.505.906,14.9c1.191-2.182,3.084-3.134,6.043-1.564,10.561,5.6,13.236,9.925,13.236,9.925s4.007-7.339,9.611-6.261,4.757,6.09,4.757,6.09,22.617-9.539,28.437-16.436" transform="translate(306 6493)" fill="#454545"/>
    <path id="路径_130" data-name="路径 130" d="M485.559,331.145a23.4,23.4,0,0,1,5.161-21.313l-.634-12.67-7.055,8.912-5.4,15.847s6.452,5.01,7.927,9.224" transform="translate(306 6493)" fill="#333"/>
    <path id="路径_131" data-name="路径 131" d="M446.882,422.153l1.656-58.857s-2.762-14.341-10.6-23.158c0,0,7.134,45,8.943,82.015" transform="translate(306 6493)" fill="#333"/>
    <path id="路径_132" data-name="路径 132" d="M520.026,250.244s-2.228-72.92-18.6-90.822-31-24.45-31-24.45-1.224-7.383-6.179-8.713l-23.867-.341s-3.592-.342-4.276,1.2-2.908,8.724-4.106,9.921-20.527,16.593-26.514,29.08-9.066,83.99-9.066,83.99l-3.763.342s-1.369,11.8-1.027,13.172,22.751,3.934,22.751,3.934.342,33.357,0,38.66,18.474,18.816,20.185,23.264a111.138,111.138,0,0,0,8.211-36.949s2.566,29.935,6.158,36.778c0,0,14.54-10.264,21.724-18.475s17.106-43.107,17.106-43.107l.342-10.947,1.2-30.107s3.763,11.632,2.224,17.106l-1.882.122s-.976,12.2-.61,12.934,5.125-1.1,10.981.244,17.449,7.2,17.449,7.2l5.246-11.836a3.417,3.417,0,0,0-2.684-2.2" transform="translate(306 6493)" fill="#5d1aa5"/>
    <path id="路径_133" data-name="路径 133" d="M489.3,226.671s.44,1.361.958,3.37a23.733,23.733,0,0,0-.958-3.37" transform="translate(306 6493)" fill="#737373"/>
    <path id="路径_134" data-name="路径 134" d="M489.3,226.671c-2.657-7.2-13.363-41.821-13.363-41.821s5.763,28.983,8.9,41.78-.522,28.467-2.089,42.308-28.728,25.594-28.728,25.594c9.663,0,23.244-8.1,23.244-8.1-.523,4.44-6.606,24.4-6.606,24.4,7.184-8.211,17.1-43.107,17.1-43.107l.343-10.948Z" transform="translate(306 6493)" fill="url(#linear-gradient-10)"/>
    <path id="路径_135" data-name="路径 135" d="M432.889,322.581s-14.45-8.67-16.056-15.734c-.779-3.429-1.633-10.183-2.307-16.23.015,7.05-.013,13.506-.148,15.6-.342,5.3,18.474,18.816,20.185,23.264a111.138,111.138,0,0,0,8.211-36.949L444,158.707s-3.083,124.377-6.294,139.791-4.817,24.083-4.817,24.083" transform="translate(306 6493)" fill="url(#linear-gradient-10)"/>
    <path id="路径_136" data-name="路径 136" d="M495.2,235.577s-11.287-16.654-7.746-54.795c0,0-4.061,25.795,1.843,45.889,0,0,3.763,11.632,2.223,17.106,0,0,2.819-3.9,11.569-3.61s12.193,2.869,12.193,2.869-4.16-7.316-20.082-7.459" transform="translate(306 6493)" fill="url(#linear-gradient-10)"/>
    <path id="路径_137" data-name="路径 137" d="M492.268,253.625l-21.612,57.207,6.977,11.09s38.166-53.662,39.888-62.271-25.253-6.026-25.253-6.026" transform="translate(306 6493)" fill="url(#linear-gradient-13)"/>
    <path id="路径_138" data-name="路径 138" d="M522.71,252.44a14.665,14.665,0,0,0-1.44-1.678,4.758,4.758,0,0,0-1.244-.518s-.008-.237-.024-.666a20.136,20.136,0,0,0-10.166-4.678,141.724,141.724,0,0,0-20.192-1s-.976,12.2-.61,12.934,5.124-1.1,10.981.244,17.448,7.2,17.448,7.2Z" transform="translate(306 6493)" fill="url(#linear-gradient-4)"/>
    <path id="路径_139" data-name="路径 139" d="M414.378,267.554s-3.814-75.65-6.9-95.975c0,0,5.4,64.833-.772,65.605s-7.461-2.059-7.461-2.059,6.952,12.724-2.827,14.981Z" transform="translate(306 6493)" fill="url(#linear-gradient-10)"/>
    <path id="路径_140" data-name="路径 140" d="M391.627,263.62c.342,1.368,22.751,3.934,22.751,3.934l-1.241-17.506c-4.888-.772-20.484.4-20.484.4s-1.368,11.8-1.026,13.172" transform="translate(306 6493)" fill="url(#linear-gradient-4)"/>
    <path id="路径_141" data-name="路径 141" d="M424.558,76.381s-8.447-2.413-9.117-13.006c0,0,2.145,2.548,4.156,3.218a16.286,16.286,0,0,1,.805-16.626s7.24,4.961,11.53,4.559c0,0-2.011-3.218-2.145-5.5A19.353,19.353,0,0,0,444.4,55.733c9.654.134,24.8,1.743,26.95,14.748s-2.681,32.046-9.385,35.264S454.458,104,454.458,104Z" transform="translate(306 6493)" fill="#300b58"/>
    <path id="路径_142" data-name="路径 142" d="M463.115,125.956l-.109-.029.109.029" transform="translate(306 6493)" fill="#c2c2c2"/>
    <path id="路径_143" data-name="路径 143" d="M464.127,126.228l-1.012-.272,1.012.272" transform="translate(306 6493)" fill="#c2c2c2"/>
    <path id="路径_144" data-name="路径 144" d="M463.006,125.927l-.105-.028.105.028" transform="translate(306 6493)" fill="#c2c2c2"/>
    <path id="路径_145" data-name="路径 145" d="M464.246,126.26l-.119-.032.119.032" transform="translate(306 6493)" fill="#c2c2c2"/>
    <path id="路径_146" data-name="路径 146" d="M462.334,125.746h0" transform="translate(306 6493)" fill="#c2c2c2"/>
    <path id="路径_147" data-name="路径 147" d="M462.587,125.814l-.254-.068.254.068" transform="translate(306 6493)" fill="#c2c2c2"/>
    <path id="路径_148" data-name="路径 148" d="M436.1,127.115c-.684,1.54-2.908,8.724-4.1,9.921l1.28,17.375s4.188-7.314,6.917-7.888S444,158.707,444,158.707l2.775-25.262-5.7-7.517-.7-.01s-3.592-.343-4.276,1.2" transform="translate(306 6493)" fill="#c793ff"/>
    <path id="路径_149" data-name="路径 149" d="M444,158.707s3.638-14.636,7.658-12.482c2.61,1.4,5.888,9.191,5.888,9.191l12.879-20.444s-1.224-7.383-6.179-8.713l-17.326,3.308Z" transform="translate(306 6493)" fill="#c793ff"/>
    <path id="路径_150" data-name="路径 150" d="M439.843,115.131l-.67,17.028s5.765,15.151,4.826,26.548c0,0,.4-11.262,6.168-16.626s12.2-12.335,14.079-15.821c0,0-4.827-15.285-4.023-26.682s-20.38,15.553-20.38,15.553" transform="translate(306 6493)" fill="url(#linear-gradient-13)"/>
    <path id="路径_151" data-name="路径 151" d="M424.558,76.381s-1.743,40.224,15.017,41.029,21.453-15.956,21.453-15.956,7.543-5.808,3.754-9.251c-2.949-2.682-5.765,3.217-5.765,3.217s-4.291-17.564-6.436-19.307c0,0-19.174,2.816-28.023.268" transform="translate(306 6493)" fill="url(#linear-gradient-13)"/>
    <path id="路径_152" data-name="路径 152" d="M436.352,100.908a.686.686,0,0,1-.543-.267c-1.087-1.414-.536-8.742-.342-10.954a.694.694,0,0,1,1.382.121c-.374,4.258-.457,9.287.06,9.987a.7.7,0,0,1-.557,1.113" transform="translate(306 6493)"/>
    <path id="路径_153" data-name="路径 153" d="M444.2,86.668a.693.693,0,0,1-.261-1.336,9.5,9.5,0,0,1,5.781-.229.693.693,0,1,1-.4,1.328,8.166,8.166,0,0,0-4.86.186.689.689,0,0,1-.261.051" transform="translate(306 6493)"/>
    <path id="路径_154" data-name="路径 154" d="M427.481,87.083a.694.694,0,0,1-.311-1.314,9.131,9.131,0,0,1,5.228-.4.693.693,0,0,1-.3,1.354,7.871,7.871,0,0,0-4.311.289.687.687,0,0,1-.309.073" transform="translate(306 6493)"/>
    <path id="路径_155" data-name="路径 155" d="M439.168,108.734a5.617,5.617,0,0,1-4.977-2.742.693.693,0,0,1,1.227-.646,4.409,4.409,0,0,0,4.739,1.92c2.972-.469,5.893-3.179,5.922-3.207a.693.693,0,0,1,.948,1.012c-.132.123-3.265,3.03-6.654,3.565a7.769,7.769,0,0,1-1.2.1" transform="translate(306 6493)"/>
    <path id="路径_156" data-name="路径 156" d="M433.147,91.78a1.935,1.935,0,1,1-1.9-2.28,2.117,2.117,0,0,1,1.9,2.28" transform="translate(306 6493)"/>
    <path id="路径_157" data-name="路径 157" d="M448.036,91.384a1.95,1.95,0,1,1-1.919-2.3,2.135,2.135,0,0,1,1.919,2.3" transform="translate(306 6493)"/>
    <path id="路径_158" data-name="路径 158" d="M464.7,338.94s11.377-.421,14.326-10.745c0,0,4.425,12.009-14.326,10.745" transform="translate(306 6493)" fill="#333"/>
    <path id="路径_159" data-name="路径 159" d="M423.689,114.642c-3.713-15.3-16.082-18.434-24.267-20.5a43.206,43.206,0,0,1-5.567-1.647c-4.743-1.968-5.229-6.966-5.791-12.755a52.769,52.769,0,0,0-1.077-7.4c-1.123-4.593-5.639-8.718-9.623-11.573a27.356,27.356,0,0,1-7.778-8.739C361.85,38.454,351.915,34.8,341.612,35.307c-16.448.815-25.483,8.428-30.445,18.206a29.581,29.581,0,0,1-2.943,4.693,40.71,40.71,0,0,0-8.2,23.416c-.581,14.542-5.712,20.632-10.239,26-.765.909-1.517,1.8-2.231,2.711-3.432,4.367-.361,8.492,3.2,13.266,2.389,3.208,5.786,7.618,6.37,9.459a13.76,13.76,0,0,1,.741,3.314c.362,5.784-3.073,8.135-2.712,14.283s9.04,13.74,9.04,13.74,55.506,9.041,65.811,9.4c8.781.308,30.152-6.609,41.1-22.638a80.734,80.734,0,0,0,6.232-8.957c6.07-10.178,8.271-19.708,6.364-27.562M304.909,98.948c-1.627,11.211-11.005,8.059-12.656,19.888a12.33,12.33,0,0,0,.05,3.759c-.024-.031-.049-.065-.073-.1-3.693-4.957-5.663-7.914-3.224-11.018.7-.893,1.44-1.768,2.191-2.66,4.718-5.6,10.066-11.948,10.673-27.123a39.609,39.609,0,0,1,6.09-19.825c-4.156,14.737-2.2,31.228-3.051,37.078M416.3,140.243c6.58-21.531-5.22-34.036-17.372-39.848C386.45,94.428,381.93,81.953,373.794,60.98c-.067-.173-.137-.337-.205-.509,4.1,2.578,10.364,7.235,11.6,12.3a51.242,51.242,0,0,1,1.034,7.145c.594,6.115,1.155,11.89,6.924,14.282a44.338,44.338,0,0,0,5.82,1.732c8.218,2.08,19.474,4.929,22.925,19.148,2.085,8.589-1.392,17.836-5.6,25.165" transform="translate(306 6493)" fill="#300b58"/>
    <path id="路径_160" data-name="路径 160" d="M313.412,223.913a54.35,54.35,0,0,1-.779,9.832c-.841,3.644-7.847,29.428-9.248,44.842s-1.682,95.57,4.2,135.087,19.9,142.373,19.338,147.137-17.937,11.211-24.944,11.771-7.006,5.324-7.006,5.324h44L341.22,419l24.413,159.884H406.8s.479-6.223-6.7-8.138-23.935-4.787-26.329-9.095,4.9-232.171,5.266-259.933c.513-38.5-12.419-64.386-13.906-71.076a29,29,0,0,1-.41-7.175Z" transform="translate(306 6493)" fill="url(#linear-gradient-19)"/>
    <path id="路径_161" data-name="路径 161" d="M352.794,231.651s-2.253,36.8,23.282,39.054c0,0-19.026-8.762-23.282-39.054" transform="translate(306 6493)" fill="#300a58"/>
    <path id="路径_162" data-name="路径 162" d="M373.484,559.38c-.3-5.225-.231-18.906.067-37.431l-16.564.307,5.421,35.5c3.656,4,8.95,2.477,11.076,1.623" transform="translate(306 6493)" fill="url(#linear-gradient-13)"/>
    <path id="路径_163" data-name="路径 163" d="M332.993,387.489c-.42,14.326-4.286,84.708-15.42,97.166,1.875,13.827,3.686,27.456,5.21,39.291l16.944.968L341.22,419S333.2,332.5,330.9,289.807c0,0,2.552,81.907,2.088,97.682" transform="translate(306 6493)" fill="#300a58"/>
    <path id="路径_164" data-name="路径 164" d="M339.726,524.914l-16.944-.968c2.6,20.17,4.351,35.118,4.145,36.865,0,0,7.312.458,12.359-4.748Z" transform="translate(306 6493)" fill="url(#linear-gradient-13)"/>
    <path id="路径_165" data-name="路径 165" d="M358.731,112.934s5.521,3.773,5.849,4.921-.164,1.311-.164,1.311,20.143,8.1,21.038,19.43-4.027,62.943-12.231,68.909-9.115,6.388-9.115,6.388l.614,9.572-51.309.447.447-16.556s-20.136,9.1-26.4-.447,14.02-59.363,17.451-68.611,12.678-17.153,19.987-17.9c0,0,3.1-6.475,6.917-5.251s26.916-2.215,26.916-2.215" transform="translate(306 6493)" fill="url(#linear-gradient-2)"/>
    <path id="路径_166" data-name="路径 166" d="M357.7,181.5s6.164-43.92,20.034-49.7c0,0-10.017,3.275-14.833,19.456s-10.4,29.472-14.64,31.591S336.7,186.9,334.966,186.9s-1.488-23.688-.937-33.419c0,0-3.3,29.373-2.723,36.5S357.7,181.5,357.7,181.5" transform="translate(306 6493)" fill="#ad80ff"/>
    <path id="路径_167" data-name="路径 167" d="M308,162.626s3.66,18.493,11.943,25.62-12.906-6.164-12.906-6.164l-.963-3.468s-4.046-9.053-9.632-10.787c0,0,7.127.578,10.6,4.431a13.661,13.661,0,0,1,.963-9.632" transform="translate(306 6493)" fill="#ad80ff"/>
    <path id="路径_168" data-name="路径 168" d="M332.7,223.744l32.019-.279-.614-9.572s-12.464-.785-16.238-3.777l-12.42-8.393-6.281.491-15.308,5.142-.153,5.628c2.389-2.272,8.5-7.65,12.91-7.728,5.035-.088,4.9,15.4,4.825,18.5l.361,0-.354-19.07a.508.508,0,0,1,.791-.435c3.154,2.138,7.878,5.49,9.883,7.683,3.141,3.435,14.234,3.434,14.623,5.692.491,2.846-20.425,5.669-24.044,6.122" transform="translate(306 6493)" fill="#ad80ff"/>
    <path id="路径_169" data-name="路径 169" d="M309.407,198.762l7.086-1.882-4.207-9.964-11.4-3.986-9.908,4.3c5.592.09,13.565,4.616,13.565,4.616Z" transform="translate(306 6493)" fill="#ad80ff"/>
    <path id="路径_170" data-name="路径 170" d="M377.715,188.577l-16.385-.886-16.275,2.547.48,11.17a12.959,12.959,0,0,0,2.334,8.709c3.611-4.619,3.709-10.711,5.037-12.7s13.84-4.232,20.159-.311c2,1.24,4.08.116,5.388-.334.7-2.454,1.361-5.2,1.97-8.138Z" transform="translate(306 6493)" fill="#ad80ff"/>
    <path id="路径_171" data-name="路径 171" d="M349.282,193.161s.283,13.659-1.413,16.955c0,0-20.629-8.477-23.549-9.984s24.962-6.971,24.962-6.971" transform="translate(306 6493)" fill="#ffa569"/>
    <path id="路径_172" data-name="路径 172" d="M322.53,190.524s-13.376-15.543-21.477-16.39a19.338,19.338,0,0,0-13.47,3.579s-3.2,6.406,3.391,9.514c0,0,14.412-.753,20.064,4.522Z" transform="translate(306 6493)" fill="url(#linear-gradient-13)"/>
    <path id="路径_173" data-name="路径 173" d="M368.035,177.885s6.3-2.15,8.941-2.15,1.507-3.674-3.862-3.015-14.883,4.239-17.332,6.123-9.608,7.913-13.565,8.384-32.78,3.579-37.679,4.615c0,0-4.242,10.792,2.921,17.8a53.463,53.463,0,0,0,6.4-2.288s42.707-15.136,47.867-15.279,14.479,4.444,16.629,2.15c.488-.52,1.651-1.213,2.011-1.968.382-1.621.748-3.323,1.1-5.083a1.922,1.922,0,0,0-.734-1.911c-3.011-2.253-10.251-7.269-12.7-7.38" transform="translate(306 6493)" fill="url(#linear-gradient-13)"/>
    <path id="路径_174" data-name="路径 174" d="M321.267,133.733c1.121,1,5.979-7.972,7.1-7.723s2.616,3.363,2.74,5.979,2.741-7.723,2.741-7.723l-.618-8.9a6.459,6.459,0,0,1-1.415-.217c-3.822-1.224-6.917,5.251-6.917,5.251s-4.752,12.336-3.631,13.333" transform="translate(306 6493)" fill="#ad80ff"/>
    <path id="路径_175" data-name="路径 175" d="M364.58,117.855c-.328-1.147-5.849-4.921-5.849-4.921s-1.959.292-4.822.674l-5.612,4.8-6.1,12.83s2.99-5.107,4.609-4.858c1.315.2,4.437,7.385,5.564,10.079a.567.567,0,0,0,1,.085l11.049-17.382.274-.6a2.41,2.41,0,0,0-.11-.715" transform="translate(306 6493)" fill="#ad80ff"/>
    <path id="路径_176" data-name="路径 176" d="M331.815,115.149a1.459,1.459,0,0,0-1.516.167c-2.141,2.065,3.731,38.163,3.731,38.163a149.278,149.278,0,0,0,6.814-18.228c2.726-9.37,17.351-21.624,17.887-22.317s-1.192-.681-1.192-.681Z" transform="translate(306 6493)" fill="#fff"/>
    <path id="路径_177" data-name="路径 177" d="M355.362,82.666s-1.913,22.772,2.176,29.587c0,0-17.206,13.628-19.932,13.458s-5.792-10.562-5.792-10.562,3.578-2.556,4.43-6.133.511-14.48.511-14.48Z" transform="translate(306 6493)" fill="url(#linear-gradient-13)"/>
    <path id="路径_178" data-name="路径 178" d="M339.386,51.23s-2.244,4.024-9.138,6.322-7.059,4.1-7.059,11.654.821,27.085,12.968,28.234,19.206-14.773,19.206-14.773,5.909-2.791,4.432-6.238-4.6,0-4.6,0-16.687-12.808-15.812-25.2" transform="translate(306 6493)" fill="url(#linear-gradient-13)"/>
    <path id="路径_179" data-name="路径 179" d="M332.474,81.623a.7.7,0,0,1-.588-.324c-1.135-1.8-.606-8.734-.488-10.105a.693.693,0,1,1,1.381.118c-.256,3-.406,8.157.281,9.248a.693.693,0,0,1-.218.956.68.68,0,0,1-.368.107" transform="translate(306 6493)"/>
    <path id="路径_180" data-name="路径 180" d="M336.055,88.975a8.971,8.971,0,0,1-5.243-2.256.694.694,0,0,1,.933-1.027c.025.022,2.548,2.27,4.937,1.841,2.439-.444,4.247-3.015,4.265-3.041a.693.693,0,0,1,1.141.788c-.086.125-2.145,3.07-5.158,3.617a4.833,4.833,0,0,1-.875.078" transform="translate(306 6493)"/>
    <path id="路径_181" data-name="路径 181" d="M340.056,67.8a.693.693,0,0,1-.235-1.346,9.133,9.133,0,0,1,5.635-.107.693.693,0,1,1-.493,1.295,7.773,7.773,0,0,0-4.672.117.692.692,0,0,1-.235.041" transform="translate(306 6493)"/>
    <path id="路径_182" data-name="路径 182" d="M329.748,68.134a.685.685,0,0,1-.2-.029,7.961,7.961,0,0,0-4.067-.061.693.693,0,1,1-.428-1.319,9.26,9.26,0,0,1,4.9.052.693.693,0,0,1-.2,1.357" transform="translate(306 6493)"/>
    <path id="路径_183" data-name="路径 183" d="M344.033,73.064a1.8,1.8,0,1,1-1.749-2.206,2.017,2.017,0,0,1,1.749,2.206" transform="translate(306 6493)"/>
    <path id="路径_184" data-name="路径 184" d="M328.933,73.239a1.665,1.665,0,1,1-1.621-2.045,1.871,1.871,0,0,1,1.621,2.045" transform="translate(306 6493)"/>
    <path id="路径_185" data-name="路径 185" d="M453.446,489.777l23.927,101.55a2.564,2.564,0,0,1-4.958,1.3l-29.87-102.853Z" transform="translate(306 6493)" fill="url(#linear-gradient-4)"/>
    <path id="路径_186" data-name="路径 186" d="M387.253,489.777l-23.927,101.55a2.564,2.564,0,0,0,4.958,1.3l29.868-102.853Z" transform="translate(306 6493)" fill="url(#linear-gradient-4)"/>
    <path id="路径_187" data-name="路径 187" d="M390.338,462.812l35.283-35.283-4.016-45.323s23.235-5.737,40.16-5.737,22.948,16.35,22.948,25.817v53.928c0,20.654-21.227,38.726-32.127,38.726H376.569c-8.48,0-22.087,1.432-21.739-15.664s35.508-16.464,35.508-16.464" transform="translate(306 6493)" fill="url(#linear-gradient-4)"/>
    <path id="路径_188" data-name="路径 188" d="M386.459,408.36l-2.154,4.19s-31.472,9.464-34.529,10.076-40.441-.227-40.441-.227.7-6.091,14.762-7.518a78.114,78.114,0,0,0,42.186-17.526c13.451-11.005,13.043.2,13.043.2Z" transform="translate(306 6493)" fill="url(#linear-gradient-13)"/>
    <path id="路径_189" data-name="路径 189" d="M434.626,296.579a1.2,1.2,0,0,1,.9-.128c.514.128,27.3,11.46,34.6,26.068s21.235,83.1,5.736,91.162c-2.676,1.392-3.366,3.3-6.661,1.719-2.1-1.005-5.157.573-5.157.573s1.813,15.9,1.545,20.71-1.6,9.351-2.671,9.886-23.513-7.749-33.4-7.749-14.7-4.275-18.7-2.4-26.719.8-26.719.8l.267-24.848s-2-10.87-9.4-13.4-8.765-2.045-9.35-3.214,6.892-9.393,8.243-26.8,3.219-39.448,13.184-52.165,18.919-18.631,24.157-18.631h0Z" transform="translate(306 6493)" fill="url(#linear-gradient)"/>
    <path id="路径_190" data-name="路径 190" d="M462.857,446.75c1.069-.534,2.4-5.077,2.672-9.886s-1.545-20.709-1.545-20.709a9.548,9.548,0,0,1,2.652-.84l-1.557-3.993L424.59,418.25l-10.826-.216a32.29,32.29,0,0,1-11.475-12.992c-4.331-8.877-16.239-59.975-16.239-59.975.433,7.8,8.444,43.087,9.31,52.614S384.3,412.55,384.3,412.55l-.267,24.848s22.711,1.069,26.718-.8,8.818,2.405,18.7,2.405,32.329,8.282,33.4,7.748" transform="translate(306 6493)" fill="#424242"/>
    <path id="路径_191" data-name="路径 191" d="M456.635,331.426s-5.413,26.848-1.083,39.623,3.465,17.538,3.465,19.053-4.159,4.821-2.079,7.5l-31.482,16.535s24.25-11.909,25.55-21.868,1.515-29.447-4.331-46.552a27.948,27.948,0,0,1,4.98,9.31s1.732-16.022,4.98-23.6" transform="translate(306 6493)" fill="#424242"/>
    <path id="路径_192" data-name="路径 192" d="M468.984,415.768a1.776,1.776,0,0,0,1.379-1.317c.54-2.186,1.167-7.173-2.952-10.865-5.423-4.863-7.668-6.733-10.473-5.985s-28.054,16.271-36.1,17.206-12.718-5.8-23-3.553-11.6,11.222-11.6,11.222,38.528.561,42.83.561c3.868,0,33.9-6.05,39.913-7.269" transform="translate(306 6493)" fill="url(#linear-gradient-13)"/>
    <path id="路径_193" data-name="路径 193" d="M411.9,310.58s.478,8.969,2.272,9.447l-2.9,87.071s4.039,8.079,6.283,8.079,6.732-6.732,7.181-8.079-4.488-87.52-4.488-87.52l5.386-9.874-11.221-5.385Z" transform="translate(306 6493)" fill="url(#linear-gradient-33)"/>
    <path id="路径_194" data-name="路径 194" d="M441.006,298.368c-3.132-1.548-5.242-2.425-5.383-2.46a6.954,6.954,0,0,0-2.315.748l-1.536.293L421.086,309c-1.367-1.171-3.329-2.725-3.329-2.725l-4.328-8.087-.656-.87c-2.278-.663-7.287,1.566-11.262,4.758l.142.079a3.287,3.287,0,0,1,1.388,1.5l5.718,12.488a.9.9,0,0,0,1.531.164l4.118-5.491c1.316-1.555,1.794,1.435,3.588,1.555a2.88,2.88,0,0,0,2.043-1.036,1.308,1.308,0,0,1,2.021.307l3.174,5.461a.9.9,0,0,0,1.474.113l14.5-17.932a.6.6,0,0,0-.2-.919" transform="translate(306 6493)" fill="url(#linear-gradient)"/>
    <path id="路径_195" data-name="路径 195" d="M392.573,225.1c-2.843,2.333-7.7,16.181,4.88,19.391l2.7,7.32,25.169,18.62,4.327.158s12.239-6.065,9.157-24.814-6.421-19.262-17.85-18.364c-6.79.535-16.566.257-18.363-1.669s-5.009-4.751-10.017-.642" transform="translate(306 6493)" fill="#300b58"/>
    <path id="路径_196" data-name="路径 196" d="M430.842,267.1s-1.669,19.263,3.724,29.664c0,0-11.044,13.741-16.18,14s-7.577-11.173-7.32-14.255-1.028-16.951-1.028-16.951Z" transform="translate(306 6493)" fill="url(#linear-gradient-13)"/>
    <path id="路径_197" data-name="路径 197" d="M397.453,244.494s-5.553,37.228,10.659,40.132,21.534-14.034,21.534-14.034,11.34-8.248,4.919-10.56c-4.27-1.537-3.941,3.512-5.393,4.238s-9.118-12.2-6.292-19.262c0,0-15.8,4.623-25.427-.514" transform="translate(306 6493)" fill="url(#linear-gradient-13)"/>
    <path id="路径_198" data-name="路径 198" d="M407.437,268.918a.694.694,0,0,1-.644-.436c-.979-2.449-.142-9.512-.044-10.309a.693.693,0,0,1,1.376.171c-.256,2.068-.762,7.829-.044,9.623a.693.693,0,0,1-.387.9.683.683,0,0,1-.257.05" transform="translate(306 6493)"/>
    <path id="路径_199" data-name="路径 199" d="M409.444,275.838a7.024,7.024,0,0,1-4.346-1.52.693.693,0,0,1,.91-1.046,5.748,5.748,0,0,0,3.813,1.166c4.144-.286,5.789-2.316,5.858-2.4a.693.693,0,0,1,1.1.848c-.081.106-2.051,2.606-6.859,2.937-.161.012-.319.017-.473.017" transform="translate(306 6493)"/>
    <path id="路径_200" data-name="路径 200" d="M419.207,255.5a.671.671,0,0,1-.2-.03,5.606,5.606,0,0,0-3.744-.035.693.693,0,0,1-.59-1.255,6.926,6.926,0,0,1,4.736-.037.693.693,0,0,1-.2,1.357" transform="translate(306 6493)"/>
    <path id="路径_201" data-name="路径 201" d="M399.668,255.97a.693.693,0,0,1-.2-1.357,8.841,8.841,0,0,1,4.254-.233.694.694,0,0,1-.417,1.323,7.329,7.329,0,0,0-3.438.238.685.685,0,0,1-.2.029" transform="translate(306 6493)"/>
    <path id="路径_202" data-name="路径 202" d="M419.365,260.77a2.13,2.13,0,1,1-2.08-2.59,2.377,2.377,0,0,1,2.08,2.59" transform="translate(306 6493)"/>
    <path id="路径_203" data-name="路径 203" d="M403.591,260.717a1.893,1.893,0,1,1-1.848-2.3,2.113,2.113,0,0,1,1.848,2.3" transform="translate(306 6493)"/>
    <path id="路径_204" data-name="路径 204" d="M313.935,432.255l38.648,149.981h13.428L349.558,469.313a281.451,281.451,0,0,0,42.3,7.729L378.575,582.607l14.052,1.082L426.3,476.879c32.229-4.834,36.421-25.824,36.958-36.031l.538-9.131Z" transform="translate(306 6493)" fill="url(#linear-gradient-37)"/>
    <path id="路径_205" data-name="路径 205" d="M318.587,595.544,369.4,595.3l-3.387-13.066H352.582s-20.929,6.049-26.736,6.049-8.469,2.42-7.259,7.259" transform="translate(306 6493)" fill="#300b58"/>
    <path id="路径_206" data-name="路径 206" d="M378.575,582.607l-3.127,11.969H426.5s.484-6.291-3.629-6.775-20.567-1.694-30.245-4.113Z" transform="translate(306 6493)" fill="#300b58"/>
    <path id="路径_207" data-name="路径 207" d="M427.383,466.069c-.54,2.162-1.081,10.809-1.081,10.809,9.578-1.437,16.664-4.306,21.93-7.889-13.928,5.171-20.849-2.92-20.849-2.92" transform="translate(306 6493)" fill="#666"/>
    <path id="路径_208" data-name="路径 208" d="M380.364,452.558c-8.647,18.916-30.806,16.754-30.806,16.754a281.377,281.377,0,0,0,42.3,7.73s-7.175-28.808,4.715-34.753c7.539-3.77,38.33-7.973,59.854-10.545l-142.5.51s75.076,1.388,66.429,20.3" transform="translate(306 6493)" fill="url(#linear-gradient-38)"/>
    <path id="路径_209" data-name="路径 209" d="M71.879,575.513H29.273L18.939,502.458H82.213Z" transform="translate(306 6493)" fill="url(#linear-gradient-39)"/>
    <path id="路径_210" data-name="路径 210" d="M52.6,502.458H31.854l44.119,44.118,2.57-18.174Z" transform="translate(306 6493)" fill="#e1d5ff" opacity="0.142"/>
    <path id="路径_211" data-name="路径 211" d="M23.51,534.768l40.745,40.745h7.624L73.5,564.019,20.092,510.606Z" transform="translate(306 6493)" fill="#e1d5ff" opacity="0.142"/>
    <path id="路径_212" data-name="路径 212" d="M29.274,575.513H43.735L26.891,558.669Z" transform="translate(306 6493)" fill="#e1d5ff" opacity="0.142"/>
    <path id="路径_213" data-name="路径 213" d="M98.918,405.286c9.264,4.877,6.247,21.8.482,30.37s-8.274,15.037-7.36,22.52.2,16.017-15.4,20.793S68.2,490.887,55.069,495.913c0,0-12.112-2.321-11.94-3.125s3.814-49.064,22.272-69.76,27.223-21.056,33.517-17.742" transform="translate(306 6493)" fill="url(#linear-gradient-4)"/>
    <path id="路径_214" data-name="路径 214" d="M46.97,496.465c4.136-4.729,14.065-21.762,23.977-39.536l-.07.023c-3.275-9.878.512-28.78,1.305-32.469l.9.2c-.469,2.179-4.388,21.128-1.562,31.211,12.664-22.746,25.114-46.334,25.229-46.634l.439.144.453.1c-.039.186-8.662,16.546-18.873,35.177,12.066-10.274,18.933-19.884,19.3-20.627l.83.408c-.407.83-7.728,11.218-21.123,22.264l-.078-.092c-4.027,7.331-8.257,14.931-12.278,21.98,10.255-.741,20.191-7.288,20.292-7.355l.514.77c-.1.07-10.639,7.032-21.364,7.562-7.4,12.936-14.009,23.847-17.2,27.492Z" transform="translate(306 6493)" fill="url(#linear-gradient-5)"/>
    <path id="联合_21" data-name="联合 21" d="M48.549,175.2c6.181-52.139-2.4-87.147-5.772-98.259A29.824,29.824,0,0,0,24.46,64.817C-1,59.728-1.741,49.568,1.178,42.348c2.624-6.491,13.362-8.881,24.387-.607C17.138,28.908,10.049,12.92,18.991,3.979,31.057-8.087,42.239,9.587,40.61,26.357s-3.744,25.235.327,35c0,0-.128-.135-.354-.381a67.745,67.745,0,0,1,5.335,15.657c3.573,12.077,11.832,47.282,5.711,98.925Z" transform="translate(307.252 6809.991)" fill="url(#linear-gradient-4)"/>
    <path id="路径_216" data-name="路径 216" d="M55.7,407.134c-.189.238-.295.369-.295.369,3.044-9.145.556-16.694-2.044-31.818s6.377-31.924,18.143-21.771c8.719,7.525,3.349,22.52-3.449,34.74,9.463-8.252,19.375-6.8,22.193-1.078,3.133,6.364,3.137,15.641-19.647,21.965-15.054,4.178-19.167,19.477-19.167,19.477A58.324,58.324,0,0,1,55.7,407.134" transform="translate(306 6493)" fill="url(#linear-gradient-4)"/>
    <path id="路径_218" data-name="路径 218" d="M10.075,386.3c-11.247,3.149-11.921,22.314-7.642,33.012s5.5,18.34,2.751,26.288S1.211,463.027,17.1,471.891s6.419,14.978,19.563,23.537c0,0,13.755.3,13.755-.612s7.336-54.409-7.947-81.308-24.759-29.344-32.4-27.2" transform="translate(306 6493)" fill="url(#linear-gradient-4)"/>
    <path id="路径_219" data-name="路径 219" d="M45.373,497.928c-3.4-6.127-10.242-27.032-16.889-48.741l.071.041c5.886-10.006,6.185-31.51,6.185-35.72H33.706c0,2.487-.163,24.074-5.61,34.409-8.482-27.777-16.536-56.422-16.591-56.775l-.513.053h-.516c0,.213,5.571,20.077,12.343,42.79C12.067,419.952,6.827,407.861,6.6,406.965l-1,.25c.251,1,5.8,14.048,17.825,29.234l.105-.083c2.675,8.94,5.508,18.222,8.243,26.852-11.012-3.211-20.315-12.68-20.41-12.777l-.742.719c.1.1,9.957,10.163,21.532,13.254,5.038,15.843,9.693,29.293,12.317,34.017Z" transform="translate(306 6493)" fill="url(#linear-gradient-5)"/>
    <path id="路径_220" data-name="路径 220" d="M88.943,491.76H12.65a2.574,2.574,0,0,0-2.574,2.574v14.414a2.574,2.574,0,0,0,2.574,2.575H88.943a2.574,2.574,0,0,0,2.574-2.575V494.334a2.574,2.574,0,0,0-2.574-2.574" transform="translate(306 6493)" fill="url(#linear-gradient-3)"/>
    <path id="路径_221" data-name="路径 221" d="M266.589,131.742c-4.242-9.759.637-11.88-3.182-27.364S284.2,55.8,249.194,41.161c-3.185-1.332-18.879-10.393-33.3.849-7.146,5.57-10.546,16.449-15.122,28.719a16.748,16.748,0,0,1-8.794,9.424,90.55,90.55,0,0,0-12.147,6.618c-24.417,15.932-41.962,49.829-5,76.1,5.913,13.177,14.593,23.607,21.55,25.3,16.546,4.03,65.973-2.97,71.912-12.3s2.546-34.366-1.7-44.124m-88.671-23.334c-13.056,11.92-11.588,32.77-4.868,50.2-8.223-6.061-22.849-21.514-10.83-49.348,5.887-13.633,24.727-23.733,35.28-29.525-4.065,8.849-11.2,21.023-19.582,28.676" transform="translate(306 6493)" fill="#300b58"/>
    <path id="路径_222" data-name="路径 222" d="M241.819,43.591s-18.71,26.867-40.778,34.782c0,0,17.51-7.435,40.778-34.782" transform="translate(306 6493)" fill="#9b5fdb"/>
    <path id="路径_223" data-name="路径 223" d="M278.487,209.546s-.742,74.731-4.647,88.618L260.386,299.9l-2.6-87.665,7.409.236Z" transform="translate(306 6493)" fill="url(#linear-gradient-13)"/>
    <path id="路径_224" data-name="路径 224" d="M253.084,433.441l28.572-.42-5.882,126.054s14.706,10.085,26.891,10.085,12.606,8.4,12.606,8.4H264.429Z" transform="translate(306 6493)" fill="url(#linear-gradient-13)"/>
    <path id="路径_225" data-name="路径 225" d="M302.666,569.16a27.353,27.353,0,0,1-5-.5c.581.616.594,1.154-.64,1.4-3.834.767-24.027-7.669-29.906-7.924a7.959,7.959,0,0,0-3.849.738l1.159,14.69h50.842s-.42-8.4-12.605-8.4" transform="translate(306 6493)" fill="#170034"/>
    <path id="路径_226" data-name="路径 226" d="M210.041,436.759l28.337-3.738-5.883,126.054S247.2,569.16,259.387,569.16s12.606,8.4,12.606,8.4H221.151Z" transform="translate(306 6493)" fill="url(#linear-gradient-13)"/>
    <path id="路径_227" data-name="路径 227" d="M259.387,569.16a27.353,27.353,0,0,1-5-.5c.581.616.594,1.154-.64,1.4-3.834.767-24.027-7.669-29.906-7.924a7.959,7.959,0,0,0-3.849.738l1.159,14.69h50.842s-.42-8.4-12.605-8.4" transform="translate(306 6493)" fill="#170034"/>
    <path id="路径_228" data-name="路径 228" d="M208.242,121.741s-.823-.468-2.687,1.057-15.782,7.529-16.873,35.637,0,58.944,0,58.944a38.118,38.118,0,0,0,10.826.863c7.051-.235,9.913-1.136,9.913-1.136l1.638-23.2s3.274,22.1.546,29.2-8.752,16.68-12.108,30.1,10.543,183.55,10.543,183.55l71.887-2.4s-2.375-161.49-10.086-188.614-6.651-33.279-6.651-33.279,8.776.8,13.3-2.925c0,0,1.348-81.873-26.318-87.321Z" transform="translate(306 6493)" fill="#5d1aa5"/>
    <path id="路径_229" data-name="路径 229" d="M278.487,209.546s.048-2.967-.063-7.8a5.117,5.117,0,0,0-2.387,2.059c-2.468,4.038-7.4,3.365-7.4,3.365s-4.038-15.7,1.57-37.912c0,0-3.141,8.076-4.038,13.236s-.975,29.977-.975,29.977,8.775.8,13.3-2.925" transform="translate(306 6493)" fill="#300b58"/>
    <path id="路径_230" data-name="路径 230" d="M215.916,223.321c3.814-13.011-2.019-21.311-4.711-72.01,0,0-.068,34.276-.146,42.6,0,0,3.275,22.1.546,29.2-.913,2.374-2.2,5.034-3.626,8.015,2.1.858,5.482.571,7.937-7.8" transform="translate(306 6493)" fill="#300b58"/>
    <path id="路径_231" data-name="路径 231" d="M261.679,184.064s-9.87-3.365-13.235-2.692-11.217,4.487-13.236,8.3a48.911,48.911,0,0,1,26.471-5.608" transform="translate(306 6493)" fill="#300b58"/>
    <path id="路径_232" data-name="路径 232" d="M209.422,217.107a167.519,167.519,0,0,0,8.622,49.481c8.7,25,12.052,23.657,14.06,29.236s6.026,10.96,5.356,12.969-7.364-8.927-7.364-8.927.223,4.91,1.562,7.811,2.232,5.356,5.8,4.24,2.455,4.241.447,4.91-11.273,3.5-18.2-13.072c-5.133-12.275-2.927-15.165-9.247-26.008-10.639-18.253-21.007-40.391-21.774-60.367Z" transform="translate(306 6493)" fill="url(#linear-gradient-13)"/>
    <path id="路径_233" data-name="路径 233" d="M221.275,79.261s.241,26.309-1.448,32.1-8.207,7.965-11.586,10.378c0,0,19.309,21.964,33.067,21.24s10.862-20.757,10.862-20.757-12.008-5.342-12.433-11.574c-.428-6.279-.36-17.873-.36-17.873Z" transform="translate(306 6493)" fill="url(#linear-gradient-13)"/>
    <path id="路径_234" data-name="路径 234" d="M242.265,51.484s-5.449,10.9-13.623,16.932-12.261,4.865-13.429,8.173c-.7,1.986,2.141,5.839,5.45,5.644,0,0,7.59,16.737,20.045,16.348s13.623-20.24,13.429-26.857,1.556-15.958-11.872-20.24" transform="translate(306 6493)" fill="url(#linear-gradient-13)"/>
    <path id="路径_235" data-name="路径 235" d="M244.311,82.105a.693.693,0,0,1-.566-1.093c.716-1.015.245-6.063-.318-9.325a.694.694,0,0,1,1.367-.236c.243,1.406,1.389,8.512.084,10.361a.692.692,0,0,1-.567.293" transform="translate(306 6493)"/>
    <path id="路径_236" data-name="路径 236" d="M240.867,90.76c-3.508,0-6.656-3.2-6.794-3.343a.693.693,0,0,1,.994-.966c.031.032,3.13,3.169,6.171,2.906,2.9-.256,3.621-1.652,3.65-1.711a.7.7,0,0,1,.918-.329.686.686,0,0,1,.344.9c-.04.089-1.013,2.185-4.79,2.518-.165.015-.33.022-.493.022" transform="translate(306 6493)"/>
    <path id="路径_237" data-name="路径 237" d="M247.224,68.547a.693.693,0,0,1-.191-1.36,12.525,12.525,0,0,1,5.888-.1.693.693,0,0,1-.348,1.342,11.316,11.316,0,0,0-5.16.1.69.69,0,0,1-.189.027" transform="translate(306 6493)"/>
    <path id="路径_238" data-name="路径 238" d="M230.755,68.246a.694.694,0,0,1-.279-1.329c1.735-.759,5.293-.307,5.694-.252a.693.693,0,0,1-.185,1.374c-.982-.132-3.784-.363-4.952.149a.7.7,0,0,1-.278.058" transform="translate(306 6493)"/>
    <path id="路径_239" data-name="路径 239" d="M236.2,73.771a2.152,2.152,0,1,1-2.131-2.452,2.309,2.309,0,0,1,2.131,2.452" transform="translate(306 6493)"/>
    <path id="路径_240" data-name="路径 240" d="M251.964,73.356a1.976,1.976,0,1,1-1.956-2.25,2.119,2.119,0,0,1,1.956,2.25" transform="translate(306 6493)"/>
    <path id="路径_241" data-name="路径 241" d="M261.455,143.685s7.179,10.768,7.627,13.907a29.269,29.269,0,0,0-7.627-13.907" transform="translate(306 6493)" fill="#4d4d4d"/>
    <path id="路径_242" data-name="路径 242" d="M165.261,275.994s1.146-5.7,9.145-5.392a189.946,189.946,0,0,1-7.72,45.217" transform="translate(306 6493)" fill="url(#linear-gradient-13)"/>
    <path id="路径_243" data-name="路径 243" d="M166.586,305.8s4.247,86.137-.25,122.569-9.445,118.289-9,123.687,14.843,13.493,21.589,14.392,9,1.8,9,7.646H140.249s0-13.043,1.8-20.689c0,0-9.9-75.112-7.2-98.949s-.45-88.605-.45-88.605-18.441,85.006-20.24,99.4-9.445,81.858-10.794,88.155,18.89,11.694,24.287,12.144,6.3,7.646,6.3,7.646H86.726s.45-13.943,1.8-17.541c0,0-4.048-81.858-1.8-118.74s7.061-138.368,7.061-138.368Z" transform="translate(306 6493)" fill="url(#linear-gradient-4)"/>
    <path id="交叉_2" data-name="交叉 2" d="M64.814,275.548s0-11.148,1.422-18.873l13.227.8,3.32-1.675c3.286,5.147,14.869,11.326,20.712,12.105,6.747.9,9,1.8,9,7.646Zm-53.523-.9s.45-13.943,1.8-17.541l0-.054L26.1,255.968h1.819c1.018,5.81,19.229,10.612,24.307,11.035,5.4.45,6.3,7.646,6.3,7.646Z" transform="translate(381.434 6791.551)" fill="#151331"/>
    <path id="路径_244" data-name="路径 244" d="M88.407,553.17c.075,1.605.119,2.489.119,2.489a15.994,15.994,0,0,0-.653,2.868l17.224-1.256c-1.318-1.221-2.016-2.52-1.729-3.861Z" transform="translate(306 6493)" fill="#fcbe96"/>
    <path id="路径_245" data-name="路径 245" d="M158.979,555.383a6.408,6.408,0,0,1-1.638-3.322l-15.293,1.349c-.259,1.1-.479,2.316-.669,3.586Z" transform="translate(306 6493)" fill="#fcbe96"/>
    <path id="路径_246" data-name="路径 246" d="M134.544,458.328c3.153-5.63,7.1-13.372,7.1-16.891,0-5.864-3.128-41.436-1.173-46.909s9.521-43.094,6.324-64.351c0,0-.262,11.785-4.452,16.761s-7.937,18.918-7.937,18.918,3.148,64.766.45,88.6c-.133,1.17-.234,2.467-.308,3.868" transform="translate(306 6493)" fill="#211a4a"/>
    <path id="路径_247" data-name="路径 247" d="M92.886,317.35a9.973,9.973,0,0,1,2.575,3.4c2.1,4.452-1.048,17.022-1.048,17.022s3.143,2.357,11.523-3.666,8.256-13.631,8.256-13.631L97.556,309.488l-4.118-3.623c-.146,3.048-.333,6.94-.552,11.485" transform="translate(306 6493)" fill="#211a4a"/>
    <path id="路径_248" data-name="路径 248" d="M107.136,154.01s-.775-1.086-3.567,1.086S80.427,170.033,76.7,176.053,61.569,205.675,57.789,229.4s-5.178,32.815-2.753,39.485,1.92,6.568,2.83,7.174a2.128,2.128,0,0,0,1.414.505s3.335-4.951,11.016-7.174,12.731-1.516,12.731-1.516a4.443,4.443,0,0,0,0-2.93,44.206,44.206,0,0,1,.606-17.179,140.735,140.735,0,0,1,5.861-17.582s7.2,62.7,3.228,76.946l73.865-1.325s-1.325-20.868-1.325-29.811c0,0,7.3-5.633,9.144-5.392a2.506,2.506,0,0,0,.8-2.168c-.081-1.526.049-81.11-4.145-89.5s-17.808-21.674-21.747-20.274-42.182-4.652-42.182-4.652" transform="translate(306 6493)" stroke="rgba(0,0,0,0)" stroke-width="1" fill="url(#linear-gradient-2)"/>
    <path id="路径_249" data-name="路径 249" d="M105.051,277.245s4.487,20.47,46.549,22.153c0,0-29.444-1.683-46.549-22.153" transform="translate(306 6493)" fill="#ad80ff"/>
    <path id="路径_250" data-name="路径 250" d="M105.892,293.229c-10.1-11.777-14.3-61.972-14.3-61.972s10.095-17.666,10.656-23.554c0,0-9.241,16.921-12.753,22.481,0,0,5.319,46.3,4.293,68.367l10.319,8.375,62.48-1.121s-50.6-.8-60.694-12.576" transform="translate(306 6493)" fill="#ad80ff"/>
    <path id="路径_251" data-name="路径 251" d="M94.115,196.486S92.433,228.734,81.5,241.352c-4.192,4.837-17.105-1.682-21.311,0,0,0,16.264,5.048,17.946,7.852s-14.862.561-22.152,4.486c0,0,21.031-1.682,21.311,1.122s-7.851-1.4-15.142,3.646c0,0,15.142-1.683,15.983,1.4s-11.216,6.449-14.862,12.057a2.13,2.13,0,0,0-.389,1.129,22.961,22.961,0,0,1,7.415-3.655c7.68-2.223,12.732-1.516,12.732-1.516a4.443,4.443,0,0,0,0-2.93,44.213,44.213,0,0,1,.607-17.178A140.715,140.715,0,0,1,89.5,230.184s5.461-22.762,4.62-33.7" transform="translate(306 6493)" fill="#ad80ff"/>
    <path id="路径_252" data-name="路径 252" d="M175.21,268.434c-.01-.183-.016-1.5-.028-3.684-2.069-.33-5.432-1.363-6.2-4.61-1.122-4.767-.281-57.485-.281-57.485-1.963,12.058-3.443,73.339-3.443,73.339s7.3-5.633,9.145-5.392a2.5,2.5,0,0,0,.8-2.168" transform="translate(306 6493)" fill="#ad80ff"/>
    <path id="路径_253" data-name="路径 253" d="M83.027,267.875s20.942,36.282,24.874,40.41,4.914,2.163,8.06,5.112,9.437,12.189,8.454,14.352-10.223-7.275-10.223-7.275-2.949,8.258-9.634,10.813a110.119,110.119,0,0,1-9.633-16.907c-3.539-8.257-29.61-26.48-35.644-37.815,0,0,7.13-12.14,23.746-8.69" transform="translate(306 6493)" fill="url(#linear-gradient-13)"/>
    <path id="路径_254" data-name="路径 254" d="M152.729,94.771s7.289-3.567,7.444-9.149-5.428-5.273-5.893-7.6-1.086-2.792-6.513-1.861-14.423.155-19.23-1.086-17.368,4.5-21.4,15.043,6.048,27.448,6.048,27.448l10.7-.31Z" transform="translate(306 6493)" fill="#300b58"/>
    <path id="路径_255" data-name="路径 255" d="M138.462,134.781s-.62,10.39-.465,14.422,11.32,9.46,11.32,9.46-8.684,15.352-22.486,11.32a34.017,34.017,0,0,1-19.694-15.973s5.117-2.481,6.668-7.6a59.424,59.424,0,0,0,2.326-17.369c-.155-5.427-2.946-11.475-2.946-11.475L123.73,120.2l21.555,7.288Z" transform="translate(306 6493)" fill="url(#linear-gradient-13)"/>
    <path id="路径_256" data-name="路径 256" d="M152.729,94.771s3.722,43.887-11.941,44.042-24.037-17.369-24.037-17.369-7.21-1.686-5.427-8.994c1.55-6.358,7.288,1.55,7.288,1.55s7.6-6.978,6.358-19.539a34.609,34.609,0,0,0,27.759.31" transform="translate(306 6493)" fill="url(#linear-gradient-13)"/>
    <path id="路径_257" data-name="路径 257" d="M139.867,121.067a.693.693,0,0,1-.617-1.009c1.7-3.316-.243-9.515-.263-9.577a.693.693,0,0,1,1.321-.422c.088.277,2.133,6.806.177,10.631a.7.7,0,0,1-.618.377" transform="translate(306 6493)"/>
    <path id="路径_258" data-name="路径 258" d="M137.652,129.741c-.07,0-.14,0-.21,0-3.333-.119-5.969-3.064-6.079-3.19a.693.693,0,0,1,1.039-.918c.023.026,2.363,2.628,5.1,2.723a4.709,4.709,0,0,0,3.48-1.5.693.693,0,1,1,.972.989,6.032,6.032,0,0,1-4.3,1.9" transform="translate(306 6493)"/>
    <path id="路径_259" data-name="路径 259" d="M127.177,107.367a.694.694,0,0,1-.23-1.348c.137-.049,3.4-1.171,5.89-.063a.693.693,0,0,1-.563,1.267c-1.984-.882-4.839.1-4.869.105a.7.7,0,0,1-.228.039" transform="translate(306 6493)"/>
    <path id="路径_260" data-name="路径 260" d="M144.154,107.787a.693.693,0,0,1-.248-1.341,9.537,9.537,0,0,1,5.768-.26.693.693,0,0,1-.452,1.311,8.245,8.245,0,0,0-4.822.245.707.707,0,0,1-.246.045" transform="translate(306 6493)"/>
    <path id="路径_261" data-name="路径 261" d="M132.295,111.877c0,1.337-.79,2.421-1.765,2.421s-1.765-1.084-1.765-2.421.79-2.421,1.765-2.421,1.765,1.084,1.765,2.421" transform="translate(306 6493)"/>
    <path id="路径_262" data-name="路径 262" d="M148.1,111.877c0,1.337-.79,2.421-1.765,2.421s-1.765-1.084-1.765-2.421.79-2.421,1.765-2.421,1.765,1.084,1.765,2.421" transform="translate(306 6493)"/>
    <path id="路径_263" data-name="路径 263" d="M183.017,489.777,159.09,591.327a2.564,2.564,0,0,0,4.958,1.3l29.869-102.853Z" transform="translate(306 6493)" fill="url(#linear-gradient-4)"/>
    <path id="路径_264" data-name="路径 264" d="M227.579,489.777l23.927,101.55a2.564,2.564,0,0,1-4.958,1.3L216.679,489.777Z" transform="translate(306 6493)" fill="url(#linear-gradient-4)"/>
    <path id="路径_265" data-name="路径 265" d="M259.894,494.94H183.877c-10.9,0-32.127-18.072-32.127-38.725V402.286c0-9.466,6.024-25.817,22.948-25.817s40.16,5.737,40.16,5.737l-4.016,45.323,35.283,35.283Z" transform="translate(306 6493)" fill="url(#linear-gradient-4)"/>
    <path id="路径_266" data-name="路径 266" d="M218.063,235.8c16.056,2.007,25.828,17.563,23.761,32.8s-3.616,24.536-1.291,31.51,3.358,28.668-5.424,38.224-37.966,36.934-37.966,36.934l-26.086-3.358s-14.98-2.841-8.781-14.98c0,0-3.616-6.457-.517-11.364s6.2-6.715,4.907-16.013-2.841-22.987,3.358-33.059a82.148,82.148,0,0,0,11.622-32.285c1.808-12.139,9.556-31.768,36.417-28.41" transform="translate(306 6493)" fill="#300b58"/>
    <path id="路径_267" data-name="路径 267" d="M198.82,279.085s1.745,22.587-3.532,30.247c-3.032,4.4-12.6,8-15.489,9.872l25.192,26.383,18.042-.34,5.787-27.234s-10.553-4.766-11.744-8.681,0-19.234,0-19.234Z" transform="translate(306 6493)" fill="url(#linear-gradient-13)"/>
    <path id="路径_268" data-name="路径 268" d="M189.331,313.758s11.064,27.4,25.021,27.064,11.575-24.851,11.575-24.851,8.851,2.213,13.447,18.042,12.085,53.447,12.085,53.447,2.042,2.383,2.042,3.915a11.941,11.941,0,0,0-10.048,5.3c-3.58,5.626-1.534,7.331-1.534,7.331s-1.023,1.534-2.046.511-10.569-21.48-10.569-21.48-6.478,38.357-5.285,43.983-.511-.682-.511-.682l-48.927.511,3.239-17.729s-6.307-3.069-7.671-12.1-4.091-61.712,3.58-71.6a40.5,40.5,0,0,1,15.6-11.664" transform="translate(306 6493)" fill="url(#linear-gradient-2)"/>
    <path id="路径_269" data-name="路径 269" d="M177.82,409.125a2.477,2.477,0,0,1-2.216.171c-1.194-.512-4.433-5.967-5.455-12.275s-1.194-48.756-1.194-48.756,1.535,43.131,5.115,49.609c0,0,4.261-5.626,10.91-5.8,0,0-8.635,3.4-8.865,8.694-.17,3.921,2.387-4.262,13.468-6.308,0,0-12.274,6.137-11.763,14.661" transform="translate(306 6493)" fill="#ad80ff"/>
    <path id="路径_270" data-name="路径 270" d="M262.373,567.666s1.65,12.133,1.758,16.042-1.628,8.578-1.085,9.555,30.619,1.629,32.031,1.086-.326-5.321-9.121-7.709-14.573-6.74-12.77-19.711Z" transform="translate(306 6493)" fill="url(#linear-gradient-13)"/>
    <path id="路径_271" data-name="路径 271" d="M286.654,586.85c0,.538-.875.988-3.3,1.2-8.686.76-19.218-4.344-19.218-4.344.109,3.909-1.628,8.578-1.085,9.555s20.837,4,43.211,1.746c1.371-.528.527-7.575-19.6-8.158" transform="translate(306 6493)" fill="#300b58"/>
    <path id="路径_272" data-name="路径 272" d="M172.4,433.558s-8.818,28.08,5.105,40.844,43.861,5.569,43.861,5.569,7.771-.4,18.15,3.646c10.076,3.932,12.476,4.947,12.476,4.947s2.024,29.459,5.464,51.577,4.915,27.524,4.915,27.524l10.813-.737,2.212-65.371s9.585,12.042,13.762,15.974,9.83,14.008,9.83,14.008l9.093-5.406s-27.033-65.616-29.982-71.76-5.406-14.5-36.863-11.8c0,0-12.042-4.177-14.5-10.813Z" transform="translate(306 6493)" fill="url(#linear-gradient-37)"/>
    <path id="路径_273" data-name="路径 273" d="M298.991,531.54s3.253,3.2,4.447,10.69,1.3,8.687,5.863,9.23,26.928,4.994,29.534,1.3-18.784-8.9-23.562-13.681-7.189-12.949-7.189-12.949Z" transform="translate(306 6493)" fill="url(#linear-gradient-13)"/>
    <path id="路径_274" data-name="路径 274" d="M344.779,556.419c1.53-2.167-11.154-8.515-17.947-11.335.834,1.08.68,2.3-4.175,2.358-8.8.108-19.219-5.212-19.219-5.212,1.194,7.492,1.039,10.443,5.6,10.986s33.136,6.9,35.742,3.2" transform="translate(306 6493)" fill="#300b58"/>
    <path id="路径_275" data-name="路径 275" d="M219.08,441.922A92.7,92.7,0,0,1,205.85,447c7.619-1.475,35.389-4.424,35.389-4.424a40.953,40.953,0,0,1-9.673-5.085c-.09-.067-.178-.136-.267-.205q-.334-.256-.657-.524l-.266-.224q-.191-.164-.377-.332c-.089-.081-.176-.163-.263-.246q-.288-.27-.56-.551c-.082-.085-.164-.171-.244-.257-.107-.116-.214-.233-.316-.351s-.2-.241-.3-.363c-.13-.162-.255-.327-.375-.493a9.25,9.25,0,0,1-1.2-2.182L172.4,433.559a70.2,70.2,0,0,0-2.362,11.969c2-3.07,5.59-5.5,11.953-5.359,11.45.249,26.959-1.2,36.446-1.047a1.479,1.479,0,0,1,.64,2.8" transform="translate(306 6493)" fill="#18072b"/>
    <path id="路径_276" data-name="路径 276" d="M219.757,417.308l-10.058-.852-31.879-7.331-3.239,17.73,48.926-.512s.237.875.472,1.682l.224-.114c-.052-.256-.112-.548-.184-.886a24.7,24.7,0,0,1-.006-5.461Z" transform="translate(306 6493)" fill="#ad80ff"/>
    <path id="路径_277" data-name="路径 277" d="M212.6,407.591s-16.707-15.172-18.582-21.139-4.262-48.585-7.33-51.313c0,0,1.875,42.107,1.534,51.313s2.216,8.524,2.216,8.524L219.3,414.031" transform="translate(306 6493)" fill="#ad80ff"/>
    <path id="路径_278" data-name="路径 278" d="M189.583,394.464s.3.189.826.517l.026-.006Z" transform="translate(306 6493)" fill="#d9d9d9"/>
    <path id="路径_279" data-name="路径 279" d="M238.51,412.023c-7.33.511-8.29,2.484-14.768,2.314-5.828-.153-28.619-16.418-33.332-19.356-.543.117-10.269,2.379-12.589,14.144,0,0,23.014,13.3,52.165,13.467,19.787.116,22.673,0,22.673,0s-6.819-11.08-14.149-10.569" transform="translate(306 6493)" fill="url(#linear-gradient-13)"/>
    <path id="路径_280" data-name="路径 280" d="M241.919,404.011s26.867,18.6,37.132,18.906,25.281,0,25.281,0-8.887-8.886-16.088-9.039-6.588,1.838-10.418.459S253.5,391.376,253.5,391.376l-10.608-.021-3.371,9.5Z" transform="translate(306 6493)" fill="url(#linear-gradient-13)"/>
    <path id="路径_281" data-name="路径 281" d="M238.8,356.741a9.215,9.215,0,0,0,.218-1.487s-.084.548-.218,1.487" transform="translate(306 6493)" fill="#8f8f8f"/>
    <path id="路径_282" data-name="路径 282" d="M241.919,404.011s-2.046-1.7,1.534-7.33a11.941,11.941,0,0,1,10.048-5.3c0-1.532-2.042-3.915-2.042-3.915s-.665-3.339-1.72-8.444c1.03,8.154-2.877,8.856-6.8,10.163a4.361,4.361,0,0,1-5.626-2.216c-1.742-6.243.718-24.836,1.487-30.222-.606,2.761-2.414,5.615-4.726,9.083-2.727,4.091-4.773,17.218-4.773,17.218s9.546,20.457,10.569,21.479,2.046-.511,2.046-.511" transform="translate(306 6493)" fill="#ad80ff"/>
    <path id="路径_283" data-name="路径 283" d="M219.329,245.823a57.7,57.7,0,0,0,7.754,9.489c4.082,3.775,4.49,8.877,4.49,11.734s-.1,27.549-13.366,27.753-19.08-13.979-19.387-15.713c0,0-7.346-2.449-6.122-7.041s7.245-1.02,7.245-1.02,19.386-6.632,19.386-25.2" transform="translate(306 6493)" fill="url(#linear-gradient-13)"/>
    <path id="路径_284" data-name="路径 284" d="M222.579,278.767a.693.693,0,0,1-.544-1.123c1.3-1.656.977-7.166.74-9.15a.693.693,0,0,1,1.377-.164c.094.788.864,7.771-1.028,10.173a.694.694,0,0,1-.545.264" transform="translate(306 6493)"/>
    <path id="路径_285" data-name="路径 285" d="M214.918,269.637c0,1.391-.719,2.518-1.607,2.518s-1.606-1.127-1.606-2.518.719-2.518,1.606-2.518,1.607,1.127,1.607,2.518" transform="translate(306 6493)"/>
    <path id="路径_286" data-name="路径 286" d="M229.13,270.184c0,1.089-.564,1.972-1.258,1.972s-1.259-.883-1.259-1.972.563-1.972,1.259-1.972,1.258.883,1.258,1.972" transform="translate(306 6493)"/>
    <path id="路径_287" data-name="路径 287" d="M214.958,265.023a.69.69,0,0,1-.189-.027,10.636,10.636,0,0,0-4.365-.192.693.693,0,1,1-.28-1.357,11.834,11.834,0,0,1,5.025.216.693.693,0,0,1-.191,1.36" transform="translate(306 6493)"/>
    <path id="路径_288" data-name="路径 288" d="M232.444,266.52a.678.678,0,0,1-.289-.064,7.911,7.911,0,0,0-4.71-.434.693.693,0,0,1-.344-1.343,9.244,9.244,0,0,1,5.633.518.693.693,0,0,1-.29,1.323" transform="translate(306 6493)"/>
    <path id="路径_289" data-name="路径 289" d="M218.437,286.391c-3.526,0-6.524-3.359-6.652-3.505a.694.694,0,0,1,1.041-.917c.028.032,2.841,3.153,5.779,3.032,2.9-.118,3.858-1.307,3.9-1.357a.7.7,0,0,1,.967-.132.688.688,0,0,1,.148.957c-.053.072-1.328,1.769-4.955,1.917-.075,0-.151.005-.225.005" transform="translate(306 6493)"/>
    <path id="路径_290" data-name="路径 290" d="M203.769,372.527s10.389-5.315,14.013-5.8,7.732,2.658,7.732,2.658-8.215-1.691-21.745,3.141" transform="translate(306 6493)" fill="#ad80ff"/>
    <path id="路径_291" data-name="路径 291" d="M221.368,479.972s7.771-.4,18.15,3.646c2.815,1.1,5.013,1.962,6.745,2.647,3.728-1.041,7.913-1.852,10.949-1.418,5.7.813,14.412,11.717,17.252,15.456-5.033-7.363-17.5-33.15-17.5-33.15Z" transform="translate(306 6493)" fill="url(#linear-gradient-70)"/>
    <path id="路径_292" data-name="路径 292" d="M274.464,500.3c.349.51.664.936.934,1.255,0,0-.342-.476-.934-1.255" transform="translate(306 6493)" fill="#333"/>
    <path id="路径_293" data-name="路径 293" d="M364.84,399.1H251.816a8.272,8.272,0,0,1-8.272-8.273v-64.5a8.27,8.27,0,0,1,8.272-8.271H364.84a8.271,8.271,0,0,1,8.272,8.271v64.5a8.273,8.273,0,0,1-8.272,8.273" transform="translate(306 6493)" fill="url(#linear-gradient-71)"/>
    <rect id="矩形_50" data-name="矩形 50" width="459.978" height="14.808" transform="translate(385.611 6915.399)" fill="#9487ff"/>
    <path id="路径_294" data-name="路径 294" d="M113.2,598.083h-8.59l-2.108-160.876h12.806Z" transform="translate(306 6493)" fill="url(#linear-gradient-72)"/>
    <path id="路径_295" data-name="路径 295" d="M514.585,598.083H506l-2.108-160.876h12.806Z" transform="translate(306 6493)" fill="url(#linear-gradient-72)"/>
    <path id="路径_296" data-name="路径 296" d="M324.223,422.4h-31.79l5.547-69.944h20.7Z" transform="translate(306 6493)" fill="url(#linear-gradient-74)"/>
    <path id="路径_297" data-name="路径 297" d="M314.644,392.13a6.317,6.317,0,1,1-6.316-6.316,6.316,6.316,0,0,1,6.316,6.316" transform="translate(306 6493)" fill="#291672"/>
    <g id="组_28" data-name="组 28">
      <path id="交叉_4" data-name="交叉 4" d="M103.439,414.708V163.149L144.044,93.17l58.312-1.854L677.948,414.708Z" transform="translate(196.56 6453.072)" fill="url(#linear-gradient-75)"/>
      <rect id="矩形_51" data-name="矩形 51" width="4.531" height="9.113" transform="translate(368.708 6493)" fill="#300b58"/>
      <path id="路径_298" data-name="路径 298" d="M53.028,58.455H44.921V47.89a1.834,1.834,0,0,1,1.834-1.834h4.438a1.834,1.834,0,0,1,1.835,1.834Z" transform="translate(321.999 6453.072)" fill="url(#linear-gradient-2)"/>
      <path id="路径_299" data-name="路径 299" d="M43.113,56.388A32.144,32.144,0,0,0,10.969,88.531v3.877H75.256V88.531A32.144,32.144,0,0,0,43.113,56.388" transform="translate(327.861 6452.072)" fill="url(#linear-gradient-4)"/>
      <path id="路径_300" data-name="路径 300" d="M76.948,102.957H8a1.178,1.178,0,0,1-1.178-1.178V98.425A1.178,1.178,0,0,1,8,97.247H76.948a1.178,1.178,0,0,1,1.178,1.178v3.354a1.178,1.178,0,0,1-1.178,1.178" transform="translate(328.502 6445.77)" fill="#300b58"/>
    </g>
  </g>
</svg>
