<svg id="data" xmlns="http://www.w3.org/2000/svg" width="66" height="66" viewBox="0 0 66 66">
  <rect id="矩形_56" data-name="矩形 56" width="66" height="66" fill="#fff" opacity="0"/>
  <path id="联合_20" data-name="联合 20" d="M0,31.7A25.959,25.959,0,0,1,25.929,5.766c.128,0,.252.008.379.015L28,5.818l.129,1.7V29.548H51.82l.018,1.709c.014.21.021.324.021.438A25.929,25.929,0,0,1,0,31.7ZM11.357,48.767A22.443,22.443,0,0,0,48.363,33.008H27.117ZM3.459,31.7A22.362,22.362,0,0,0,8.908,46.325L24.67,30.562V9.273A22.506,22.506,0,0,0,3.459,31.7Zm27.729-5.206V0l1.764.035A25.044,25.044,0,0,1,57.6,24.731l.03,1.759Zm3.459-3.459H54.037A21.583,21.583,0,0,0,34.648,3.6Z" transform="translate(4.187 4.187)" fill="#fff" stroke="rgba(0,0,0,0)" stroke-width="1"/>
</svg>
