<svg id="strategy" xmlns="http://www.w3.org/2000/svg" width="66" height="66" viewBox="0 0 66 66">
  <rect id="矩形_65" data-name="矩形 65" width="66" height="66" transform="translate(0 0)" fill="#fff" opacity="0"/>
  <path id="联合_18" data-name="联合 18" d="M24.214,49.975a4.895,4.895,0,0,1,3.166-4.566V42.323H9.581a5.464,5.464,0,0,1-5.458-5.459V8.817H1.729A1.729,1.729,0,0,1,0,7.087V1.73A1.73,1.73,0,0,1,1.729,0H56.488a1.73,1.73,0,0,1,1.73,1.73V7.087a1.729,1.729,0,0,1-1.73,1.73H54.1v1.935H50.638V8.817H7.582V36.864a2,2,0,0,0,2,2H48.638a2,2,0,0,0,2-2v-14.9H54.1v14.9a5.466,5.466,0,0,1-5.459,5.459H30.84v3.086a4.89,4.89,0,1,1-6.625,4.566Zm3.459,0a1.436,1.436,0,1,0,1.437-1.437A1.439,1.439,0,0,0,27.673,49.975ZM3.459,5.358h51.3v-1.9H3.459Zm7.886,24.516a4.9,4.9,0,0,1,4.9-4.894,4.851,4.851,0,0,1,2.26.578l5.257-5.74a4.844,4.844,0,0,1-.708-2.5,4.895,4.895,0,1,1,9.789,0,4.824,4.824,0,0,1-.078.765l6.079,4.026a4.8,4.8,0,0,1,5.122.2l6.975-4.982a4.807,4.807,0,0,1-.211-1.344,4.9,4.9,0,1,1,4.9,4.9A4.843,4.843,0,0,1,53,20.1l-7.058,5.043a4.9,4.9,0,1,1-9.335-.367l-5.576-3.695a4.679,4.679,0,0,1-4.552.88L20.81,28.159a4.889,4.889,0,1,1-9.464,1.715Zm3.459,0a1.437,1.437,0,1,0,1.437-1.436A1.439,1.439,0,0,0,14.8,29.874Zm24.978-3.512a1.436,1.436,0,1,0,1.437-1.437A1.439,1.439,0,0,0,39.782,26.362ZM26.508,17.318a1.436,1.436,0,1,0,1.438-1.437A1.44,1.44,0,0,0,26.508,17.318Zm27.678-1.333a1.436,1.436,0,1,0,1.437-1.436A1.44,1.44,0,0,0,54.186,15.985Z" transform="translate(2.741 6.535)" fill="#fff" stroke="rgba(0,0,0,0)" stroke-width="1"/>
</svg>
