<svg xmlns="http://www.w3.org/2000/svg" width="66" height="66.151" viewBox="0 0 66 66.151">
  <g id="video" transform="translate(0 0.076)">
    <rect id="矩形_64" data-name="矩形 64" width="66" height="66" fill="#fff" opacity="0"/>
    <path id="联合_19" data-name="联合 19" d="M20.5,56.492V54.843l-.668-6.9a21,21,0,1,1,18.657,0l-.668,6.913v1.641a8.66,8.66,0,0,1-17.32,0Zm8.658,5.2a5.207,5.207,0,0,0,5.2-5.2h-10.4A5.206,5.206,0,0,0,29.157,61.693ZM23.8,53.034H34.518l.357-3.675c-.472.134-.951.251-1.432.35-.1.021-.2.034-.3.051-.512.1-1.028.177-1.545.238-.191.022-.383.042-.576.058-.576.051-1.154.085-1.736.089-.041,0-.083.007-.127.007s-.087-.007-.129-.007c-.578,0-1.154-.038-1.729-.089-.2-.016-.388-.037-.582-.058-.512-.061-1.021-.137-1.526-.234-.106-.02-.215-.035-.321-.055q-.721-.149-1.427-.35ZM11.622,29.158A17.536,17.536,0,1,0,29.157,11.623,17.558,17.558,0,0,0,11.622,29.158ZM44.056,46.5,46.5,44.057l5,5L49.056,51.5ZM6.947,48.923l4.867-4.866L14.26,46.5,9.392,51.369Zm20.48-7.142V38.274A5.563,5.563,0,0,1,23.584,33h3.459a2.116,2.116,0,1,0,2.115-2.114,5.559,5.559,0,0,1-1.729-10.846V16.533h3.459v3.508a5.566,5.566,0,0,1,3.846,5.272H31.274a2.116,2.116,0,1,0-2.117,2.114,5.558,5.558,0,0,1,1.729,10.846v3.508ZM51.958,30.887v-3.46h7.328v3.46ZM0,30.887v-3.46H6.358v3.46ZM44.056,11.814l5.183-5.183,2.445,2.445L46.5,14.26ZM6.63,9.077,9.076,6.63l5.184,5.184L11.813,14.26Zm20.8-2.718V0h3.459V6.359Z" transform="translate(3.357 0.424)" fill="#fff" stroke="rgba(0,0,0,0)" stroke-width="1"/>
  </g>
</svg>
