<svg xmlns="http://www.w3.org/2000/svg" width="313" height="48" viewBox="0 0 313 48">
  <g id="logo" transform="translate(0 0.448)">
    <rect id="矩形_6" data-name="矩形 6" width="313" height="48" transform="translate(0 -0.448)" fill="#fff" opacity="0"/>
    <path id="路径_1" data-name="路径 1" d="M52.533,17.293a10.1,10.1,0,0,0,1.911-5.941,10.215,10.215,0,0,0-10.2-10.2H30.061V35.792H46.614a10.193,10.193,0,0,0,5.919-18.5M46.614,29.624H36.231V21.557H46.614a4.034,4.034,0,0,1,0,8.068M44.241,15.386H36.231V7.318h8.009a4.034,4.034,0,1,1,0,8.068" transform="translate(37.438 1.43)" fill="#fff"/>
    <rect id="矩形_5" data-name="矩形 5" width="6.17" height="25.05" transform="translate(98.926 12.26)" fill="#fff"/>
    <path id="路径_2" data-name="路径 2" d="M47.544,8.854a3.81,3.81,0,1,0-3.81-3.81,3.814,3.814,0,0,0,3.81,3.81" transform="translate(54.467 1.536)" fill="#fff"/>
    <path id="路径_3" data-name="路径 3" d="M81.367,5.574V7.429a12.541,12.541,0,1,0,0,21.116v1.812H87.6V5.574Zm-.121,12.413a6.634,6.634,0,1,1-6.635-6.635,6.642,6.642,0,0,1,6.635,6.635" transform="translate(77.303 6.783)" fill="#fff"/>
    <path id="路径_4" data-name="路径 4" d="M121.532,1.148H96.853v6.17h9.256V35.88h6.168V7.318h9.256Z" transform="translate(120.622 1.43)" fill="#fff"/>
    <path id="路径_5" data-name="路径 5" d="M64.09,5.461a9.067,9.067,0,0,0-8.211,5.557V5.461h-6.17v25.05h6.17v-12.9A6.114,6.114,0,0,1,61.923,11.2c3.532,0,5.944,2.874,5.944,6.408v12.9h6.17V18.148c0-8.658-3.961-12.687-9.947-12.687" transform="translate(61.907 6.801)" fill="#fff"/>
    <path id="路径_6" data-name="路径 6" d="M152.356,14.084a11.139,11.139,0,0,0-3.027-4.931,12.507,12.507,0,0,0-21.365,8.831,12.765,12.765,0,0,0,.222,2.346c.022.121.049.243.074.362a11.689,11.689,0,0,0,2.867,5.6,12.529,12.529,0,0,0,9.343,4.194,12.374,12.374,0,0,0,5.73-1.39,10.539,10.539,0,0,0,3.036-2.2c.083-.081.166-.166.249-.254a12.545,12.545,0,0,0,2.349-3.435l.155-.337h-6.514l-.07.09a5.786,5.786,0,0,1-4.837,2.068c-5.663,0-6.721-4.284-6.9-5.4h19.2l.025-.209a12.693,12.693,0,0,0,.085-1.437,12.48,12.48,0,0,0-.624-3.9m-18.334.777c.3-1,1.659-4.237,6.5-4.237s6.069,3.251,6.328,4.237Z" transform="translate(159.368 6.819)" fill="#fff"/>
    <path id="路径_7" data-name="路径 7" d="M140.447,14.084a11.139,11.139,0,0,0-3.027-4.931,12.507,12.507,0,0,0-21.365,8.831,12.765,12.765,0,0,0,.222,2.346c.022.121.049.243.074.362a11.688,11.688,0,0,0,2.867,5.6,12.529,12.529,0,0,0,9.343,4.194,12.374,12.374,0,0,0,5.73-1.39,10.54,10.54,0,0,0,3.036-2.2c.083-.081.166-.166.249-.254a12.545,12.545,0,0,0,2.349-3.435l.155-.337h-6.514l-.07.09a5.786,5.786,0,0,1-4.837,2.068c-5.663,0-6.72-4.284-6.9-5.4h19.2l.025-.209a12.7,12.7,0,0,0,.085-1.437,12.481,12.481,0,0,0-.624-3.9m-18.334.777c.3-1,1.659-4.237,6.5-4.237s6.069,3.251,6.328,4.237Z" transform="translate(144.536 6.819)" fill="#fff"/>
    <path id="路径_8" data-name="路径 8" d="M87.5,5.452a5.754,5.754,0,0,0-5.239,4.019V5.452H76.1V30.52h6.168V15.655A4.04,4.04,0,0,1,86.3,11.622h8.539V5.452Z" transform="translate(94.772 6.79)" fill="#fff"/>
    <path id="路径_9" data-name="路径 9" d="M119.169,5.452a5.754,5.754,0,0,0-5.239,4.019V5.452h-6.168V30.52h6.168V15.655a4.04,4.04,0,0,1,4.035-4.033H126.5V5.452Z" transform="translate(134.208 6.79)" fill="#fff"/>
    <path id="路径_10" data-name="路径 10" d="M110.5,5.452h-6.415L97.474,21.821,91.438,5.452H85.023l8.952,24.524-1.913,4.74H87.756v5.928h5.09a4.671,4.671,0,0,0,4.289-2.818Z" transform="translate(105.889 6.79)" fill="#fff"/>
    <path id="路径_11" data-name="路径 11" d="M22.732,7.078a3.844,3.844,0,0,1-3.844,3.844,3.8,3.8,0,0,1-1.111-.184l9.543,9.543a3.789,3.789,0,0,1-.193-1.143A3.844,3.844,0,0,1,30.97,15.3a3.8,3.8,0,0,1,1.053.164L22.556,5.993a3.768,3.768,0,0,1,.175,1.085" transform="translate(22.138 7.464)" fill="#953dff"/>
    <path id="路径_12" data-name="路径 12" d="M36.549,40.858a3.772,3.772,0,0,1,4.473-3.779l-9.693-9.693A3.843,3.843,0,1,1,27.562,24.3a4.046,4.046,0,0,1,.759.076l-9.644-9.642,8.885-8.885,9.806,9.8a3.8,3.8,0,0,1-.184-1.111A3.846,3.846,0,0,1,41.028,10.7a3.768,3.768,0,0,1,1.085.175L31.24,0A3.811,3.811,0,0,1,31.4,1.055a3.843,3.843,0,0,1-7.686,0A3.8,3.8,0,0,1,23.882,0L13.023,10.861a3.833,3.833,0,1,1-2.791,3.68,3.8,3.8,0,0,1,.164-1.053L0,23.884a3.878,3.878,0,0,1,1.051-.164A3.844,3.844,0,0,1,4.9,27.565,3.791,3.791,0,0,1,4.7,28.71L13.915,19.5,22.8,28.382l-9.155,9.155A3.731,3.731,0,0,1,14.7,37.37a3.8,3.8,0,0,1,3.651,4.985l9.211-9.211,9.384,9.384a3.8,3.8,0,0,1-.4-1.671" transform="translate(0 0)" fill="#953dff"/>
  </g>
</svg>
