<svg xmlns="http://www.w3.org/2000/svg" width="188" height="30" viewBox="0 0 188 30">
  <g id="logoBlack" transform="translate(0.129 0.49)">
    <rect id="矩形_6" data-name="矩形 6" width="188" height="30" transform="translate(-0.129 -0.49)" fill="#16121d" opacity="0"/>
    <path id="路径_1" data-name="路径 1" d="M43.578,10.859a6.076,6.076,0,0,0,1.149-3.574A6.144,6.144,0,0,0,38.59,1.148H30.061V21.987h9.957a6.131,6.131,0,0,0,3.56-11.128m-3.56,7.418H33.773V13.424h6.245a2.426,2.426,0,0,1,0,4.853M38.59,9.712H33.773V4.86H38.59a2.426,2.426,0,1,1,0,4.853" transform="translate(10.531 0.146)" fill="#16121d"/>
    <rect id="矩形_5" data-name="矩形 5" width="3.712" height="15.068" transform="translate(59.495 7.118)" fill="#16121d"/>
    <path id="路径_2" data-name="路径 2" d="M46.026,5.817a2.292,2.292,0,1,0-2.292-2.292,2.294,2.294,0,0,0,2.292,2.292" transform="translate(15.325 0.176)" fill="#16121d"/>
    <path id="路径_3" data-name="路径 3" d="M73.677,5.523V6.639a7.543,7.543,0,1,0,0,12.7v1.09h3.748V5.523ZM73.6,12.989A3.99,3.99,0,1,1,69.613,9,4,4,0,0,1,73.6,12.989" transform="translate(21.754 1.653)" fill="#16121d"/>
    <path id="路径_4" data-name="路径 4" d="M111.7,1.148H96.853V4.86h5.567V22.04h3.71V4.86H111.7Z" transform="translate(33.951 0.146)" fill="#16121d"/>
    <path id="路径_5" data-name="路径 5" d="M58.359,5.461A5.454,5.454,0,0,0,53.42,8.8V5.461H49.708V20.529H53.42V12.768a3.678,3.678,0,0,1,3.636-3.855,3.63,3.63,0,0,1,3.575,3.855v7.761h3.712V13.092c0-5.208-2.383-7.631-5.983-7.631" transform="translate(17.42 1.659)" fill="#16121d"/>
    <path id="路径_6" data-name="路径 6" d="M142.636,10.653a6.7,6.7,0,0,0-1.821-2.966A7.523,7.523,0,0,0,127.964,13a7.679,7.679,0,0,0,.134,1.411c.014.073.03.146.045.217A7.031,7.031,0,0,0,129.867,18a7.536,7.536,0,0,0,5.62,2.523,7.443,7.443,0,0,0,3.447-.836,6.339,6.339,0,0,0,1.826-1.322c.05-.049.1-.1.15-.153a7.547,7.547,0,0,0,1.413-2.066l.093-.2H138.5l-.042.054a3.48,3.48,0,0,1-2.909,1.244,3.834,3.834,0,0,1-4.151-3.251h11.549l.015-.126a7.633,7.633,0,0,0,.051-.864,7.507,7.507,0,0,0-.376-2.346m-11.028.467a3.729,3.729,0,0,1,3.911-2.549c2.919,0,3.651,1.956,3.806,2.549Z" transform="translate(44.859 1.664)" fill="#16121d"/>
    <path id="路径_7" data-name="路径 7" d="M130.727,10.653a6.7,6.7,0,0,0-1.821-2.966A7.523,7.523,0,0,0,116.055,13a7.679,7.679,0,0,0,.134,1.411c.014.073.03.146.045.217A7.031,7.031,0,0,0,117.958,18a7.536,7.536,0,0,0,5.62,2.523,7.443,7.443,0,0,0,3.447-.836,6.339,6.339,0,0,0,1.826-1.322c.05-.049.1-.1.15-.153a7.545,7.545,0,0,0,1.413-2.066l.093-.2h-3.918l-.042.054a3.48,3.48,0,0,1-2.909,1.244,3.834,3.834,0,0,1-4.15-3.251h11.549l.015-.126A7.64,7.64,0,0,0,131.1,13a7.508,7.508,0,0,0-.375-2.346m-11.028.467a3.729,3.729,0,0,1,3.911-2.549c2.919,0,3.651,1.956,3.806,2.549Z" transform="translate(40.684 1.664)" fill="#16121d"/>
    <path id="路径_8" data-name="路径 8" d="M82.958,5.452A3.461,3.461,0,0,0,79.807,7.87V5.452H76.1V20.531h3.71V11.589a2.43,2.43,0,0,1,2.427-2.426h5.136V5.452Z" transform="translate(26.673 1.656)" fill="#16121d"/>
    <path id="路径_9" data-name="路径 9" d="M114.623,5.452a3.461,3.461,0,0,0-3.151,2.418V5.452h-3.71V20.531h3.71V11.589A2.43,2.43,0,0,1,113.9,9.164h5.136V5.452Z" transform="translate(37.776 1.656)" fill="#16121d"/>
    <path id="路径_10" data-name="路径 10" d="M100.347,5.452H96.489L92.512,15.3,88.882,5.452H85.023L90.408,20.2l-1.151,2.851H86.667v3.566h3.062a2.81,2.81,0,0,0,2.58-1.7Z" transform="translate(29.803 1.656)" fill="#16121d"/>
    <path id="路径_11" data-name="路径 11" d="M20.757,6.645a2.312,2.312,0,0,1-2.312,2.312,2.288,2.288,0,0,1-.669-.111l5.74,5.74A2.279,2.279,0,0,1,23.4,13.9a2.312,2.312,0,0,1,2.312-2.311,2.283,2.283,0,0,1,.633.1L20.652,5.993a2.266,2.266,0,0,1,.105.652" transform="translate(6.223 1.845)" fill="#953dff"/>
    <path id="路径_12" data-name="路径 12" d="M21.984,24.576a2.269,2.269,0,0,1,2.69-2.273l-5.831-5.831a2.311,2.311,0,1,1-2.265-1.856,2.434,2.434,0,0,1,.457.046l-5.8-5.8,5.344-5.344,5.9,5.9a2.288,2.288,0,0,1-.111-.669,2.313,2.313,0,0,1,2.312-2.312,2.266,2.266,0,0,1,.652.105L18.791,0a2.293,2.293,0,0,1,.1.635,2.312,2.312,0,0,1-4.623,0,2.283,2.283,0,0,1,.1-.633L7.834,6.533A2.306,2.306,0,1,1,6.155,8.747a2.283,2.283,0,0,1,.1-.633L0,14.367a2.333,2.333,0,0,1,.632-.1A2.312,2.312,0,0,1,2.944,16.58a2.28,2.28,0,0,1-.116.689L8.37,11.728l5.344,5.344L8.208,22.579a2.244,2.244,0,0,1,.635-.1,2.283,2.283,0,0,1,2.2,3l5.54-5.54,5.644,5.644a2.285,2.285,0,0,1-.239-1" transform="translate(-0.01 -0.256)" fill="#953dff"/>
  </g>
</svg>
