<svg xmlns="http://www.w3.org/2000/svg" width="92" height="72" viewBox="0 0 92 72">
  <g id="service_17" data-name="组 17" transform="translate(-1344.811 -1668)">
    <g id="矩形_41" data-name="矩形 41" transform="translate(1344.811 1668)" fill="#fff" stroke="#707070" stroke-width="1" opacity="0">
      <rect width="92" height="72" stroke="none"/>
      <rect x="0.5" y="0.5" width="91" height="71" fill="none"/>
    </g>
    <path id="路径_44" data-name="路径 44" d="M27.113,8.936a6.278,6.278,0,0,1-6.278,6.278,6.212,6.212,0,0,1-1.815-.3L34.6,30.5a6.187,6.187,0,0,1-.315-1.866,6.275,6.275,0,0,1,6.278-6.274,6.2,6.2,0,0,1,1.72.268L26.827,7.165a6.153,6.153,0,0,1,.286,1.771" transform="translate(1392.751 1685.359)" fill="#5519a0"/>
    <path id="路径_45" data-name="路径 45" d="M1.243,24.157a6.194,6.194,0,0,1,1.716-.268,6.276,6.276,0,0,1,6.278,6.278,6.187,6.187,0,0,1-.315,1.866L26.1,14.858a6.191,6.191,0,0,1-1.87.315A6.275,6.275,0,0,1,17.953,8.9a6.194,6.194,0,0,1,.268-1.716Z" transform="translate(1345.34 1685.397)" fill="#5519a0"/>
    <path id="路径_46" data-name="路径 46" d="M36.679,1.14a6.216,6.216,0,0,1,.381,2.094,6.274,6.274,0,1,1-12.548,0,6.178,6.178,0,0,1,.381-2.09L7.043,18.994a6.242,6.242,0,0,1,1.72-.268A6.276,6.276,0,0,1,15.041,25a6.187,6.187,0,0,1-.315,1.866L30.79,10.806,46.8,26.82A6.21,6.21,0,0,1,46.5,25a6.272,6.272,0,0,1,6.274-6.278,6.2,6.2,0,0,1,1.775.286Z" transform="translate(1360.809 1669.291)" fill="#751fe3"/>
    <path id="路径_47" data-name="路径 47" d="M44.723,50.4a6.16,6.16,0,0,1,7.3-6.171L36.091,28.287a6.376,6.376,0,1,1-4.441-4.441L15.538,7.734,13.983,9.289a6.24,6.24,0,0,1-4.092,4.089L7.76,15.512l14.51,14.51L7.32,44.972A6.093,6.093,0,0,1,9.043,44.7a6.2,6.2,0,0,1,5.962,8.141L30.048,37.8,45.372,53.124a6.2,6.2,0,0,1-.649-2.728" transform="translate(1361.547 1686.877)" fill="#751fe3"/>
  </g>
</svg>
