<svg xmlns="http://www.w3.org/2000/svg" xmlns:xlink="http://www.w3.org/1999/xlink" width="472" height="568" viewBox="0 0 472 568">
  <defs>
    <linearGradient id="linear-gradient" x1="0.5" x2="0.5" y2="1" gradientUnits="objectBoundingBox">
      <stop offset="0" stop-color="#953dff" stop-opacity="0.424"/>
      <stop offset="1" stop-color="#e7abff" stop-opacity="0"/>
    </linearGradient>
    <linearGradient id="linear-gradient-2" x1="0.5" x2="0.5" y2="1" gradientUnits="objectBoundingBox">
      <stop offset="0" stop-color="#7e14ff"/>
      <stop offset="1" stop-color="#c431ff"/>
    </linearGradient>
    <linearGradient id="linear-gradient-3" x1="0.5" x2="0.5" y2="1" gradientUnits="objectBoundingBox">
      <stop offset="0" stop-color="#953dff"/>
      <stop offset="1" stop-color="#e7abff"/>
    </linearGradient>
    <radialGradient id="radial-gradient" cx="0.304" cy="0.369" r="0.5" gradientUnits="objectBoundingBox">
      <stop offset="0" stop-color="#fff"/>
      <stop offset="1" stop-color="#ffa63e"/>
    </radialGradient>
    <radialGradient id="radial-gradient-4" cx="0.696" cy="0.369" xlink:href="#radial-gradient"/>
    <linearGradient id="linear-gradient-8" y1="1" y2="0" xlink:href="#linear-gradient-3"/>
    <linearGradient id="linear-gradient-12" x1="0.5" x2="0.5" y2="1" gradientUnits="objectBoundingBox">
      <stop offset="0" stop-color="#646161"/>
      <stop offset="1" stop-color="#626262"/>
    </linearGradient>
    <linearGradient id="linear-gradient-13" x1="0.5" x2="0.5" y2="1" gradientUnits="objectBoundingBox">
      <stop offset="0" stop-color="#bcbcbc"/>
      <stop offset="1" stop-color="#727272"/>
    </linearGradient>
    <linearGradient id="linear-gradient-14" x1="0.434" y1="0.215" x2="0.632" y2="0.763" gradientUnits="objectBoundingBox">
      <stop offset="0" stop-color="#b5b5b5"/>
      <stop offset="1"/>
    </linearGradient>
    <linearGradient id="linear-gradient-15" x1="0.5" x2="0.5" y2="1" gradientUnits="objectBoundingBox">
      <stop offset="0" stop-color="#fba63d"/>
      <stop offset="1" stop-color="#fddaae"/>
    </linearGradient>
  </defs>
  <g id="组_71" data-name="组 71" transform="translate(-300 -2964)">
    <rect id="矩形_77" data-name="矩形 77" width="472" height="568" rx="10" transform="translate(300 2964)" fill="#222026" opacity="0"/>
    <path id="联合_30" data-name="联合 30" d="M403.886,348.058c.83-1.243,1.653-2.506,2.449-3.754l.947.6c-.8,1.256-1.628,2.527-2.462,3.775Zm-41.481-.291c.983-1.112,1.965-2.253,2.918-3.392l.86.721c-.96,1.145-1.948,2.294-2.938,3.414Zm-256.785-2.9.861-.719c.954,1.142,1.932,2.283,2.91,3.393l-.842.742C107.566,347.161,106.581,346.012,105.621,344.862Zm211.991-.52c1.177-.889,2.361-1.815,3.517-2.749l.706.872c-1.167.943-2.36,1.876-3.547,2.772Zm127.1-.4c.688-1.329,1.368-2.677,2.024-4l1.006.5c-.658,1.335-1.343,2.689-2.034,4.025ZM148.7,341.265l.716-.863c1.141.948,2.313,1.89,3.485,2.8l-.688.887C151.032,343.171,149.851,342.22,148.7,341.265ZM23.886,339.685l1.009-.493c.649,1.328,1.322,2.671,2,3.991l-1,.512C25.214,342.369,24.538,341.02,23.886,339.685Zm36.838-1.327.969-.566c.75,1.284,1.522,2.572,2.3,3.831l-.955.588C62.255,340.945,61.478,339.65,60.723,338.359Zm307.43,2.548c.927-1.168,1.848-2.36,2.735-3.542l.9.674c-.894,1.19-1.821,2.39-2.754,3.566Zm-268.114-3.1.9-.673c.888,1.186,1.8,2.377,2.725,3.541l-.88.7C101.857,340.2,100.934,339,100.04,337.807ZM408.7,340.5c.769-1.269,1.535-2.567,2.281-3.861l.972.56c-.749,1.3-1.52,2.606-2.292,3.882Zm-177.208-.928.048-1.121c1.859.079,3.743.108,5.593.089l.011,1.122q-.57.005-1.143.006C234.505,339.665,232.989,339.632,231.491,339.568Zm93.064-.84c1.115-.964,2.236-1.964,3.332-2.975l.761.826c-1.1,1.019-2.235,2.028-3.36,3Zm-82.963-.336c1.481-.08,2.978-.192,4.449-.336l.108,1.116c-1.486.145-3,.259-4.5.34Zm-19.085.4.144-1.112c1.47.191,2.962.352,4.436.479l-.1,1.118C225.5,339.15,223.992,338.987,222.507,338.793Zm27.964-1.266c1.472-.208,2.954-.45,4.4-.721l.2,1.1c-1.465.273-2.963.517-4.451.728Zm-108.51-2.249.773-.814c1.082,1.026,2.189,2.043,3.292,3.022l-.745.84C144.17,337.338,143.053,336.313,141.962,335.278Zm71.66,1.961.241-1.1c1.441.317,2.914.609,4.378.865l-.193,1.106C216.568,337.855,215.079,337.56,213.622,337.239Zm45.619-1.344c1.451-.338,2.906-.709,4.324-1.1l.3,1.081c-1.434.4-2.9.776-4.371,1.116Zm189.446,0c.636-1.352,1.264-2.725,1.87-4.082l1.024.458c-.608,1.363-1.24,2.743-1.879,4.1Zm-243.781-.983.337-1.071c1.412.444,2.854.863,4.285,1.246l-.289,1.084C207.791,335.786,206.333,335.362,204.906,334.913ZM20.1,331.556l1.025-.455c.6,1.359,1.223,2.727,1.845,4.064l-1.016.473C21.329,334.3,20.705,332.922,20.1,331.556ZM267.835,333.5c1.408-.461,2.824-.958,4.21-1.479l.395,1.05c-1.4.526-2.833,1.03-4.256,1.5Zm-211.469-2.99.993-.523c.685,1.3,1.4,2.623,2.123,3.927l-.981.545C57.773,333.147,57.056,331.818,56.366,330.508Zm317.165,3.242c.865-1.216,1.721-2.455,2.546-3.683l.931.626c-.83,1.236-1.693,2.483-2.563,3.707ZM94.84,330.468l.932-.624c.824,1.231,1.676,2.468,2.534,3.678l-.915.65C96.528,332.953,95.67,331.707,94.84,330.468Zm236.282,2.2c1.05-1.034,2.1-2.107,3.131-3.187l.813.773c-1.036,1.09-2.1,2.171-3.157,3.215Zm-134.715-.844.43-1.037c1.366.565,2.769,1.11,4.169,1.621l-.384,1.054C199.207,332.948,197.788,332.4,196.407,331.824Zm216.765.9c.712-1.3,1.42-2.635,2.107-3.96l1,.516c-.689,1.333-1.4,2.672-2.118,3.982Zm-277.539-3.858.824-.762c1.012,1.093,2.05,2.181,3.087,3.23l-.8.789C137.7,331.065,136.653,329.969,135.633,328.867Zm140.542,1.495c1.358-.58,2.722-1.2,4.055-1.837l.485,1.011c-1.348.647-2.727,1.272-4.1,1.858ZM188.219,328l.518-.995c1.308.681,2.656,1.347,4.009,1.979L192.271,330C190.9,329.365,189.541,328.693,188.219,328Zm264.128-.305c.583-1.375,1.16-2.772,1.714-4.151l1.041.418c-.556,1.386-1.135,2.79-1.72,4.172ZM284.2,326.512c1.306-.7,2.612-1.434,3.883-2.186l.571.966c-1.284.76-2.6,1.5-3.925,2.209ZM16.631,323.292l1.042-.415c.55,1.382,1.118,2.771,1.688,4.129l-1.035.435C17.753,326.075,17.182,324.68,16.631,323.292Zm320.648,2.9c.981-1.1,1.963-2.242,2.916-3.387l.862.717c-.962,1.156-1.952,2.3-2.94,3.416Zm41.247.127c.8-1.256,1.587-2.539,2.349-3.814l.963.576c-.767,1.283-1.563,2.575-2.364,3.84ZM90.038,322.869,91,322.3c.756,1.269,1.542,2.55,2.335,3.805l-.949.6C91.59,325.436,90.8,324.147,90.038,322.869Zm-37.676-.393L53.376,322c.627,1.33,1.282,2.681,1.947,4.015l-1,.5C53.651,325.173,52.992,323.815,52.362,322.476ZM180.4,323.482l.6-.946c1.249.8,2.534,1.578,3.818,2.32l-.561.973C182.96,325.077,181.661,324.288,180.4,323.482Zm-50.658-1.426.872-.707c.932,1.152,1.9,2.3,2.867,3.425l-.848.734C131.653,324.379,130.681,323.217,129.74,322.056Zm287.556,2.7c.657-1.343,1.307-2.706,1.929-4.052l1.018.471c-.625,1.353-1.278,2.724-1.939,4.073ZM291.87,321.974c1.239-.808,2.478-1.654,3.681-2.516l.653.913c-1.216.87-2.468,1.726-3.721,2.544ZM173.006,318.3l.683-.89c1.176.9,2.387,1.79,3.6,2.642l-.645.919C175.419,320.112,174.193,319.213,173.006,318.3ZM343,319.319c.9-1.161,1.81-2.363,2.69-3.572l.907.659c-.887,1.22-1.8,2.432-2.712,3.6Zm112.693.042c.531-1.4,1.054-2.82,1.553-4.217l1.056.378c-.5,1.4-1.026,2.828-1.559,4.237Zm-72.572-.733c.732-1.3,1.453-2.627,2.143-3.936l.993.524c-.694,1.318-1.42,2.651-2.157,3.962ZM13.467,314.868l1.057-.375c.493,1.394,1.01,2.81,1.534,4.207l-1.051.395C14.481,317.691,13.962,316.268,13.467,314.868Zm72.18.163.993-.523c.692,1.317,1.409,2.637,2.129,3.922l-.978.549C87.065,317.685,86.344,316.357,85.646,315.031Zm38.661-.153.916-.647c.855,1.211,1.742,2.423,2.635,3.6l-.894.677C126.064,317.321,125.17,316.1,124.308,314.878Zm-75.586-.6,1.035-.433c.57,1.364,1.164,2.741,1.765,4.1L50.5,318.4C49.891,317.036,49.294,315.65,48.722,314.279Zm250.4,2.505c1.163-.912,2.325-1.862,3.45-2.826l.73.853c-1.139.974-2.313,1.936-3.489,2.857Zm121.943-.169c.6-1.382,1.189-2.773,1.746-4.136l1.039.426c-.561,1.37-1.152,2.769-1.756,4.158ZM166.093,312.5l.757-.828c1.092,1,2.222,1.99,3.357,2.944l-.721.859C168.339,314.513,167.2,313.512,166.093,312.5Zm182.168-.415c.838-1.237,1.661-2.5,2.45-3.745l.949.6c-.8,1.258-1.626,2.529-2.469,3.775Zm-42.365-1.1c1.087-1.016,2.161-2.064,3.194-3.117l.8.786c-1.045,1.064-2.132,2.125-3.229,3.151Zm152.82-.086c.472-1.4.94-2.842,1.39-4.275l1.07.336c-.453,1.44-.922,2.886-1.4,4.3Zm-71.412-.2c.658-1.332,1.308-2.693,1.931-4.046l1.019.47c-.628,1.361-1.282,2.732-1.945,4.073ZM119.36,307.362l.957-.586c.77,1.258,1.575,2.525,2.392,3.767l-.937.617C120.948,309.908,120.137,308.63,119.36,307.362Zm-37.68-.387,1.019-.469c.616,1.339,1.261,2.694,1.917,4.027l-1.007.5C82.949,309.687,82.3,308.323,81.68,306.975Zm-71.053-.646L11.7,306c.439,1.412.9,2.846,1.371,4.263l-1.065.354C11.532,309.19,11.068,307.748,10.627,306.329Zm34.817-.416,1.053-.386c.511,1.4,1.045,2.8,1.586,4.185l-1.044.409C46.495,308.733,45.958,307.317,45.443,305.913Zm114.266.214.827-.76c1,1.089,2.039,2.173,3.089,3.221l-.793.795C161.771,308.323,160.72,307.227,159.71,306.127Zm264.753,2.178c.532-1.387,1.057-2.8,1.56-4.211l1.057.378c-.507,1.415-1.034,2.84-1.569,4.235Zm-192.98-1.9.071-1.12c1.471.093,2.968.14,4.447.14v1.122C234.5,306.543,232.978,306.5,231.482,306.4Zm8.454-1.09c1.475-.082,2.966-.214,4.432-.39l.134,1.115c-1.489.179-3,.313-4.5.4Zm-17.42-.057.213-1.1c1.451.281,2.929.519,4.394.705l-.143,1.113C225.494,305.781,223.992,305.54,222.517,305.254Zm89.63-.639c.987-1.1,1.968-2.235,2.914-3.382l.866.714c-.957,1.16-1.948,2.31-2.946,3.418Zm-63.38-.368c1.45-.27,2.912-.591,4.345-.954l.276,1.087c-1.456.371-2.942.7-4.417.971Zm104.268.27c.749-1.278,1.489-2.59,2.2-3.9l.986.535c-.715,1.321-1.461,2.643-2.216,3.932Zm-139.262-1.552.354-1.065c1.4.465,2.837.891,4.266,1.265l-.284,1.086C216.656,303.87,215.2,303.438,213.773,302.965ZM114.92,299.54l.993-.522c.69,1.314,1.409,2.631,2.137,3.914l-.975.554C116.34,302.192,115.615,300.864,114.92,299.54Zm142.467,2.519c1.4-.454,2.812-.962,4.186-1.508l.414,1.043c-1.4.556-2.829,1.071-4.255,1.532Zm133.669.5c.586-1.364,1.162-2.758,1.714-4.145l1.042.415c-.555,1.4-1.135,2.8-1.725,4.173Zm-312.91-3.832,1.044-.415c.541,1.368,1.114,2.753,1.7,4.121l-1.031.442C79.268,301.495,78.693,300.1,78.146,298.723Zm75.759.5.888-.685c.9,1.168,1.841,2.337,2.8,3.475l-.859.722C155.765,301.589,154.814,300.408,153.905,299.227Zm307.5,3.112c.424-1.445.833-2.895,1.219-4.309l1.083.295c-.388,1.422-.8,2.878-1.225,4.329ZM8.12,297.688,9.2,297.4c.386,1.434.793,2.885,1.206,4.312l-1.077.313C8.917,300.586,8.508,299.128,8.12,297.688Zm34.416-.294,1.07-.339c.453,1.428.923,2.858,1.4,4.252l-1.061.363C43.464,300.268,42.991,298.83,42.536,297.394Zm162.849,2.165.487-1.011c1.332.644,2.7,1.252,4.073,1.809l-.422,1.04C208.129,300.831,206.737,300.213,205.384,299.559Zm222.1.29c.468-1.406.929-2.845,1.37-4.279l1.073.331c-.444,1.441-.908,2.889-1.378,4.3Zm-161.839-1.07c1.333-.632,2.663-1.315,3.953-2.032l.545.98c-1.311.728-2.663,1.423-4.018,2.065Zm52.179-1.05c.891-1.182,1.77-2.4,2.612-3.624l.925.637c-.851,1.237-1.74,2.469-2.641,3.664ZM197.508,295.1l.614-.939c1.238.809,2.517,1.588,3.8,2.316l-.552.977C200.067,296.718,198.766,295.927,197.508,295.1ZM357.3,296.647c.663-1.326,1.315-2.684,1.936-4.038l1.021.468c-.628,1.366-1.285,2.736-1.953,4.072Zm-208.581-4.795.944-.605c.8,1.252,1.637,2.5,2.485,3.7l-.918.645C150.376,294.377,149.53,293.118,148.721,291.853Zm-37.715-.4,1.026-.455c.6,1.349,1.228,2.709,1.873,4.044l-1.01.488C112.245,294.181,111.609,292.808,111.006,291.448Zm162.411,3.015c1.242-.8,2.474-1.646,3.662-2.522l.666.9c-1.208.892-2.461,1.754-3.722,2.565Zm120.956-.244c.515-1.407,1.017-2.831,1.489-4.234l1.063.358c-.476,1.413-.98,2.846-1.5,4.262ZM75.048,290.268l1.064-.358c.474,1.411.973,2.831,1.482,4.22l-1.053.386C76.028,293.117,75.526,291.687,75.048,290.268ZM463.762,293.7c.363-1.439.717-2.9,1.053-4.353l1.093.253c-.337,1.456-.693,2.927-1.058,4.373ZM5.945,288.957l1.093-.25c.331,1.444.682,2.91,1.042,4.354l-1.089.273C6.629,291.882,6.278,290.409,5.945,288.957Zm34.068-.2,1.083-.291c.387,1.443.793,2.894,1.207,4.31l-1.077.314C40.81,291.665,40.4,290.206,40.013,288.755Zm150.258.927.729-.854c1.123.959,2.293,1.9,3.476,2.783l-.673.9C192.6,291.607,191.411,290.656,190.271,289.681Zm239.857,1.6c.4-1.425.8-2.877,1.173-4.318l1.086.282c-.376,1.449-.773,2.91-1.18,4.344ZM322.89,290.37c.79-1.262,1.56-2.554,2.288-3.839l.976.554c-.737,1.3-1.514,2.605-2.313,3.881Zm-42.314-1.182c1.128-.948,2.242-1.948,3.314-2.971l.775.811c-1.088,1.04-2.221,2.056-3.367,3.019Zm80.464-.682c.573-1.364,1.134-2.764,1.665-4.16l1.048.4c-.536,1.408-1.1,2.819-1.679,4.2ZM144.2,284.062l.993-.521c.687,1.313,1.412,2.625,2.152,3.9l-.97.563C145.626,286.715,144.893,285.388,144.2,284.062Zm-36.565-.956,1.053-.386c.511,1.393,1.051,2.8,1.606,4.17l-1.04.421C108.694,285.926,108.149,284.511,107.635,283.105Zm76.152.277.831-.754c.989,1.092,2.029,2.169,3.092,3.2l-.782.805C185.848,285.586,184.791,284.491,183.786,283.382Zm213.453,2.331c.435-1.415.857-2.858,1.257-4.292l1.081.3c-.4,1.443-.828,2.9-1.265,4.321ZM72.406,281.658l1.082-.3c.4,1.432.819,2.876,1.254,4.293l-1.073.329C73.232,284.554,72.807,283.1,72.406,281.658Zm393.377,3.317c.308-1.454.605-2.93.885-4.39l1.1.212c-.281,1.466-.581,2.95-.889,4.41ZM4.107,280.15l1.1-.209c.279,1.473.573,2.951.873,4.392l-1.1.229C4.681,283.114,4.386,281.63,4.107,280.15Zm33.772-.139,1.1-.242c.32,1.451.66,2.918,1.013,4.359l-1.09.267C38.543,282.944,38.2,281.469,37.879,280.011Zm249.129,3.03c1-1.092,1.984-2.226,2.909-3.37l.872.706c-.941,1.163-1.935,2.315-2.957,3.424Zm40.288-.446c.674-1.32,1.328-2.674,1.945-4.026l1.021.465c-.623,1.367-1.285,2.736-1.966,4.071Zm105.081.019c.342-1.451.672-2.921.98-4.368l1.1.233c-.309,1.456-.641,2.933-.985,4.392Zm-68.146-2.482c.486-1.414.952-2.849,1.386-4.264l1.073.329c-.438,1.427-.908,2.874-1.4,4.3Zm-223.854-4.22,1.036-.432c.571,1.37,1.178,2.74,1.8,4.07l-1.016.477C141.568,278.682,140.954,277.3,140.376,275.912Zm37.781.4.921-.641c.842,1.208,1.736,2.409,2.658,3.567l-.877.7C179.921,278.758,179.012,277.539,178.157,276.31Zm-73.341-1.765,1.077-.316c.415,1.418.86,2.853,1.326,4.268l-1.066.351C105.685,277.422,105.234,275.975,104.816,274.545Zm294.821,2.55c.357-1.434.7-2.9,1.025-4.355l1.1.244c-.325,1.466-.673,2.941-1.033,4.384ZM70.228,272.921l1.1-.243c.324,1.462.668,2.927,1.024,4.355l-1.089.271C70.9,275.866,70.554,274.392,70.228,272.921Zm222.378,3.2c.856-1.209,1.683-2.458,2.457-3.715l.955.589c-.786,1.277-1.626,2.547-2.5,3.775Zm174.864.059c.25-1.453.491-2.94.717-4.42l1.109.169c-.226,1.487-.469,2.982-.72,4.442Zm-464.864-4.9,1.111-.166c.218,1.462.455,2.95.7,4.422l-1.107.187C3.065,274.242,2.826,272.747,2.606,271.277Zm33.529-.1,1.105-.193c.256,1.465.531,2.946.818,4.4l-1.1.217C36.668,274.141,36.392,272.653,36.135,271.179Zm294.871,3.281c.557-1.378,1.09-2.785,1.585-4.184l1.057.375c-.5,1.414-1.039,2.837-1.6,4.23Zm103.232-.6c.274-1.449.539-2.932.784-4.407l1.107.184c-.247,1.484-.512,2.975-.789,4.433Zm-198.8-.439.016-1.122a36.628,36.628,0,0,0,4.411-.2l.118,1.115a37.862,37.862,0,0,1-3.986.21Q235.72,273.422,235.44,273.419Zm-9-1.232.287-1.085a35.968,35.968,0,0,0,4.33.864l-.152,1.113A37.111,37.111,0,0,1,226.437,272.186Zm-52.959-3.6.994-.519c.683,1.31,1.417,2.614,2.18,3.876l-.96.582C174.917,271.238,174.172,269.913,173.479,268.582Zm70.743,2.781a36.054,36.054,0,0,0,4.232-1.262l.386,1.055a37.279,37.279,0,0,1-4.363,1.3Zm122.633.209c.386-1.425.755-2.883,1.095-4.332l1.092.256c-.343,1.462-.715,2.932-1.1,4.369Zm-229.577-4.12,1.07-.34c.45,1.415.935,2.837,1.443,4.223l-1.053.386C138.223,270.319,137.731,268.882,137.277,267.452ZM218,268.8l.541-.983a36.155,36.155,0,0,0,3.992,1.893l-.418,1.041A36.929,36.929,0,0,1,218,268.8Zm-115.423-2.987,1.1-.243c.318,1.442.67,2.9,1.04,4.347l-1.087.28C103.249,268.744,102.9,267.269,102.574,265.815ZM252.5,268.332a36.21,36.21,0,0,0,3.8-2.25l.63.93a37.341,37.341,0,0,1-3.916,2.319Zm44.777.208c.694-1.309,1.354-2.655,1.961-4l1.022.462c-.616,1.368-1.287,2.736-1.992,4.066Zm104.3-.178c.282-1.454.549-2.936.793-4.4l1.106.184c-.245,1.477-.514,2.969-.8,4.432ZM68.518,264.078l1.107-.184c.243,1.462.508,2.943.79,4.4l-1.1.213C69.03,267.039,68.762,265.548,68.518,264.078Zm400.3,3.248c.2-1.469.38-2.964.548-4.444l1.114.127c-.169,1.487-.353,2.989-.55,4.465ZM1.445,262.355l1.115-.124c.167,1.5.347,3,.535,4.446l-1.112.145C1.793,265.364,1.613,263.861,1.445,262.355Zm33.34-.076,1.114-.143c.191,1.485.4,2.976.621,4.432l-1.109.168C35.19,265.273,34.979,263.773,34.786,262.279Zm175.844,1.2.763-.823a36.519,36.519,0,0,0,3.416,2.8l-.657.91A37.69,37.69,0,0,1,210.63,263.477Zm123.362,2.547c.433-1.419.839-2.864,1.208-4.3l1.087.279c-.373,1.448-.784,2.91-1.222,4.344Zm101.715-1c.21-1.458.407-2.952.587-4.437l1.114.135c-.181,1.495-.381,3-.591,4.462Zm-265.873-4.707,1.053-.386c.508,1.385,1.068,2.771,1.664,4.121l-1.027.454C170.917,263.138,170.348,261.73,169.833,260.321Zm89.959,3.065a36.615,36.615,0,0,0,3.147-3.1l.833.751a37.8,37.8,0,0,1-3.243,3.195Zm-124.864-4.645,1.095-.245c.324,1.452.683,2.91,1.067,4.333l-1.083.293C135.619,261.683,135.256,260.208,134.928,258.741ZM368.9,262.872c.289-1.445.561-2.924.806-4.4l1.106.184c-.246,1.485-.52,2.976-.812,4.433ZM100.916,256.96l1.109-.17c.225,1.471.478,2.953.75,4.406l-1.1.206C101.4,259.936,101.144,258.442,100.916,256.96Zm200.02,3.457c.518-1.383,1-2.8,1.428-4.223l1.074.326c-.436,1.442-.924,2.886-1.452,4.292Zm-96.175-3.879.938-.617a36.509,36.509,0,0,0,2.643,3.539l-.857.725A37.657,37.657,0,0,1,204.76,256.537Zm198.279,3c.2-1.473.392-2.967.557-4.439l1.116.125c-.167,1.483-.356,2.985-.562,4.468ZM67.281,255.159l1.116-.125c.166,1.486.353,2.979.555,4.439l-1.111.154C67.637,258.158,67.45,256.655,67.281,255.159Zm402.549,3.27c.14-1.488.268-2.989.378-4.462l1.119.084c-.111,1.48-.239,2.988-.379,4.483ZM.625,253.394l1.118-.082c.109,1.494.232,3,.367,4.463l-1.118.1C.858,256.4.734,254.895.625,253.394Zm33.208-.064,1.118-.094c.126,1.483.268,2.982.424,4.456l-1.115.118C34.1,256.329,33.959,254.821,33.834,253.33Zm302.384,4.054c.307-1.451.585-2.926.827-4.385l1.107.184c-.245,1.475-.526,2.967-.836,4.434Zm-70.531-.557A36.142,36.142,0,0,0,268,253.061l.991.527a37.457,37.457,0,0,1-2.38,3.884Zm171.1-.685c.144-1.466.276-2.966.39-4.458l1.118.085c-.115,1.5-.247,3.01-.393,4.484Zm-269.505-4.493,1.094-.248c.326,1.444.7,2.893,1.118,4.308l-1.076.317C167.992,254.588,167.61,253.116,167.278,251.649Zm-33.929-1.792,1.112-.147c.2,1.475.427,2.958.685,4.41l-1.1.2C133.781,252.848,133.548,251.349,133.349,249.857Zm237.017,4.2c.194-1.465.367-2.959.514-4.439l1.116.111c-.148,1.493-.322,3-.518,4.477ZM200.74,248.389l1.06-.371a36.06,36.06,0,0,0,1.708,4.073l-1.006.5A37.321,37.321,0,0,1,200.74,248.389Zm-100.9-.377,1.118-.1c.128,1.483.283,2.979.458,4.445l-1.114.134C100.129,251.015,99.974,249.507,99.844,248.012Zm203.67,3.883c.335-1.437.628-2.906.871-4.365l1.107.184c-.247,1.483-.545,2.976-.885,4.436Zm100.522-1.249c.126-1.467.234-2.968.323-4.461l1.12.066c-.089,1.5-.2,3.014-.325,4.491ZM66.517,246.187l1.12-.066c.087,1.485.2,2.987.321,4.462l-1.118.1C66.714,249.193,66.6,247.682,66.517,246.187ZM470.5,249.5c.083-1.48.154-2.985.21-4.472l1.121.042c-.056,1.5-.127,3.007-.211,4.494Zm-200.674-.458a36.111,36.111,0,0,0,1.326-4.216l1.089.271a37.234,37.234,0,0,1-1.367,4.347ZM.144,244.408l1.121-.039c.052,1.5.118,3,.2,4.474l-1.121.06C.263,247.425.2,245.913.144,244.408Zm33.132-.063L34.4,244.3c.06,1.5.137,3,.228,4.471l-1.12.07C33.414,247.362,33.336,245.849,33.276,244.345Zm304.405,4.237c.178-1.469.328-2.964.443-4.442l1.118.088c-.117,1.494-.267,3-.447,4.489Zm99.783-1.366c.081-1.486.147-2.991.2-4.471l1.12.036c-.048,1.488-.114,3-.2,4.5Zm-271.6-4.5,1.117-.1c.137,1.472.325,2.958.556,4.415l-1.108.176C166.19,245.725,166,244.216,165.861,242.719Zm-33.311-1.847,1.121-.052c.067,1.479.169,2.977.3,4.454l-1.118.1C132.72,243.881,132.617,242.366,132.549,240.872Zm238.7,4.289c.1-1.48.172-2.981.222-4.464l1.122.037c-.05,1.5-.126,3.01-.224,4.5ZM198.817,239.5l1.118-.1a36.235,36.235,0,0,0,.668,4.366l-1.1.237A37.389,37.389,0,0,1,198.817,239.5Zm-99.455-.491,1.122-.023c.031,1.483.086,2.985.167,4.467l-1.121.06C99.449,242.023,99.393,240.507,99.362,239.012Zm205.613,4.106c.148-1.468.25-2.962.305-4.44l1.121.042c-.055,1.5-.16,3.019-.31,4.511Zm99.591-1.4c.048-1.473.078-2.978.089-4.473l1.122.008c-.01,1.505-.041,3.02-.09,4.5ZM66.224,237.187l1.122-.007c.01,1.5.04,3,.087,4.471l-1.121.036C66.264,240.207,66.234,238.693,66.224,237.187Zm205.727,3.294a36.574,36.574,0,0,0,.266-4.41h1.122a37.913,37.913,0,0,1-.273,4.544Zm198.886.068c.028-1.492.042-3,.042-4.478H472c0,1.486-.014,3-.042,4.5ZM0,236.072v-.652H1.123v.65q0,1.918.03,3.829l-1.122.018Q0,238,0,236.072Zm33.11,0v-.717l1.122,0v.714q0,1.885.034,3.762l-1.122.021Q33.11,237.968,33.11,236.072Zm305.265,3.612c.04-1.193.062-2.408.062-3.612q0-.427,0-.853l1.122-.008c0,.287,0,.573,0,.861,0,1.216-.021,2.444-.063,3.65Zm99.381-1.414q.012-1.1.012-2.2,0-1.141-.013-2.28l1.122-.012q.012,1.144.012,2.291,0,1.105-.011,2.21Zm-272.2-2.2c0-.8.013-1.6.04-2.391l1.121.037c-.025.778-.039,1.57-.039,2.354q0,1.054.031,2.1l-1.122.033Q165.551,237.143,165.551,236.073Zm-33.11.287v-.284c0-1.411.028-2.832.084-4.225l1.121.045c-.056,1.379-.083,2.784-.083,4.176v.288Zm239.106-.13v-.157c0-1.436-.023-2.887-.066-4.313l1.121-.034c.045,1.437.068,2.9.068,4.348v.157Zm-172.869-1.278a37.785,37.785,0,0,1,.409-4.534l1.109.169a36.376,36.376,0,0,0-.4,4.4ZM99.339,234.5c.017-1.495.059-3.01.123-4.5l1.121.048c-.064,1.482-.105,2.985-.122,4.468Zm205.707-4.723,1.117-.1c.135,1.5.222,3.016.262,4.516l-1.122.028C305.264,232.75,305.178,231.255,305.046,229.782Zm-33.434-.342,1.1-.2a37.566,37.566,0,0,1,.553,4.52l-1.12.069A36.419,36.419,0,0,0,271.612,229.441ZM470.755,228.4l1.121-.036c.048,1.486.082,3,.1,4.492l-1.122.015C470.837,231.386,470.8,229.883,470.755,228.4Zm-66.274-.105,1.12-.051c.068,1.489.117,3,.146,4.5l-1.122.022C404.6,231.281,404.548,229.777,404.482,228.3ZM66.254,232.685c.03-1.506.08-3.02.147-4.5l1.121.052c-.067,1.472-.117,2.976-.146,4.471Zm-66.2-1.764c.033-1.505.08-3.018.139-4.5l1.121.045c-.059,1.473-.105,2.979-.138,4.477Zm33.121-.067c.038-1.488.093-3,.163-4.5l1.12.053c-.07,1.489-.124,2.994-.161,4.474Zm304.8-4.547,1.117-.105c.141,1.483.251,3,.328,4.5l-1.121.057C338.226,229.271,338.117,227.774,337.978,226.307Zm99.483-1.456,1.12-.061c.082,1.5.148,3.009.2,4.5l-1.121.037C437.609,227.844,437.543,226.339,437.461,224.851Zm-271.576,4.318c.145-1.495.34-3,.581-4.485l1.108.18c-.237,1.457-.429,2.942-.573,4.414ZM132.8,227.347c.124-1.494.283-3,.471-4.487l1.113.141c-.187,1.467-.343,2.96-.467,4.439Zm238.107-4.509,1.116-.109c.144,1.489.266,3,.361,4.492l-1.12.071C371.173,225.813,371.052,224.314,370.91,222.838Zm-170.866,3.127a37.315,37.315,0,0,1,1.5-4.3l1.035.433a36.079,36.079,0,0,0-1.452,4.174ZM99.733,225.5c.113-1.485.253-2.993.416-4.486l1.115.122c-.161,1.481-.3,2.978-.413,4.451Zm203.951-4.513,1.1-.244c.326,1.472.607,2.967.836,4.446l-1.109.171C304.281,223.909,304,222.437,303.683,220.99Zm-34.724.043,1.02-.465a37.219,37.219,0,0,1,1.634,4.25l-1.069.338A36.552,36.552,0,0,0,268.959,221.033ZM470.3,219.459l1.119-.077c.1,1.5.2,3.007.271,4.491l-1.121.057C470.495,222.452,470.4,220.948,470.3,219.459Zm-66.459-.084,1.117-.109c.145,1.476.274,2.986.381,4.486l-1.118.081C404.112,222.341,403.986,220.842,403.842,219.375ZM66.666,223.69c.108-1.494.236-3,.382-4.486l1.116.109c-.145,1.474-.273,2.975-.38,4.458ZM.417,221.931c.087-1.485.191-3,.308-4.489l1.118.088c-.116,1.487-.219,2.99-.306,4.467Zm33.182-.067c.1-1.5.226-3.009.36-4.486l1.118.1c-.134,1.469-.255,2.97-.358,4.462Zm303.153-4.4,1.1-.2c.27,1.471.511,2.969.716,4.454l-1.111.155C337.257,220.4,337.019,218.922,336.752,217.468Zm-169.417,2.778c.337-1.466.724-2.938,1.154-4.373l1.074.321c-.422,1.413-.8,2.861-1.135,4.3Zm269.44-4.319,1.117-.111c.146,1.474.279,2.982.395,4.484l-1.119.086C437.052,218.892,436.92,217.392,436.775,215.926ZM133.943,218.4c.253-1.474.543-2.964.861-4.429l1.1.238c-.315,1.449-.6,2.924-.852,4.381Zm235.814-4.422,1.107-.182c.241,1.469.462,2.97.655,4.458l-1.112.144C370.214,216.921,370,215.434,369.757,213.976Zm-166.2,3.6a37.407,37.407,0,0,1,2.5-3.81l.9.67a36.356,36.356,0,0,0-2.421,3.7Zm60.793-4.05.877-.7a37.809,37.809,0,0,1,2.614,3.727l-.957.588A36.537,36.537,0,0,0,264.348,213.523Zm-163.634,3.022c.212-1.485.451-2.982.711-4.45l1.1.2c-.257,1.456-.494,2.94-.705,4.413Zm200.486-4.1,1.055-.383c.51,1.409.982,2.855,1.4,4.3l-1.077.314C302.166,215.256,301.7,213.833,301.2,212.447Zm168.307-1.909,1.115-.12c.162,1.5.311,3.006.441,4.477l-1.117.1C469.817,213.531,469.669,212.032,469.507,210.539Zm-66.775-.04,1.109-.169c.225,1.481.433,2.982.618,4.46l-1.113.14C403.162,213.46,402.955,211.969,402.733,210.5ZM67.548,214.729c.185-1.48.393-2.98.619-4.46l1.109.169c-.224,1.471-.431,2.961-.615,4.431Zm267.213-5.961,1.082-.3c.4,1.439.768,2.91,1.1,4.375l-1.093.251C335.521,211.648,335.153,210.192,334.761,208.769ZM1.117,212.96c.144-1.488.306-2.994.478-4.474l1.114.129c-.172,1.474-.331,2.972-.476,4.453Zm33.3-.06c.17-1.5.358-3,.558-4.466l1.112.152c-.2,1.452-.386,2.947-.556,4.441Zm135.5-1.318c.524-1.412,1.1-2.823,1.711-4.194l1.024.457c-.6,1.349-1.168,2.738-1.683,4.128ZM435.7,207.041l1.111-.16c.212,1.468.411,2.969.592,4.462l-1.113.135C436.1,209.993,435.907,208.5,435.7,207.041Zm-226.707,3.246a37.733,37.733,0,0,1,3.336-3.1l.712.867a36.727,36.727,0,0,0-3.237,3Zm49.073-2.947.684-.89a37.638,37.638,0,0,1,3.433,2.991l-.787.8A36.342,36.342,0,0,0,258.062,207.339Zm-122.2,2.243c.384-1.455.8-2.914,1.246-4.337l1.071.334c-.439,1.408-.853,2.851-1.233,4.289Zm232.163-4.373,1.093-.255c.339,1.457.657,2.94.948,4.406l-1.1.218C368.673,208.124,368.357,206.654,368.021,205.209Zm-70.378-.9,1-.515c.689,1.333,1.341,2.706,1.941,4.08l-1.028.449C298.963,206.969,298.32,205.618,297.642,204.306Zm-195.358,3.366c.308-1.456.645-2.933,1-4.393l1.089.268c-.356,1.448-.69,2.914-1,4.358Zm366.092-6.016,1.11-.163c.216,1.474.421,2.973.611,4.457l-1.113.143C468.8,204.615,468.591,203.122,468.376,201.656Zm-67.224.036,1.1-.227c.3,1.459.588,2.946.854,4.422l-1.1.2C401.739,204.62,401.452,203.142,401.153,201.692ZM68.905,205.826c.265-1.471.552-2.959.855-4.422l1.1.228c-.3,1.454-.587,2.932-.85,4.393Zm147.105-1.307a37.277,37.277,0,0,1,3.983-2.2l.482,1.014a36.384,36.384,0,0,0-3.863,2.134Zm34.461-1.667.449-1.029a37.216,37.216,0,0,1,4.055,2.075l-.571.966A36.1,36.1,0,0,0,250.471,202.852Zm81.543-2.574,1.05-.392c.525,1.4,1.023,2.839,1.483,4.262l-1.068.346C333.026,203.086,332.533,201.668,332.015,200.278ZM2.157,204.022c.2-1.483.419-2.981.647-4.452l1.109.172c-.227,1.464-.444,2.955-.644,4.431Zm33.476-.041c.235-1.482.489-2.975.755-4.437l1.1.2c-.263,1.454-.516,2.939-.75,4.413Zm137.977-.668c.7-1.331,1.451-2.656,2.234-3.937l.958.585c-.77,1.261-1.511,2.565-2.2,3.875Zm260.613-5.1,1.1-.21c.278,1.465.544,2.956.79,4.432l-1.107.184C434.764,201.151,434.5,199.669,434.224,198.212Zm-210.007,2.408a37.147,37.147,0,0,1,4.4-1.167l.221,1.1a35.858,35.858,0,0,0-4.267,1.132Zm17.8-.277.185-1.107a37.036,37.036,0,0,1,4.437,1.025l-.32,1.077A35.853,35.853,0,0,0,242.02,200.343Zm-103.477.612c.509-1.414,1.056-2.835,1.625-4.221l1.038.427c-.563,1.371-1.1,2.776-1.608,4.174Zm227.163-4.379,1.074-.326c.435,1.436.853,2.894,1.238,4.333l-1.084.291C366.553,199.445,366.139,198,365.707,196.576Zm-72.64.108.923-.638c.857,1.24,1.681,2.518,2.45,3.8l-.963.578C294.721,199.161,293.91,197.9,293.067,196.683Zm-59.939,2.148a37.934,37.934,0,0,1,4.551-.072l-.051,1.121a36.868,36.868,0,0,0-4.415.07Zm-128.691.089c.405-1.437.841-2.889,1.294-4.316l1.07.34c-.45,1.415-.882,2.856-1.283,4.281Zm294.672-5.935,1.085-.286c.379,1.442.746,2.912,1.088,4.37l-1.093.256C399.849,195.878,399.485,194.417,399.108,192.985ZM70.734,197.008c.343-1.456.711-2.926,1.09-4.369l1.085.286c-.378,1.434-.742,2.894-1.083,4.341Zm396.173-4.186,1.1-.206c.274,1.472.537,2.964.781,4.431l-1.107.184C467.441,195.77,467.18,194.288,466.907,192.822Zm-288.58,2.769c.864-1.229,1.779-2.446,2.718-3.617l.875.7c-.925,1.152-1.825,2.35-2.676,3.56Zm150.217-3.51,1.013-.482c.641,1.347,1.262,2.728,1.845,4.107l-1.033.437C329.792,194.78,329.178,193.413,328.543,192.081Zm-291.3,3.045c.3-1.456.618-2.936.952-4.4l1.093.25c-.332,1.455-.65,2.927-.946,4.375Zm-33.7.005c.258-1.475.533-2.963.817-4.425l1.1.215c-.283,1.455-.557,2.936-.813,4.4Zm428.823-5.675,1.093-.258c.345,1.465.677,2.943.986,4.392l-1.1.233C433.034,192.382,432.7,190.912,432.359,189.456Zm-144.806.249.834-.751c1,1.116,1.985,2.279,2.915,3.456l-.88.7C289.507,191.948,288.541,190.8,287.553,189.7Zm-145.576,2.886c.628-1.358,1.3-2.723,1.988-4.06l1,.516c-.683,1.321-1.345,2.672-1.967,4.015Zm220.848-4.475,1.05-.4c.526,1.391,1.039,2.818,1.523,4.241l-1.062.362C363.855,190.911,363.347,189.5,362.825,188.116Zm-255.653,2.2c.5-1.419,1.036-2.843,1.583-4.233l1.044.41c-.541,1.378-1.07,2.791-1.57,4.2Zm76.816-1.779c1.012-1.108,2.075-2.2,3.156-3.239l.778.808c-1.064,1.025-2.109,2.1-3.105,3.189ZM396.6,184.4l1.068-.343c.461,1.433.905,2.881,1.32,4.3l-1.077.315C397.5,187.26,397.058,185.821,396.6,184.4ZM73.03,188.3c.417-1.425.862-2.874,1.321-4.3l1.069.343c-.457,1.422-.9,2.861-1.312,4.277ZM465.1,184.051l1.095-.247c.326,1.443.645,2.923.949,4.4l-1.1.227C465.744,186.96,465.426,185.487,465.1,184.051Zm-140.733.161.967-.569c.757,1.288,1.5,2.611,2.2,3.933l-.991.526C325.848,186.793,325.117,185.484,324.368,184.212ZM39.244,186.35c.367-1.458.753-2.922,1.148-4.353l1.082.3c-.392,1.423-.776,2.879-1.141,4.329ZM5.255,186.3c.312-1.454.644-2.931.986-4.39l1.093.257c-.341,1.451-.671,2.921-.982,4.368Zm275.938-2.817.732-.851c1.137.979,2.258,2.008,3.332,3.059l-.784.8C283.416,185.458,282.313,184.445,281.193,183.482Zm-135.063,1.083c.743-1.3,1.528-2.6,2.334-3.869l.947.6c-.8,1.258-1.573,2.545-2.308,3.826Zm283.978-3.771,1.079-.307c.409,1.438.806,2.9,1.181,4.344l-1.086.282C430.909,183.678,430.513,182.224,430.107,180.794Zm-70.707-.9,1.021-.466c.617,1.355,1.222,2.742,1.8,4.119l-1.035.432C360.612,182.609,360.013,181.234,359.4,179.891Zm-168.9,2.378c1.146-.97,2.337-1.916,3.542-2.811l.669.9c-1.185.88-2.357,1.81-3.485,2.765Zm-80.024-.36c.593-1.373,1.218-2.758,1.859-4.116l1.015.479c-.636,1.347-1.256,2.721-1.844,4.082Zm163.613-3.791.617-.937c1.251.824,2.494,1.7,3.7,2.609l-.676.9C276.544,179.793,275.32,178.929,274.09,178.118Zm45.432-1.387.914-.65c.867,1.219,1.719,2.473,2.532,3.728l-.941.611C321.222,179.177,320.379,177.936,319.522,176.73Zm74.114-.773,1.048-.4c.533,1.4,1.054,2.821,1.548,4.229l-1.059.372C394.683,178.759,394.166,177.346,393.636,175.957ZM75.793,179.712c.5-1.41,1.018-2.837,1.555-4.241l1.048.4c-.533,1.4-1.052,2.813-1.545,4.213Zm387.167-4.357,1.084-.29c.381,1.43.757,2.9,1.117,4.359l-1.089.268C463.714,178.237,463.34,176.778,462.96,175.355ZM41.635,177.672c.428-1.428.881-2.88,1.346-4.313l1.067.346c-.462,1.426-.912,2.869-1.338,4.289Zm156.119-.792c1.256-.814,2.558-1.6,3.87-2.334l.548.979c-1.291.724-2.572,1.5-3.808,2.3Zm-190.443.659c.372-1.46.76-2.923,1.153-4.349l1.082.3c-.391,1.419-.777,2.875-1.148,4.328Zm143.651-.6c.857-1.231,1.752-2.46,2.66-3.649l.892.681c-.9,1.177-1.784,2.391-2.632,3.609Zm276.507-4.695,1.065-.355c.473,1.42.935,2.862,1.374,4.286l-1.073.331C428.4,175.086,427.939,173.652,427.469,172.24Zm-72.032-.336.988-.531c.7,1.308,1.4,2.652,2.064,3.994l-1,.5C356.824,174.534,356.136,173.2,355.437,171.9Zm-89.081,1.8.492-1.008c1.355.662,2.7,1.374,4,2.116l-.556.974C269.015,175.059,267.69,174.359,266.356,173.706Zm-152.026.034c.682-1.329,1.4-2.669,2.127-3.982l.98.545c-.723,1.3-1.433,2.63-2.109,3.95Zm91.3-1.275c1.349-.646,2.74-1.257,4.134-1.817l.419,1.041c-1.372.551-2.741,1.153-4.068,1.789Zm108.409-2.771.855-.727c.967,1.137,1.925,2.314,2.847,3.5l-.885.69C315.947,171.984,315,170.819,314.042,169.695Zm-55.927.631.357-1.064c1.421.477,2.848,1.009,4.244,1.582l-.425,1.039C260.917,171.319,259.512,170.8,258.115,170.326ZM390.234,167.7l1.025-.456c.6,1.361,1.2,2.749,1.766,4.127l-1.038.427C391.423,170.431,390.833,169.051,390.234,167.7ZM79.016,171.275c.571-1.384,1.169-2.779,1.778-4.15l1.026.455c-.606,1.362-1.2,2.749-1.767,4.122Zm381.472-4.526,1.072-.331c.433,1.4.865,2.855,1.284,4.312l-1.078.311C461.349,169.592,460.919,168.147,460.488,166.749Zm-304.051,3.008c.957-1.147,1.955-2.292,2.965-3.4l.83.755c-1,1.1-1.987,2.23-2.934,3.366Zm57.579-.658c1.429-.469,2.889-.9,4.339-1.27l.28,1.087c-1.427.367-2.863.788-4.27,1.25Zm-169.592-.022c.5-1.416,1.012-2.845,1.538-4.246l1.051.394c-.523,1.393-1.038,2.815-1.529,4.223ZM9.7,168.864c.427-1.439.87-2.886,1.32-4.3l1.069.34c-.447,1.409-.889,2.849-1.314,4.281Zm239.817-.823.218-1.1c1.476.292,2.958.635,4.406,1.02l-.288,1.085C252.43,168.666,250.971,168.328,249.519,168.041Zm101.435-3.85.951-.6c.8,1.272,1.578,2.568,2.324,3.852l-.97.563C352.52,166.738,351.745,165.453,350.954,164.192Zm73.5-.379,1.047-.4c.532,1.385,1.058,2.805,1.564,4.22l-1.056.378C425.5,166.6,424.98,165.19,424.452,163.813Zm-201.683,3.029c1.474-.28,2.977-.516,4.467-.7l.138,1.113c-1.465.181-2.945.414-4.395.69Zm17.932.039.074-1.12c1.5.1,3.014.25,4.5.446l-.147,1.112C243.666,167.126,242.177,166.979,240.7,166.88Zm-8.964-1.152c1.407-.085,2.841-.127,4.263-.128h.26l-.008,1.122H236c-1.4,0-2.811.042-4.2.125Zm-113.025.121c.769-1.283,1.572-2.572,2.384-3.831l.943.609c-.806,1.248-1.6,2.527-2.364,3.8Zm189.258-2.694.789-.8c1.067,1.054,2.123,2.144,3.14,3.239l-.822.763C310.073,165.277,309.027,164.2,307.972,163.156Zm-145.462-.071c1.054-1.063,2.147-2.116,3.247-3.132l.761.824c-1.088,1.005-2.169,2.047-3.212,3.1ZM386.4,159.647l1-.51c.675,1.328,1.342,2.683,1.983,4.029l-1.014.482C387.735,162.311,387.071,160.964,386.4,159.647ZM82.684,163.025c.648-1.358,1.319-2.719,2-4.047l1,.51c-.673,1.318-1.34,2.671-1.984,4.02Zm375-4.781,1.059-.372c.487,1.39.975,2.823,1.449,4.26l-1.065.352C458.655,161.053,458.17,159.627,457.685,158.244ZM47.593,160.622c.553-1.381,1.134-2.785,1.725-4.171l1.033.441c-.589,1.379-1.166,2.774-1.716,4.148Zm-35.165-.351c.486-1.437.989-2.871,1.491-4.264l1.055.381c-.5,1.385-1,2.813-1.483,4.242Zm333.543-3.484.909-.656c.874,1.211,1.74,2.453,2.574,3.691l-.93.627C347.7,159.221,346.838,157.988,345.972,156.787Zm-44.616.378.716-.864c1.153.956,2.3,1.951,3.41,2.956l-.752.832C303.632,159.094,302.5,158.111,301.356,157.165Zm119.712-1.621,1.028-.449c.6,1.37,1.183,2.76,1.745,4.131l-1.039.426C422.245,158.288,421.661,156.906,421.068,155.544ZM123.605,158.27c.852-1.229,1.736-2.461,2.63-3.664l.9.67c-.886,1.193-1.764,2.415-2.608,3.633Zm45.529-1.305c1.145-.969,2.324-1.924,3.5-2.839l.687.888c-1.168.9-2.335,1.85-3.466,2.808Zm213.01-5.163.972-.561c.742,1.284,1.48,2.6,2.195,3.92l-.986.534C383.615,154.388,382.881,153.077,382.144,151.8ZM86.785,154.986c.715-1.315,1.459-2.637,2.209-3.932l.97.562c-.745,1.287-1.483,2.6-2.194,3.907Zm207.46-3.219.638-.923c1.232.853,2.462,1.745,3.655,2.651l-.679.895C296.679,153.492,295.463,152.61,294.244,151.767Zm160.315-1.915,1.043-.412c.544,1.379,1.086,2.792,1.612,4.2l-1.051.392C455.641,152.631,455.1,151.224,454.56,149.852Zm-114.049-.129.864-.716c.951,1.15,1.9,2.333,2.812,3.517l-.888.686C342.391,152.036,341.453,150.863,340.51,149.723Zm-289.373,2.6c.616-1.358,1.258-2.733,1.909-4.089l1.012.487c-.648,1.348-1.286,2.715-1.9,4.066Zm125.123-.877c1.225-.867,2.482-1.716,3.734-2.523l.607.944c-1.239.8-2.482,1.637-3.694,2.5Zm-160.771.332c.532-1.392,1.088-2.805,1.652-4.2l1.041.421c-.562,1.389-1.115,2.8-1.644,4.18Zm113.494-.745c.938-1.18,1.9-2.351,2.864-3.482l.854.728c-.954,1.121-1.909,2.283-2.84,3.453Zm288.341-3.586,1.008-.493c.659,1.347,1.307,2.709,1.927,4.052l-1.019.47C418.625,150.139,417.98,148.783,417.325,147.444ZM286.687,147l.555-.974c1.3.744,2.607,1.524,3.874,2.324l-.6.95C289.265,148.514,287.976,147.741,286.687,147Zm90.788-2.813.94-.612c.816,1.254,1.624,2.533,2.4,3.8l-.957.586C379.088,146.707,378.286,145.438,377.475,144.191Zm-286.17,2.99c.778-1.265,1.59-2.547,2.413-3.808l.94.613c-.818,1.254-1.624,2.527-2.4,3.784Zm92.529-.618c1.293-.756,2.618-1.492,3.937-2.188l.524.993c-1.305.688-2.615,1.416-3.9,2.163ZM334.6,143.026l.816-.771c1.034,1.1,2.055,2.216,3.037,3.328l-.841.743C336.636,145.224,335.622,144.113,334.6,143.026Zm116.531-1.408,1.027-.452c.6,1.365,1.194,2.752,1.764,4.121l-1.036.432C452.315,144.356,451.725,142.976,451.127,141.618Zm-316.306,2.545c1.01-1.112,2.048-2.218,3.084-3.285l.805.782c-1.027,1.058-2.057,2.155-3.059,3.259Zm143.917-1.245.469-1.019c1.357.624,2.725,1.289,4.063,1.977l-.513,1C281.434,144.194,280.082,143.537,278.739,142.919ZM55.045,144.189c.687-1.351,1.39-2.7,2.09-4l.988.531c-.7,1.295-1.395,2.631-2.077,3.975Zm-36.171-.781c.584-1.366,1.193-2.756,1.812-4.131l1.023.46c-.615,1.369-1.222,2.753-1.8,4.112Zm394.35-3.892.985-.538c.711,1.3,1.42,2.637,2.106,3.964l-1,.516C414.637,142.138,413.932,140.813,413.224,139.516ZM191.8,142.363c1.345-.636,2.728-1.254,4.111-1.835l.434,1.035c-1.367.575-2.736,1.185-4.066,1.815Zm78.661-2.82.376-1.057c1.415.5,2.836,1.048,4.225,1.615l-.424,1.04C273.264,140.581,271.858,140.043,270.459,139.543Zm101.95-2.709.908-.661c.873,1.2,1.747,2.433,2.6,3.668l-.923.636C374.146,139.253,373.277,138.026,372.409,136.835Zm-276.177,2.8c.85-1.231,1.728-2.467,2.61-3.674l.906.662c-.876,1.2-1.749,2.426-2.594,3.649Zm103.861-.756c1.41-.521,2.845-1.015,4.265-1.471l.341,1.068c-1.4.45-2.822.939-4.217,1.456Zm128.161-2.145.763-.822c1.095,1.019,2.189,2.068,3.249,3.121l-.79.8C330.424,138.782,329.34,137.741,328.254,136.731Zm-187.158.964c1.07-1.032,2.177-2.067,3.291-3.075l.753.832c-1.105,1-2.2,2.027-3.265,3.051Zm120.826-.784.283-1.087c1.45.378,2.909.794,4.339,1.235l-.331,1.073C264.8,137.7,263.356,137.285,261.922,136.911Zm185.459-3.393,1.009-.491c.65,1.338,1.3,2.7,1.921,4.053l-1.018.471C448.672,136.206,448.029,134.849,447.382,133.518Zm-238.7,2.6c1.446-.394,2.919-.761,4.376-1.091l.248,1.095c-1.442.326-2.9.69-4.33,1.08Zm-149.372.121c.733-1.3,1.495-2.608,2.264-3.9l.964.574c-.765,1.284-1.522,2.588-2.251,3.878Zm193.887-1.2.187-1.107c1.481.251,2.972.536,4.431.85l-.235,1.1C256.138,135.57,254.663,135.287,253.2,135.04Zm-230.622.141c.639-1.35,1.3-2.715,1.968-4.058l1,.5c-.665,1.336-1.323,2.7-1.96,4.038Zm386.2-3.409.96-.58c.769,1.27,1.535,2.572,2.281,3.868l-.973.56C410.3,134.332,409.538,133.037,408.774,131.773ZM217.48,134.132c1.475-.266,2.974-.5,4.455-.7l.152,1.112c-1.465.2-2.947.434-4.408.7Zm26.867-.195.09-1.119c1.49.12,3,.275,4.488.46l-.139,1.114C247.314,134.208,245.82,134.056,244.346,133.937Zm-17.93-1.02c1.488-.137,3-.242,4.5-.315l.055,1.121c-1.482.071-2.979.176-4.452.312Zm95.095-2.056.708-.87c1.163.947,2.323,1.923,3.447,2.9l-.736.846C323.814,132.769,322.663,131.8,321.511,130.862ZM236,133.6l-.569,0-.007-1.122.575,0c1.3,0,2.626.025,3.934.074l-.042,1.121C238.6,133.627,237.287,133.6,236,133.6Zm130.96-3.85.871-.708c.944,1.161,1.883,2.348,2.79,3.529l-.89.684C368.829,132.086,367.9,130.906,366.96,129.752Zm-265.411,2.6c.917-1.187,1.859-2.374,2.8-3.529l.87.709c-.935,1.147-1.871,2.327-2.781,3.506Zm46.228-.7c1.138-.964,2.311-1.923,3.485-2.852l.7.88c-1.164.922-2.326,1.873-3.455,2.829Zm295.552-6.092.989-.529c.7,1.32,1.4,2.658,2.075,3.979l-1,.51C444.725,128.207,444.03,126.876,443.329,125.562ZM63.924,128.5c.793-1.266,1.612-2.542,2.433-3.793l.938.617c-.818,1.244-1.632,2.512-2.421,3.772Zm250.471-3.051.65-.915c1.221.868,2.444,1.767,3.632,2.672L318,128.1C316.818,127.2,315.606,126.306,314.394,125.446Zm89.59-1.214.934-.623c.826,1.24,1.65,2.505,2.45,3.766l-.946.6C405.627,126.725,404.807,125.465,403.985,124.232ZM26.59,127.105c.687-1.32,1.4-2.658,2.121-3.979l.986.538c-.717,1.313-1.427,2.646-2.112,3.959Zm128.246-1.038c1.2-.89,2.436-1.77,3.662-2.616l.637.924c-1.216.84-2.438,1.712-3.632,2.595Zm206.306-3.1.832-.753c1,1.1,2,2.241,2.973,3.377l-.851.731C363.127,125.191,362.133,124.062,361.142,122.964Zm-253.9,2.406c.98-1.14,1.984-2.276,2.982-3.375l.83.754c-.991,1.093-1.988,2.221-2.962,3.354Zm199.695-4.863.589-.956c1.271.783,2.551,1.6,3.8,2.428l-.619.936C309.465,122.094,308.2,121.284,306.935,120.508Zm-144.691.45c1.254-.806,2.541-1.6,3.823-2.368l.575.963c-1.272.759-2.548,1.55-3.792,2.35Zm276.729-3.193.968-.565c.75,1.285,1.5,2.6,2.226,3.9l-.979.547C440.464,120.349,439.72,119.044,438.973,117.764Zm-370.1,3.2c.842-1.222,1.717-2.46,2.6-3.681l.909.658c-.877,1.214-1.747,2.444-2.584,3.659Zm329.99-4.061.9-.663c.876,1.2,1.757,2.427,2.616,3.655l-.919.643C400.611,119.321,399.736,118.1,398.864,116.907ZM30.909,119.191c.738-1.292,1.5-2.6,2.271-3.892l.964.574c-.766,1.285-1.526,2.589-2.261,3.875Zm324.064-2.7.791-.8c1.056,1.051,2.115,2.133,3.148,3.217l-.811.775C357.074,118.61,356.022,117.534,354.973,116.491ZM113.291,118.7c1.032-1.08,2.093-2.16,3.154-3.212l.79.8c-1.053,1.045-2.108,2.119-3.133,3.192Zm185.871-2.628.524-.993c1.321.7,2.652,1.428,3.955,2.173l-.556.974C301.792,117.488,300.473,116.763,299.162,116.072Zm-129.2.276c1.308-.724,2.644-1.434,3.969-2.11l.509,1c-1.314.672-2.639,1.376-3.936,2.093Zm-95.814-2.681c.909-1.2,1.836-2.4,2.758-3.56l.879.7c-.916,1.155-1.838,2.347-2.743,3.541Zm216.957-1.51.457-1.025c1.37.611,2.747,1.251,4.093,1.906l-.49,1.009C293.834,113.4,292.469,112.762,291.109,112.157Zm143.213-2.022.947-.6c.8,1.266,1.6,2.548,2.372,3.812l-.958.584C435.918,112.67,435.123,111.394,434.322,110.135Zm-85.851.214.748-.836c1.116,1,2.232,2.026,3.314,3.048l-.77.816C350.687,112.361,349.58,111.342,348.471,110.349Zm44.952-.536.876-.7c.929,1.159,1.864,2.349,2.774,3.537l-.889.683C395.277,112.149,394.348,110.965,393.423,109.812Zm-215.452,2.446c1.359-.638,2.737-1.258,4.1-1.842l.442,1.032c-1.348.578-2.715,1.193-4.063,1.827Zm-58.29.1c1.087-1.024,2.2-2.047,3.317-3.041l.747.837c-1.107.988-2.215,2-3.3,3.021Zm-84.156-.907c.8-1.28,1.609-2.558,2.417-3.8l.941.612c-.805,1.239-1.615,2.512-2.407,3.784Zm247.285-2.667.387-1.054c1.409.519,2.826,1.067,4.213,1.631l-.422,1.04C285.613,109.843,284.207,109.3,282.81,108.784Zm-96.586-.074c1.4-.548,2.821-1.077,4.222-1.572l.373,1.058c-1.389.491-2.8,1.015-4.187,1.559Zm155.425-4.154.7-.874c1.164.938,2.332,1.9,3.471,2.87l-.727.855C343.967,106.446,342.806,105.487,341.649,104.555Zm-261.9,2.052c.946-1.141,1.925-2.3,2.911-3.435l.848.736c-.981,1.132-1.955,2.281-2.9,3.416Zm194.569-.635.317-1.076c1.427.42,2.874.872,4.3,1.343l-.351,1.065C277.164,106.838,275.728,106.389,274.313,105.973Zm-147.919.393c1.141-.966,2.309-1.928,3.472-2.861l.7.876c-1.156.927-2.316,1.882-3.449,2.842Zm68.323-.659c1.436-.455,2.889-.887,4.317-1.288l.3,1.081c-1.416.4-2.856.826-4.281,1.277Zm234.664-3.023.924-.638c.846,1.226,1.693,2.477,2.517,3.719l-.935.62C431.068,105.15,430.226,103.9,429.382,102.684Zm-41.71.279.842-.741c.989,1.126,1.975,2.275,2.93,3.413l-.859.721C389.635,105.225,388.655,104.083,387.673,102.963Zm-122.01.775.245-1.1c1.457.325,2.931.68,4.38,1.055l-.281,1.086C268.57,104.413,267.107,104.061,265.663,103.738Zm-225.232.157c.833-1.231,1.694-2.478,2.559-3.706l.917.646c-.86,1.222-1.718,2.464-2.547,3.688Zm162.962-.621c1.449-.355,2.927-.69,4.394-1l.23,1.1c-1.454.305-2.92.639-4.356.991Zm53.49-1.193.171-1.109c1.477.229,2.972.485,4.44.762l-.208,1.1C259.83,102.561,258.349,102.307,256.883,102.081Zm-44.674-.658c1.477-.259,2.975-.5,4.449-.705l.156,1.112c-1.462.207-2.946.442-4.412.7ZM334.53,99.13l.657-.911c1.213.875,2.43,1.778,3.619,2.684l-.68.893C336.946,100.9,335.735,100,334.53,99.13Zm-201.118,1.607c1.2-.909,2.413-1.809,3.616-2.674l.654.912c-1.2.858-2.4,1.752-3.592,2.655Zm114.6.27.1-1.118c1.482.13,2.989.288,4.48.467l-.135,1.115C250.979,101.293,249.483,101.137,248.013,101.007Zm-26.883-.848c1.48-.16,2.989-.3,4.485-.41l.084,1.119c-1.484.112-2.981.249-4.449.408Zm17.961.358.025-1.122c1.489.034,3,.092,4.5.175l-.062,1.12C242.071,100.608,240.569,100.55,239.091,100.517Zm-8.979-1.033c1.5-.063,3.016-.1,4.5-.118l.011,1.122c-1.471.014-2.972.053-4.463.116ZM85.642,99.8c1.006-1.11,2.035-2.221,3.059-3.3l.814.772c-1.018,1.074-2.041,2.179-3.041,3.284Zm295.982-3.433.809-.777c1.045,1.09,2.081,2.194,3.078,3.282l-.827.758C383.693,98.552,382.663,97.455,381.624,96.371Zm42.539-.946.9-.673c.9,1.2,1.79,2.417,2.657,3.623l-.911.656C425.945,97.83,425.055,96.616,424.163,95.425ZM45.62,96.532c.88-1.2,1.787-2.412,2.7-3.6l.892.681C48.3,94.8,47.4,96,46.524,97.2Zm281.513-2.446.607-.944c1.262.812,2.526,1.65,3.758,2.489l-.633.927C329.642,95.725,328.386,94.893,327.133,94.087Zm-186.418,1.4c1.235-.839,2.5-1.673,3.751-2.477l.605.945c-1.246.8-2.5,1.627-3.727,2.461ZM91.83,93.271c1.046-1.057,2.123-2.121,3.2-3.163l.781.807c-1.072,1.036-2.143,2.094-3.183,3.146ZM375.29,90.05l.775-.812c1.075,1.027,2.158,2.085,3.22,3.143l-.792.795C377.436,92.123,376.36,91.071,375.29,90.05Zm43.38-1.684.872-.705c.946,1.169,1.885,2.354,2.793,3.52l-.885.69C420.547,90.709,419.612,89.531,418.67,88.366Zm-99.2,1.074.555-.974c1.3.74,2.606,1.51,3.887,2.287l-.582.96C322.063,90.941,320.764,90.177,319.474,89.44Zm-171.2,1.194c1.282-.775,2.586-1.54,3.875-2.273l.554.976c-1.28.728-2.575,1.488-3.848,2.258Zm-97.2-1.258c.929-1.17,1.882-2.348,2.832-3.5l.865.714c-.946,1.146-1.894,2.317-2.818,3.482ZM98.3,87.018c1.091-1.009,2.212-2.024,3.336-3.017l.743.84c-1.116.988-2.232,2-3.317,3Zm213.277-1.811.5-1c1.339.672,2.686,1.372,4,2.078l-.531.99C314.244,86.57,312.907,85.875,311.577,85.207Zm-155.49.983c1.313-.7,2.655-1.4,3.988-2.065l.5,1c-1.325.663-2.657,1.353-3.962,2.05ZM368.68,84.013l.738-.845c1.125.983,2.254,1.992,3.357,3l-.757.828C370.922,85.994,369.8,84.99,368.68,84.013Zm44.231-2.495.845-.739c.985,1.128,1.969,2.276,2.926,3.413l-.859.722C414.871,83.784,413.892,82.64,412.911,81.518Zm-109.45-.12.45-1.028c1.373.6,2.757,1.227,4.111,1.862l-.477,1.016C306.2,82.617,304.826,81.995,303.461,81.4Zm-139.345.771c1.353-.635,2.729-1.256,4.09-1.849l.448,1.029c-1.351.589-2.717,1.206-4.062,1.836Zm-107.3.265c.966-1.128,1.963-2.268,2.962-3.388l.837.746c-.993,1.115-1.985,2.25-2.948,3.372Zm48.222-1.376c1.138-.964,2.3-1.928,3.465-2.868l.705.873c-1.154.933-2.313,1.893-3.446,2.851ZM361.81,78.271l.7-.876c1.176.94,2.349,1.9,3.487,2.849l-.72.861C364.146,80.159,362.979,79.206,361.81,78.271Zm-66.66-.243.393-1.051c1.4.525,2.815,1.077,4.207,1.641l-.422,1.04C297.945,79.1,296.539,78.549,295.15,78.028Zm-122.808.553c1.4-.565,2.806-1.114,4.195-1.634L176.929,78c-1.379.516-2.781,1.062-4.167,1.623ZM406.9,74.892l.816-.769c1.023,1.086,2.051,2.2,3.053,3.3l-.83.756C408.938,77.078,407.916,75.973,406.9,74.892Zm-120.231.214L287,74.035c1.432.451,2.875.927,4.29,1.414l-.365,1.061C289.522,76.025,288.088,75.553,286.666,75.106Zm-105.892.32c1.4-.483,2.843-.956,4.276-1.407l.337,1.07c-1.423.448-2.852.918-4.247,1.4ZM62.8,75.715c1.018-1.1,2.058-2.2,3.087-3.272l.809.778c-1.025,1.066-2.059,2.163-3.073,3.257Zm49.225-.314c1.18-.912,2.386-1.824,3.587-2.71l.666.9c-1.193.882-2.394,1.789-3.566,2.7Zm242.666-2.564.66-.909c1.227.895,2.442,1.8,3.611,2.694l-.681.892C357.118,74.627,355.909,73.726,354.691,72.838Zm-76.625-.187.279-1.087c1.449.372,2.911.768,4.345,1.177l-.308,1.08C280.957,73.414,279.5,73.019,278.065,72.65Zm-88.7.077c1.423-.406,2.885-.8,4.346-1.177l.279,1.087c-1.451.374-2.9.767-4.317,1.17ZM400.633,68.5l.787-.8c1.064,1.045,2.133,2.116,3.178,3.183l-.8.785C402.756,70.6,401.693,69.538,400.633,68.5ZM269.348,70.658l.22-1.1c1.459.293,2.94.61,4.4.945l-.25,1.093C272.268,71.265,270.8,70.95,269.348,70.658Zm-71.265-.169c1.459-.333,2.941-.651,4.4-.944l.221,1.1c-1.453.291-2.924.606-4.373.936Zm-78.828-.427c1.216-.858,2.461-1.715,3.7-2.548l.625.931c-1.233.829-2.471,1.681-3.68,2.535Zm228.08-2.341.621-.936c1.243.826,2.5,1.677,3.727,2.531l-.64.922C349.818,69.389,348.571,68.542,347.334,67.721Zm-278.3,1.509c1.064-1.066,2.143-2.126,3.208-3.152l.778.808c-1.059,1.022-2.134,2.077-3.192,3.138Zm191.5-.1.162-1.111c1.474.215,2.97.453,4.445.709l-.19,1.106C263.485,69.584,262,69.346,260.535,69.133Zm-53.624-.411c1.476-.255,2.972-.493,4.446-.707l.161,1.11c-1.464.213-2.951.45-4.417.7Zm44.744-.644.1-1.118c1.491.137,3,.3,4.477.471l-.132,1.115C254.632,68.372,253.136,68.215,251.654,68.078Zm-35.835-.652c1.472-.175,2.978-.332,4.476-.471l.1,1.118c-1.489.137-2.986.294-4.448.467Zm26.911.066.044-1.121c1.5.058,3.008.137,4.5.236l-.073,1.12C245.719,67.629,244.216,67.55,242.731,67.492ZM224.783,66.6c1.479-.1,2.992-.175,4.5-.235l.044,1.121c-1.495.059-3,.137-4.467.233Zm9,.773-.015-1.122c1.5-.019,3.005-.02,4.5,0l-.014,1.122C236.772,67.356,235.277,67.357,233.787,67.376ZM126.711,65.049c1.245-.8,2.525-1.6,3.808-2.381l.584.957c-1.276.779-2.55,1.575-3.788,2.368ZM394.13,62.34l.757-.829c1.1,1.006,2.212,2.036,3.3,3.062l-.772.815C396.332,64.367,395.228,63.341,394.13,62.34Zm-54.373.6.577-.962c1.283.771,2.574,1.566,3.837,2.364l-.6.949C342.315,64.494,341.032,63.7,339.757,62.936Zm-264.249.053c1.083-1.006,2.2-2.024,3.323-3.027l.747.836c-1.117,1-2.23,2.013-3.307,3.014Zm58.87-2.616c1.291-.749,2.606-1.492,3.908-2.209l.541.983c-1.3.713-2.6,1.453-3.887,2.2Zm197.594-1.882.535-.986c1.3.706,2.627,1.443,3.939,2.192l-.555.974C334.586,59.926,333.268,59.192,331.972,58.491ZM387.4,56.435l.723-.858c1.152.972,2.3,1.96,3.412,2.936l-.74.844C389.687,58.385,388.545,57.4,387.4,56.435ZM82.212,57c1.135-.976,2.291-1.951,3.435-2.9l.715.865c-1.14.942-2.29,1.914-3.42,2.885Zm60.029-.956c1.322-.69,2.668-1.373,4-2.032l.5,1.006c-1.325.655-2.664,1.335-3.979,2.022Zm181.754-1.647.489-1.01c1.351.656,2.707,1.334,4.035,2.015l-.513,1C326.688,55.719,325.337,55.045,323.995,54.394Zm56.449-3.607.69-.884c1.166.912,2.351,1.854,3.521,2.8l-.707.872C382.784,52.632,381.6,51.694,380.444,50.787Zm-230.159,1.28c1.357-.633,2.731-1.257,4.084-1.853l.452,1.027c-1.346.592-2.712,1.212-4.061,1.842Zm165.552-1.41.444-1.031c1.37.591,2.757,1.208,4.124,1.833l-.467,1.02C318.579,51.857,317.2,51.244,315.837,50.656Zm-226.7.611c1.166-.928,2.358-1.859,3.542-2.765l.682.891c-1.178.9-2.364,1.828-3.525,2.752Zm69.356-2.814c1.388-.575,2.794-1.138,4.177-1.674l.406,1.046c-1.377.533-2.774,1.093-4.153,1.665Zm149.026-1.167.4-1.049c1.4.53,2.811,1.084,4.2,1.648l-.421,1.041C310.314,48.365,308.908,47.813,307.519,47.286Zm65.759-1.88.657-.911c1.216.878,2.436,1.776,3.626,2.67l-.674.9C375.7,47.173,374.488,46.279,373.278,45.407Zm-277.007.4c1.2-.886,2.43-1.77,3.643-2.628l.647.916c-1.207.853-2.427,1.734-3.626,2.616Zm70.612-.6c1.4-.506,2.826-1.006,4.247-1.486l.359,1.063c-1.414.478-2.835.974-4.224,1.479Zm132.17-.907.35-1.067c1.422.468,2.86.959,4.274,1.46l-.374,1.058C301.9,45.245,300.467,44.757,299.053,44.291ZM175.41,42.323c1.415-.442,2.865-.878,4.309-1.295l.311,1.078c-1.437.414-2.879.848-4.287,1.288Zm115.066-.641.3-1.081c1.442.4,2.9.828,4.319,1.261l-.326,1.074C293.354,42.505,291.91,42.084,290.476,41.682ZM365.912,40.3l.621-.935c1.241.826,2.494,1.677,3.725,2.53l-.639.923C368.394,41.968,367.146,41.12,365.912,40.3ZM103.6,40.617c1.23-.835,2.488-1.673,3.739-2.488l.613.941c-1.245.812-2.5,1.645-3.721,2.476Zm80.452-.787c1.451-.383,2.918-.753,4.363-1.1l.262,1.092c-1.436.345-2.9.713-4.339,1.094Zm97.75-.366.253-1.093c1.459.339,2.93.7,4.372,1.067l-.278,1.087C284.719,40.157,283.256,39.8,281.806,39.464Zm-89-1.738c1.458-.316,2.94-.621,4.407-.9l.214,1.1c-1.459.283-2.934.585-4.383.9Zm80.24-.092.2-1.1c1.472.274,2.957.566,4.415.87l-.229,1.1C275.987,38.2,274.51,37.906,273.046,37.634Zm85.308-2.159.585-.958c1.269.776,2.555,1.58,3.821,2.388l-.6.946C360.9,37.047,359.617,36.248,358.354,35.476Zm-156.715.54c1.462-.249,2.957-.488,4.444-.708l.164,1.11c-1.479.219-2.966.456-4.42.7Zm62.576.181.155-1.111c1.487.208,2.984.435,4.45.673l-.181,1.109C267.182,36.63,265.693,36.4,264.215,36.2Zm-153.088-.483c1.274-.8,2.562-1.584,3.829-2.343l.576.964c-1.261.754-2.543,1.539-3.811,2.331ZM210.541,34.7c1.476-.184,2.98-.356,4.47-.51l.115,1.117c-1.482.152-2.978.323-4.446.506Zm44.786.455.106-1.117c1.5.143,3,.3,4.475.475l-.132,1.115C258.314,35.455,256.817,35.3,255.328,35.154ZM219.492,33.78c1.476-.119,2.986-.225,4.489-.313l.065,1.12c-1.494.088-3,.193-4.464.311Zm26.91.724.057-1.121c1.5.077,3.013.17,4.49.278l-.082,1.119C249.4,34.672,247.9,34.579,246.4,34.5Zm-17.927-1.249c1.494-.055,3.005-.094,4.491-.115l.016,1.122c-1.478.021-2.98.06-4.467.114Zm8.982.99.007-1.122c1.5.01,3.011.038,4.5.08l-.033,1.122C240.451,34.283,238.946,34.255,237.457,34.245Zm113.158-3.3.547-.979c1.3.73,2.619,1.483,3.911,2.24l-.567.969C353.222,32.42,351.912,31.67,350.615,30.944ZM118.829,31.1c1.294-.741,2.61-1.479,3.913-2.194l.539.985c-1.3.711-2.606,1.446-3.895,2.185Zm223.877-4.393.51-1c1.337.683,2.681,1.386,3.994,2.09l-.529.99C345.374,28.088,344.036,27.388,342.706,26.709ZM126.7,26.79c1.322-.693,2.665-1.379,3.993-2.043l.5,1c-1.322.661-2.659,1.345-3.974,2.033Zm207.941-4.011.473-1.018c1.35.626,2.72,1.277,4.072,1.935l-.491,1.009C337.345,24.05,335.981,23.4,334.637,22.779Zm-199.917,0c1.353-.643,2.721-1.278,4.067-1.888l.462,1.023c-1.338.606-2.7,1.238-4.047,1.879Zm191.7-3.62.433-1.035c1.389.58,2.784,1.179,4.145,1.778l-.453,1.027C329.191,20.333,327.8,19.738,326.421,19.16Zm-183.535-.078c1.365-.586,2.755-1.168,4.134-1.73l.423,1.04c-1.371.559-2.755,1.138-4.114,1.722Zm175.183-3.223.392-1.051c1.4.522,2.818,1.067,4.213,1.618l-.412,1.043C320.873,16.921,319.462,16.379,318.068,15.859ZM151.2,15.7c1.4-.54,2.821-1.071,4.212-1.576l.384,1.055c-1.386.5-2.8,1.032-4.194,1.569Zm158.389-2.813.352-1.067c1.429.472,2.867.962,4.273,1.456l-.372,1.059C312.444,13.839,311.013,13.351,309.591,12.882Zm-149.936-.26c1.411-.482,2.848-.958,4.271-1.414l.341,1.069c-1.415.454-2.845.927-4.249,1.407Zm141.364-2.385.309-1.078c1.43.411,2.881.843,4.311,1.284l-.331,1.072C303.885,11.077,302.442,10.646,301.019,10.237Zm-132.8-.36c1.436-.43,2.89-.85,4.321-1.248l.3,1.081c-1.424.4-2.87.814-4.3,1.242ZM292.369,7.928l.268-1.089c1.445.356,2.91.733,4.357,1.118l-.289,1.084C295.265,8.657,293.806,8.283,292.369,7.928Zm-115.48-.465c1.452-.375,2.921-.739,4.366-1.081l.26,1.091c-1.438.342-2.9.7-4.345,1.078ZM283.637,5.954l.227-1.1c1.454.3,2.934.62,4.4.95L288.013,6.9C286.557,6.57,285.085,6.253,283.637,5.954Zm-98-.571c1.448-.315,2.93-.622,4.4-.913l.217,1.1c-1.467.29-2.942.6-4.383.909Zm89.2-1.067.184-1.107c1.465.244,2.955.507,4.43.78l-.2,1.1C277.778,4.819,276.295,4.558,274.837,4.315Zm-80.372-.675c1.475-.262,2.967-.513,4.437-.745L199.075,4c-1.462.23-2.947.48-4.415.74Zm71.514-.626.142-1.114c1.484.19,2.983.4,4.456.612l-.164,1.11C268.948,3.407,267.456,3.2,265.979,3.014ZM203.35,2.238c1.483-.206,2.985-.4,4.461-.574l.132,1.114c-1.468.175-2.963.368-4.439.572Zm53.728-.186.1-1.118c1.479.131,2.986.28,4.476.441l-.121,1.116C260.05,2.33,258.551,2.183,257.078,2.052Zm-44.8-.878c1.473-.147,2.981-.283,4.48-.4l.09,1.119c-1.492.121-2.992.256-4.458.4Zm35.867.253L248.2.306c1.493.076,3,.167,4.49.272L252.615,1.7C251.137,1.594,249.633,1.5,248.147,1.428ZM221.248.45c1.476-.091,2.988-.17,4.492-.235l.048,1.121c-1.5.064-3,.143-4.471.234Zm17.953.69.015-1.122c1.5.021,3.017.056,4.5.1l-.036,1.122C242.2,1.2,240.7,1.161,239.2,1.14ZM230.223.066c1.487-.036,3-.057,4.494-.066l.007,1.122c-1.488.008-2.994.03-4.475.065Z" transform="translate(300 3048.56)" fill="url(#linear-gradient)"/>
    <g id="组_63" data-name="组 63" transform="translate(375 2972.57)">
      <g id="组_69" data-name="组 69" transform="translate(124.035 87.577)">
        <path id="路径_1060" data-name="路径 1060" d="M4.264,30.7H71.316l14.369-8.07a26.559,26.559,0,0,1,26.03,0l14.374,8.07h67.046V95.752h-.092a9.574,9.574,0,0,1-4.884,7.764l-76.444,42.939a26.559,26.559,0,0,1-26.03,0L9.24,103.517a9.574,9.574,0,0,1-4.884-7.764H4.264Z" transform="translate(-3.981 23.76)" fill="url(#linear-gradient-2)"/>
        <path id="路径_1061" data-name="路径 1061" d="M9.238,58.123,85.683,15.179a26.589,26.589,0,0,1,26.03,0l76.444,42.944a9.746,9.746,0,0,1,0,17l-76.444,42.944a26.559,26.559,0,0,1-26.03,0L9.238,75.124a9.75,9.75,0,0,1,0-17" transform="translate(-3.979 -11.775)" fill="url(#linear-gradient-3)"/>
        <path id="路径_1063" data-name="路径 1063" d="M98.935,80.265a26.865,26.865,0,0,0,13.156-3.418L188.536,33.9a9.915,9.915,0,0,0,5.121-8.752h-.572a9.367,9.367,0,0,1-4.826,8.249l-76.45,42.944a26.462,26.462,0,0,1-25.747,0L9.612,33.4a9.367,9.367,0,0,1-4.826-8.249H4.214A9.915,9.915,0,0,0,9.335,33.9L85.779,76.847a26.865,26.865,0,0,0,13.156,3.418" transform="translate(-4.214 63.487)" fill="#141414"/>
        <g id="组_57" data-name="组 57" transform="translate(14.502 97.307)">
          <path id="路径_1064" data-name="路径 1064" d="M32.585,34.743c1.2,4.223,4.8,7.705,8.053,7.778s4.926-3.287,3.729-7.509-4.8-7.705-8.053-7.778-4.926,3.287-3.729,7.509" transform="translate(-32.198 -27.233)" fill="#141414"/>
          <path id="路径_1065" data-name="路径 1065" d="M32.759,32.385c.762,2.684,3.047,4.9,5.115,4.941S41,35.237,40.247,32.56s-3.054-4.9-5.122-4.941S32,29.7,32.759,32.385" transform="translate(-30.217 -24.825)" fill="url(#radial-gradient)"/>
          <path id="路径_1064-2" data-name="路径 1064" d="M32.585,34.743c1.2,4.223,4.8,7.705,8.053,7.778s4.926-3.287,3.729-7.509-4.8-7.705-8.053-7.778-4.926,3.287-3.729,7.509" transform="translate(-6.772 -13.019)" fill="#141414"/>
          <path id="路径_1065-2" data-name="路径 1065" d="M32.759,32.385c.762,2.684,3.047,4.9,5.115,4.941S41,35.237,40.247,32.56s-3.054-4.9-5.122-4.941S32,29.7,32.759,32.385" transform="translate(-4.792 -10.611)" fill="url(#radial-gradient)"/>
          <path id="路径_1064-3" data-name="路径 1064" d="M32.585,34.743c1.2,4.223,4.8,7.705,8.053,7.778s4.926-3.287,3.729-7.509-4.8-7.705-8.053-7.778-4.926,3.287-3.729,7.509" transform="translate(18.648 2.355)" fill="#141414"/>
          <path id="路径_1065-3" data-name="路径 1065" d="M32.759,32.385c.762,2.684,3.047,4.9,5.115,4.941S41,35.237,40.247,32.56s-3.054-4.9-5.122-4.941S32,29.7,32.759,32.385" transform="translate(20.628 4.763)" fill="url(#radial-gradient)"/>
        </g>
        <g id="组_53" data-name="组 53" transform="translate(112.776 97.308)">
          <path id="路径_1064-4" data-name="路径 1064" d="M44.368,34.743c-1.2,4.223-4.8,7.705-8.053,7.778s-4.926-3.287-3.729-7.509,4.8-7.705,8.053-7.778,4.926,3.287,3.729,7.509" transform="translate(18.648 -27.233)" fill="#141414"/>
          <path id="路径_1065-4" data-name="路径 1065" d="M40.243,32.385c-.762,2.684-3.047,4.9-5.115,4.941S32,35.237,32.756,32.56s3.054-4.9,5.122-4.941S41,29.7,40.243,32.385" transform="translate(20.618 -24.825)" fill="url(#radial-gradient-4)"/>
          <path id="路径_1064-5" data-name="路径 1064" d="M44.368,34.743c-1.2,4.223-4.8,7.705-8.053,7.778s-4.926-3.287-3.729-7.509,4.8-7.705,8.053-7.778,4.926,3.287,3.729,7.509" transform="translate(-6.778 -13.019)" fill="#141414"/>
          <path id="路径_1065-5" data-name="路径 1065" d="M40.243,32.385c-.762,2.684-3.047,4.9-5.115,4.941S32,35.237,32.756,32.56s3.054-4.9,5.122-4.941S41,29.7,40.243,32.385" transform="translate(-4.808 -10.611)" fill="url(#radial-gradient-4)"/>
          <path id="路径_1064-6" data-name="路径 1064" d="M44.368,34.743c-1.2,4.223-4.8,7.705-8.053,7.778s-4.926-3.287-3.729-7.509,4.8-7.705,8.053-7.778,4.926,3.287,3.729,7.509" transform="translate(-32.198 2.355)" fill="#141414"/>
          <path id="路径_1065-6" data-name="路径 1065" d="M40.243,32.385c-.762,2.684-3.047,4.9-5.115,4.941S32,35.237,32.756,32.56s3.054-4.9,5.122-4.941S41,29.7,40.243,32.385" transform="translate(-30.228 4.763)" fill="url(#radial-gradient-4)"/>
        </g>
      </g>
      <g id="组_68" data-name="组 68" transform="translate(0 152.668)">
        <g id="组_66" data-name="组 66" transform="translate(0.286 83.07)">
          <path id="路径_1194" data-name="路径 1194" d="M40.373,39.281h67.056L121.8,31.206a26.591,26.591,0,0,1,26.034,0l14.372,8.075h67.056v50.7h-.091a9.576,9.576,0,0,1-4.883,7.762l-76.455,42.945a26.568,26.568,0,0,1-26.034,0L45.351,97.741a9.566,9.566,0,0,1-4.883-7.762h-.1Z" transform="translate(-40.373 15.182)" fill="url(#linear-gradient-2)"/>
          <path id="路径_1195" data-name="路径 1195" d="M45.347,64.674,121.8,21.729a26.577,26.577,0,0,1,26.038,0l76.45,42.945a9.751,9.751,0,0,1,0,17.007l-76.45,42.945a26.577,26.577,0,0,1-26.038,0L45.347,81.68a9.755,9.755,0,0,1,0-17.007" transform="translate(-40.369 -18.322)" fill="url(#linear-gradient-3)"/>
          <path id="路径_1196" data-name="路径 1196" d="M42,32.894h61.824l13.248-7.445a24.523,24.523,0,0,1,24.007,0l13.248,7.445h61.824V56.126h-.086a8.835,8.835,0,0,1-4.5,7.159l-70.484,39.594a24.523,24.523,0,0,1-24.007,0L46.586,63.285a8.835,8.835,0,0,1-4.5-7.159H42Z" transform="translate(-34.626 -4.224)" fill="#141414"/>
        </g>
        <g id="组_65" data-name="组 65" transform="translate(0 0)">
          <path id="路径_1060-2" data-name="路径 1060" d="M4.264,30.7H71.316l14.369-8.07a26.559,26.559,0,0,1,26.03,0l14.374,8.07h67.046V95.752h-.092a9.574,9.574,0,0,1-4.884,7.764l-76.444,42.939a26.559,26.559,0,0,1-26.03,0L9.24,103.517a9.574,9.574,0,0,1-4.884-7.764H4.264Z" transform="translate(-3.981 23.76)" fill="url(#linear-gradient-2)"/>
          <path id="路径_1061-2" data-name="路径 1061" d="M9.238,58.123,85.683,15.179a26.589,26.589,0,0,1,26.03,0l76.444,42.944a9.746,9.746,0,0,1,0,17l-76.444,42.944a26.559,26.559,0,0,1-26.03,0L9.238,75.124a9.75,9.75,0,0,1,0-17" transform="translate(-3.979 -11.775)" fill="url(#linear-gradient-3)"/>
          <path id="路径_1063-2" data-name="路径 1063" d="M98.935,80.265a26.865,26.865,0,0,0,13.156-3.418L188.536,33.9a9.915,9.915,0,0,0,5.121-8.752h-.572a9.367,9.367,0,0,1-4.826,8.249l-76.45,42.944a26.462,26.462,0,0,1-25.747,0L9.612,33.4a9.367,9.367,0,0,1-4.826-8.249H4.214A9.915,9.915,0,0,0,9.335,33.9L85.779,76.847a26.865,26.865,0,0,0,13.156,3.418" transform="translate(-4.214 63.487)" fill="#141414"/>
          <g id="组_57-2" data-name="组 57" transform="translate(14.502 97.307)">
            <path id="路径_1064-7" data-name="路径 1064" d="M32.585,34.743c1.2,4.223,4.8,7.705,8.053,7.778s4.926-3.287,3.729-7.509-4.8-7.705-8.053-7.778-4.926,3.287-3.729,7.509" transform="translate(-32.198 -27.233)" fill="#141414"/>
            <path id="路径_1065-7" data-name="路径 1065" d="M32.759,32.385c.762,2.684,3.047,4.9,5.115,4.941S41,35.237,40.247,32.56s-3.054-4.9-5.122-4.941S32,29.7,32.759,32.385" transform="translate(-30.217 -24.825)" fill="url(#radial-gradient)"/>
            <path id="路径_1064-8" data-name="路径 1064" d="M32.585,34.743c1.2,4.223,4.8,7.705,8.053,7.778s4.926-3.287,3.729-7.509-4.8-7.705-8.053-7.778-4.926,3.287-3.729,7.509" transform="translate(-6.772 -13.019)" fill="#141414"/>
            <path id="路径_1065-8" data-name="路径 1065" d="M32.759,32.385c.762,2.684,3.047,4.9,5.115,4.941S41,35.237,40.247,32.56s-3.054-4.9-5.122-4.941S32,29.7,32.759,32.385" transform="translate(-4.792 -10.611)" fill="url(#radial-gradient)"/>
            <path id="路径_1064-9" data-name="路径 1064" d="M32.585,34.743c1.2,4.223,4.8,7.705,8.053,7.778s4.926-3.287,3.729-7.509-4.8-7.705-8.053-7.778-4.926,3.287-3.729,7.509" transform="translate(18.648 2.355)" fill="#141414"/>
            <path id="路径_1065-9" data-name="路径 1065" d="M32.759,32.385c.762,2.684,3.047,4.9,5.115,4.941S41,35.237,40.247,32.56s-3.054-4.9-5.122-4.941S32,29.7,32.759,32.385" transform="translate(20.628 4.763)" fill="url(#radial-gradient)"/>
          </g>
          <g id="组_53-2" data-name="组 53" transform="translate(112.776 97.308)">
            <path id="路径_1064-10" data-name="路径 1064" d="M44.368,34.743c-1.2,4.223-4.8,7.705-8.053,7.778s-4.926-3.287-3.729-7.509,4.8-7.705,8.053-7.778,4.926,3.287,3.729,7.509" transform="translate(18.648 -27.233)" fill="#141414"/>
            <path id="路径_1065-10" data-name="路径 1065" d="M40.243,32.385c-.762,2.684-3.047,4.9-5.115,4.941S32,35.237,32.756,32.56s3.054-4.9,5.122-4.941S41,29.7,40.243,32.385" transform="translate(20.618 -24.825)" fill="url(#radial-gradient-4)"/>
            <path id="路径_1064-11" data-name="路径 1064" d="M44.368,34.743c-1.2,4.223-4.8,7.705-8.053,7.778s-4.926-3.287-3.729-7.509,4.8-7.705,8.053-7.778,4.926,3.287,3.729,7.509" transform="translate(-6.778 -13.019)" fill="#141414"/>
            <path id="路径_1065-11" data-name="路径 1065" d="M40.243,32.385c-.762,2.684-3.047,4.9-5.115,4.941S32,35.237,32.756,32.56s3.054-4.9,5.122-4.941S41,29.7,40.243,32.385" transform="translate(-4.808 -10.611)" fill="url(#radial-gradient-4)"/>
            <path id="路径_1064-12" data-name="路径 1064" d="M44.368,34.743c-1.2,4.223-4.8,7.705-8.053,7.778s-4.926-3.287-3.729-7.509,4.8-7.705,8.053-7.778,4.926,3.287,3.729,7.509" transform="translate(-32.198 2.355)" fill="#141414"/>
            <path id="路径_1065-12" data-name="路径 1065" d="M40.243,32.385c-.762,2.684-3.047,4.9-5.115,4.941S32,35.237,32.756,32.56s3.054-4.9,5.122-4.941S41,29.7,40.243,32.385" transform="translate(-30.228 4.763)" fill="url(#radial-gradient-4)"/>
          </g>
        </g>
      </g>
      <rect id="矩形_82" data-name="矩形 82" width="96.786" height="4.533" transform="translate(192.575 436.961) rotate(-145.102)" fill="url(#linear-gradient-8)"/>
      <path id="路径_1077" data-name="路径 1077" d="M79.937,210.462l2.453-3.818L16.336,164.221a1.053,1.053,0,0,1,.018-1.791L124.877,95.2a5.6,5.6,0,0,0,.082-9.458L69.781,50.194l-2.453,3.813,55.177,35.546a1.064,1.064,0,0,1-.018,1.791L13.96,158.577a5.59,5.59,0,0,0-.077,9.458Z" transform="translate(193.415 177.382)" fill="url(#linear-gradient-3)"/>
      <path id="路径_1096" data-name="路径 1096" d="M0,114.174H67.056L81.429,106.1a26.591,26.591,0,0,1,26.034,0l14.372,8.075L238.482,85.855v15.189h-.1a9.555,9.555,0,0,1-4.883,7.762L107.462,180.069a26.568,26.568,0,0,1-26.034,0L4.978,137.124A9.573,9.573,0,0,1,.1,129.358H0Z" transform="translate(133.741 303.404)" fill="url(#linear-gradient-2)"/>
      <path id="路径_1097" data-name="路径 1097" d="M4.975,148.512,131.017,77.249a26.568,26.568,0,0,1,26.034,0l76.455,42.945a9.755,9.755,0,0,1,0,17.007L107.463,208.464a26.577,26.577,0,0,1-26.038,0L4.975,165.519a9.755,9.755,0,0,1,0-17.007" transform="translate(133.744 260.95)" fill="url(#linear-gradient-3)"/>
      <path id="路径_1098" data-name="路径 1098" d="M41.29,181.982l3.5,1.637L30.413,116.286l91.766-52.108-3.5-1.632-91.766,52.1Z" transform="translate(128.022 221.033)" fill="url(#linear-gradient-12)"/>
      <path id="路径_1101" data-name="路径 1101" d="M100.226,77.757l69.291,38.923L77.756,168.789,8.46,129.865Z" transform="translate(164.35 274.788)" fill="url(#linear-gradient-13)"/>
      <path id="路径_1102" data-name="路径 1102" d="M129.881,130.239,115.5,62.906,23.743,115.014l14.372,67.333Z" transform="translate(134.695 222.306)" fill="url(#linear-gradient-14)"/>
      <path id="路径_1103" data-name="路径 1103" d="M125.173,124.229,112.2,63.461,24.335,114.25l12.976,60.768Z" transform="translate(136.718 224.267)" fill="#141414"/>
      <path id="路径_1104" data-name="路径 1104" d="M100.225,86.343v3.3L8.459,141.747v-3.3Z" transform="translate(233.643 305.127)" fill="#141414"/>
      <path id="路径_1105" data-name="路径 1105" d="M28.7,89.25v3.3L97.991,131.47v-3.3Z" transform="translate(144.112 315.402)" fill="#4f4f4f"/>
      <g id="组_70" data-name="组 70" transform="translate(172.812 356.349)">
        <path id="路径_1100" data-name="路径 1100" d="M28.7,89.25v3.3L97.991,131.47v-3.3Z" transform="translate(-28.699 -40.947)" fill="#141414"/>
        <path id="路径_1106" data-name="路径 1106" d="M30.047,85.33l5.1-2.92,3,1.632-5.064,2.9Z" transform="translate(25.032 -65.117)" fill="#141414"/>
        <path id="路径_1107" data-name="路径 1107" d="M28.7,84.557l5.1-2.92,3,1.632-5.064,2.9Z" transform="translate(32.511 -67.85)" fill="#141414"/>
        <path id="路径_1108" data-name="路径 1108" d="M32.751,86.874l5.1-2.915,3,1.632-5.06,2.9Z" transform="translate(10.072 -59.646)" fill="#141414"/>
        <path id="路径_1109" data-name="路径 1109" d="M31.4,86.1l5.1-2.915,3,1.628-5.06,2.9Z" transform="translate(17.551 -62.38)" fill="#141414"/>
        <path id="路径_1110" data-name="路径 1110" d="M25.992,83.01l5.1-2.92,3,1.632-5.064,2.9Z" transform="translate(47.471 -73.317)" fill="#141414"/>
        <path id="路径_1111" data-name="路径 1111" d="M27.344,83.784l5.1-2.92,3,1.632-5.064,2.9Z" transform="translate(39.991 -70.584)" fill="#141414"/>
        <path id="路径_1112" data-name="路径 1112" d="M32.747,80.949l-5.069,2.9L24.64,82.236l5.105-2.92Z" transform="translate(54.95 -76.051)" fill="#141414"/>
        <path id="路径_1113" data-name="路径 1113" d="M35.455,88.421l5.1-2.915,3,1.632-5.06,2.9Z" transform="translate(-4.888 -54.18)" fill="#141414"/>
        <path id="路径_1114" data-name="路径 1114" d="M34.1,87.647l5.1-2.915,3,1.632-5.06,2.9Z" transform="translate(2.592 -56.913)" fill="#141414"/>
        <path id="路径_1115" data-name="路径 1115" d="M23.346,81.276l4.679-2.68,3.165,1.542L26.384,82.89Z" transform="translate(62.373 -78.596)" fill="#141414"/>
        <path id="路径_1116" data-name="路径 1116" d="M46.366,88.6l3,1.632-5.341,3.056-3.165-1.537Z" transform="translate(-35.221 -43.245)" fill="#141414"/>
        <path id="路径_1117" data-name="路径 1117" d="M39.51,90.741,44.6,87.826l3,1.632-5.055,2.9Z" transform="translate(-27.327 -45.98)" fill="#141414"/>
        <path id="路径_1118" data-name="路径 1118" d="M36.806,89.194l5.1-2.915,3,1.632L39.844,90.8Z" transform="translate(-12.368 -51.447)" fill="#141414"/>
        <path id="路径_1119" data-name="路径 1119" d="M38.159,89.968l5.092-2.915,3,1.632L41.2,91.577Z" transform="translate(-19.848 -48.713)" fill="#141414"/>
        <path id="路径_1120" data-name="路径 1120" d="M28.43,85.832l5.1-2.92,6.18,3.523-5.064,2.9Z" transform="translate(30.801 -63.346)" fill="#141414"/>
        <path id="路径_1121" data-name="路径 1121" d="M27.079,85.058l5.1-2.92,6.18,3.523-5.064,2.9Z" transform="translate(38.281 -66.079)" fill="#141414"/>
        <path id="路径_1122" data-name="路径 1122" d="M31.134,87.375l5.1-2.915,6.18,3.523-5.06,2.9Z" transform="translate(15.841 -57.876)" fill="#141414"/>
        <path id="路径_1123" data-name="路径 1123" d="M29.783,86.6l5.1-2.915,6.18,3.523L36,90.106Z" transform="translate(23.321 -60.609)" fill="#141414"/>
        <path id="路径_1124" data-name="路径 1124" d="M24.375,83.511l5.1-2.92,6.18,3.523-5.064,2.9Z" transform="translate(53.241 -71.546)" fill="#141414"/>
        <path id="路径_1125" data-name="路径 1125" d="M25.727,84.285l5.1-2.92,6.18,3.523-5.064,2.9Z" transform="translate(45.761 -68.813)" fill="#141414"/>
        <path id="路径_1126" data-name="路径 1126" d="M34.308,83.341l-5.069,2.9-6.216-3.5,5.105-2.92Z" transform="translate(60.719 -74.28)" fill="#141414"/>
        <path id="路径_1127" data-name="路径 1127" d="M33.838,88.922l5.1-2.915,6.18,3.523-5.06,2.9Z" transform="translate(0.881 -52.409)" fill="#141414"/>
        <path id="路径_1128" data-name="路径 1128" d="M32.486,88.149l5.1-2.915,6.18,3.523-5.06,2.9Z" transform="translate(8.361 -55.142)" fill="#141414"/>
        <path id="路径_1129" data-name="路径 1129" d="M21.729,81.777,26.408,79.1l6.343,3.432-4.806,2.752Z" transform="translate(68.142 -76.825)" fill="#141414"/>
        <path id="路径_1130" data-name="路径 1130" d="M35.189,89.7l5.1-2.915,6.18,3.523-5.06,2.9Z" transform="translate(-6.598 -49.676)" fill="#141414"/>
        <path id="路径_1131" data-name="路径 1131" d="M36.542,90.469l5.092-2.915,6.18,3.523-5.055,2.9Z" transform="translate(-14.079 -46.942)" fill="#141414"/>
        <path id="路径_1132" data-name="路径 1132" d="M49.527,88.327,37.893,94.983l6.343,3.432L55.707,91.85Z" transform="translate(-28.1 -44.208)" fill="#141414"/>
        <path id="路径_1133" data-name="路径 1133" d="M27.48,87.162l5.1-2.92,6.18,3.523-5.064,2.9Z" transform="translate(36.061 -58.644)" fill="#141414"/>
        <path id="路径_1134" data-name="路径 1134" d="M26.128,86.389l5.1-2.92,6.18,3.523-5.064,2.9Z" transform="translate(43.54 -61.377)" fill="#141414"/>
        <path id="路径_1135" data-name="路径 1135" d="M30.184,88.706l5.1-2.915,6.18,3.523-5.06,2.9Z" transform="translate(21.101 -53.174)" fill="#141414"/>
        <path id="路径_1136" data-name="路径 1136" d="M28.832,87.932l5.1-2.915,6.18,3.523-5.06,2.9Z" transform="translate(28.58 -55.907)" fill="#141414"/>
        <path id="路径_1137" data-name="路径 1137" d="M23.425,84.842l5.1-2.92,6.18,3.523-5.064,2.9Z" transform="translate(58.5 -66.844)" fill="#141414"/>
        <path id="路径_1138" data-name="路径 1138" d="M24.777,85.615l5.1-2.92,6.18,3.523-5.064,2.9Z" transform="translate(51.02 -64.111)" fill="#141414"/>
        <path id="路径_1139" data-name="路径 1139" d="M33.358,84.671l-5.069,2.9-6.216-3.5,5.105-2.92Z" transform="translate(65.979 -69.577)" fill="#141414"/>
        <path id="路径_1140" data-name="路径 1140" d="M32.887,90.253l5.1-2.915,6.18,3.523-5.06,2.9Z" transform="translate(6.141 -47.707)" fill="#141414"/>
        <path id="路径_1141" data-name="路径 1141" d="M31.536,89.479l5.1-2.915,6.18,3.523-5.06,2.9Z" transform="translate(13.62 -50.44)" fill="#141414"/>
        <path id="路径_1142" data-name="路径 1142" d="M20.119,84.507l7.671-4.475,6.343,3.432-7.8,4.548Z" transform="translate(74.062 -73.523)" fill="#141414"/>
        <path id="路径_1143" data-name="路径 1143" d="M36.943,94.418l8.424-4.761,6.18,3.523-8.388,4.742Z" transform="translate(-19.631 -39.506)" fill="#141414"/>
        <path id="路径_1144" data-name="路径 1144" d="M34.239,91.026l5.1-2.915,6.18,3.523-5.06,2.9Z" transform="translate(-1.339 -44.974)" fill="#141414"/>
        <path id="路径_1145" data-name="路径 1145" d="M35.592,91.8l5.092-2.915,6.18,3.523-5.055,2.9Z" transform="translate(-8.819 -42.24)" fill="#141414"/>
        <path id="路径_1146" data-name="路径 1146" d="M26.476,88.5l5.1-2.92,6.18,3.523L32.692,92Z" transform="translate(41.618 -53.931)" fill="#141414"/>
        <path id="路径_1147" data-name="路径 1147" d="M25.124,87.722l5.1-2.92,6.18,3.523-5.064,2.9Z" transform="translate(49.098 -56.664)" fill="#141414"/>
        <path id="路径_1148" data-name="路径 1148" d="M29.18,90.039l5.1-2.915,6.18,3.523-5.06,2.9Z" transform="translate(26.658 -48.46)" fill="#141414"/>
        <path id="路径_1149" data-name="路径 1149" d="M27.828,89.266l5.1-2.915,6.18,3.523-5.06,2.9Z" transform="translate(34.138 -51.193)" fill="#141414"/>
        <path id="路径_1150" data-name="路径 1150" d="M22.421,86.176l5.1-2.92,6.18,3.523-5.064,2.9Z" transform="translate(64.058 -62.13)" fill="#141414"/>
        <path id="路径_1151" data-name="路径 1151" d="M23.772,86.949l5.1-2.92,6.18,3.523-5.064,2.9Z" transform="translate(56.578 -59.397)" fill="#141414"/>
        <path id="路径_1152" data-name="路径 1152" d="M32.353,86.005l-5.069,2.9-6.216-3.5,5.105-2.92Z" transform="translate(71.536 -64.864)" fill="#141414"/>
        <path id="路径_1153" data-name="路径 1153" d="M31.883,91.586l5.1-2.915,6.18,3.523-5.06,2.9Z" transform="translate(11.698 -42.993)" fill="#141414"/>
        <path id="路径_1154" data-name="路径 1154" d="M30.531,90.813l5.1-2.915,6.18,3.523-5.06,2.9Z" transform="translate(19.178 -45.727)" fill="#141414"/>
        <path id="路径_1155" data-name="路径 1155" d="M18.387,87.35l10.977-6.411L35.7,84.371,24.6,90.854Z" transform="translate(80.347 -70.318)" fill="#141414"/>
        <path id="路径_1156" data-name="路径 1156" d="M33.235,92.36l5.1-2.915,6.18,3.523-5.06,2.9Z" transform="translate(4.219 -40.26)" fill="#141414"/>
        <path id="路径_1157" data-name="路径 1157" d="M34.587,93.133l5.092-2.915,6.18,3.523-5.055,2.9Z" transform="translate(-3.262 -37.526)" fill="#141414"/>
        <path id="路径_1158" data-name="路径 1158" d="M35.928,93.885,41.02,90.97l6.18,3.523-5.055,2.9Z" transform="translate(-10.682 -34.87)" fill="#141414"/>
        <path id="路径_1159" data-name="路径 1159" d="M24.041,88.977l5.1-2.92,6.18,3.523-5.064,2.9Z" transform="translate(55.091 -52.232)" fill="#141414"/>
        <path id="路径_1160" data-name="路径 1160" d="M22.689,88.2l5.1-2.92,6.18,3.523-5.064,2.9Z" transform="translate(62.571 -54.965)" fill="#141414"/>
        <path id="路径_1161" data-name="路径 1161" d="M26.745,90.52l5.1-2.915,6.18,3.523-5.06,2.9Z" transform="translate(40.131 -46.761)" fill="#141414"/>
        <path id="路径_1162" data-name="路径 1162" d="M25.394,89.747l5.1-2.915,6.18,3.523-5.06,2.9Z" transform="translate(47.61 -49.495)" fill="#141414"/>
        <path id="路径_1163" data-name="路径 1163" d="M19.986,86.656l5.1-2.92,6.18,3.523-5.064,2.9Z" transform="translate(77.53 -60.432)" fill="#141414"/>
        <path id="路径_1164" data-name="路径 1164" d="M21.338,87.43l5.1-2.92,6.18,3.523-5.064,2.9Z" transform="translate(70.05 -57.698)" fill="#141414"/>
        <path id="路径_1165" data-name="路径 1165" d="M29.919,86.486l-5.069,2.9-6.216-3.5,5.105-2.92Z" transform="translate(85.009 -63.165)" fill="#141414"/>
        <path id="路径_1166" data-name="路径 1166" d="M29.449,92.067l5.1-2.915,6.18,3.523-5.06,2.9Z" transform="translate(25.171 -41.295)" fill="#141414"/>
        <path id="路径_1167" data-name="路径 1167" d="M28.1,91.294l5.1-2.915,6.18,3.523-5.06,2.9Z" transform="translate(32.651 -44.028)" fill="#141414"/>
        <path id="路径_1168" data-name="路径 1168" d="M16.68,86.321l7.671-4.475,6.343,3.432-7.8,4.548Z" transform="translate(93.092 -67.111)" fill="#141414"/>
        <path id="路径_1169" data-name="路径 1169" d="M30.8,92.841l5.1-2.915,6.18,3.523-5.06,2.9Z" transform="translate(17.691 -38.561)" fill="#141414"/>
        <path id="路径_1170" data-name="路径 1170" d="M32.152,98.965,46.706,90.7l6.18,3.523-14.518,8.247Z" transform="translate(0.751 -35.826)" fill="#141414"/>
        <path id="路径_1171" data-name="路径 1171" d="M17.716,87.232l5.1-2.92L29,87.835l-5.064,2.9Z" transform="translate(90.093 -58.397)" fill="#141414"/>
        <path id="路径_1172" data-name="路径 1172" d="M19.068,88.005l5.1-2.92,6.18,3.523-5.064,2.9Z" transform="translate(82.612 -55.664)" fill="#141414"/>
        <path id="路径_1173" data-name="路径 1173" d="M27.649,87.061l-5.069,2.9-6.216-3.5,5.105-2.92Z" transform="translate(97.571 -61.131)" fill="#141414"/>
        <path id="路径_1174" data-name="路径 1174" d="M26.286,86.28l-5.069,2.9L15,85.677l5.105-2.92Z" transform="translate(105.11 -63.891)" fill="#141414"/>
        <path id="路径_1175" data-name="路径 1175" d="M31.234,98.286,42.7,92.048l6.184,3.523L37.45,101.791Z" transform="translate(8.918 -31.06)" fill="#141414"/>
        <path id="路径_1176" data-name="路径 1176" d="M28.53,93.416l5.1-2.915,6.18,3.523-5.06,2.9Z" transform="translate(30.254 -36.527)" fill="#141414"/>
        <path id="路径_1177" data-name="路径 1177" d="M29.883,94.19l5.092-2.915,6.18,3.523-5.055,2.9Z" transform="translate(22.773 -33.793)" fill="#141414"/>
        <path id="路径_1178" data-name="路径 1178" d="M56.16,85.859,20.419,106.312l6.216,3.5,35.7-20.434Z" transform="translate(44.492 -52.929)" fill="#141414"/>
      </g>
      <path id="路径_1197" data-name="路径 1197" d="M40.373,20.96h67.056L121.8,12.885a26.591,26.591,0,0,1,26.034,0l14.372,8.075h67.056V86.08h-.091a9.576,9.576,0,0,1-4.883,7.762l-76.455,42.95a26.591,26.591,0,0,1-26.034,0l-76.45-42.95a9.566,9.566,0,0,1-4.883-7.762h-.1Z" transform="translate(-40.087 33.508)" fill="#363636"/>
      <path id="路径_1198" data-name="路径 1198" d="M45.347,46.352,121.8,3.407a26.577,26.577,0,0,1,26.038,0l76.45,42.945a9.751,9.751,0,0,1,0,17.007L147.835,106.3a26.577,26.577,0,0,1-26.038,0L45.347,63.358a9.755,9.755,0,0,1,0-17.007" transform="translate(-40.083 0)" fill="#707070"/>
      <path id="路径_1199" data-name="路径 1199" d="M135.041,75.269A26.857,26.857,0,0,0,148.2,71.85L224.653,28.9a9.908,9.908,0,0,0,5.114-8.755H229.2a9.35,9.35,0,0,1-4.824,8.252l-76.455,42.95a26.448,26.448,0,0,1-25.753,0L45.71,28.4a9.341,9.341,0,0,1-4.824-8.252H40.31A9.912,9.912,0,0,0,45.429,28.9l76.455,42.95a26.844,26.844,0,0,0,13.157,3.419" transform="translate(-40.306 71.196)" fill="#1f1f1f"/>
      <path id="路径_1200" data-name="路径 1200" d="M77.333,29.808c1.333,4.7,5.35,8.583,8.973,8.664s5.486-3.659,4.153-8.36-5.35-8.583-8.973-8.669S76,25.106,77.333,29.808" transform="translate(-67.332 75.775)" fill="#242424"/>
      <path id="路径_1201" data-name="路径 1201" d="M77.737,27.441c.848,2.988,3.4,5.45,5.7,5.5s3.482-2.326,2.639-5.314-3.4-5.45-5.7-5.5-3.482,2.326-2.639,5.314" transform="translate(-65.342 78.196)" fill="#7d7d7d"/>
      <path id="路径_1202" data-name="路径 1202" d="M71.293,33.422c1.333,4.7,5.35,8.583,8.973,8.664s5.486-3.659,4.153-8.36-5.35-8.583-8.973-8.669-5.486,3.663-4.153,8.365" transform="translate(-33.907 88.546)" fill="#242424"/>
      <path id="路径_1203" data-name="路径 1203" d="M71.7,31.055c.848,2.988,3.4,5.45,5.7,5.5s3.482-2.326,2.639-5.314-3.4-5.45-5.7-5.5-3.487,2.326-2.639,5.314" transform="translate(-31.919 90.968)" fill="#7d7d7d"/>
      <path id="路径_1204" data-name="路径 1204" d="M65.253,36.877c1.333,4.7,5.35,8.583,8.973,8.664s5.486-3.659,4.153-8.36-5.35-8.583-8.973-8.669-5.486,3.663-4.153,8.365" transform="translate(-0.482 100.756)" fill="#242424"/>
      <path id="路径_1205" data-name="路径 1205" d="M65.659,34.51c.848,2.988,3.4,5.45,5.7,5.5S74.84,37.689,74,34.7s-3.4-5.45-5.7-5.5-3.487,2.326-2.639,5.314" transform="translate(1.506 103.177)" fill="#7d7d7d"/>
      <path id="路径_1206" data-name="路径 1206" d="M56.019,29.905c-1.333,4.7-5.35,8.583-8.973,8.664s-5.486-3.659-4.153-8.36,5.35-8.583,8.973-8.669,5.486,3.663,4.153,8.365" transform="translate(123.256 76.118)" fill="#242424"/>
      <path id="路径_1207" data-name="路径 1207" d="M51.635,27.538c-.848,2.988-3.4,5.45-5.7,5.5s-3.482-2.326-2.639-5.314,3.4-5.45,5.7-5.5,3.487,2.326,2.639,5.314" transform="translate(125.246 78.539)" fill="#7d7d7d"/>
      <path id="路径_1208" data-name="路径 1208" d="M62.057,33.518c-1.328,4.7-5.35,8.583-8.973,8.664s-5.481-3.659-4.153-8.36,5.35-8.583,8.973-8.669,5.486,3.663,4.153,8.365" transform="translate(89.833 88.886)" fill="#242424"/>
      <path id="路径_1209" data-name="路径 1209" d="M57.675,31.148c-.848,2.988-3.4,5.454-5.7,5.5s-3.482-2.326-2.639-5.314,3.4-5.45,5.7-5.5,3.487,2.326,2.639,5.309" transform="translate(91.821 91.31)" fill="#7d7d7d"/>
      <path id="路径_1210" data-name="路径 1210" d="M68.1,36.973c-1.333,4.7-5.35,8.583-8.973,8.664s-5.486-3.659-4.153-8.36,5.35-8.583,8.973-8.669,5.486,3.663,4.153,8.365" transform="translate(56.412 101.095)" fill="#242424"/>
      <path id="路径_1211" data-name="路径 1211" d="M63.715,34.607c-.848,2.988-3.4,5.45-5.7,5.5s-3.482-2.326-2.639-5.314,3.4-5.45,5.7-5.5,3.487,2.326,2.639,5.314" transform="translate(58.396 103.52)" fill="#7d7d7d"/>
      <g id="组_67" data-name="组 67" transform="translate(0 0)">
        <g id="组_66-2" data-name="组 66" transform="translate(0.286 83.07)">
          <path id="路径_1194-2" data-name="路径 1194" d="M40.373,39.281h67.056L121.8,31.206a26.591,26.591,0,0,1,26.034,0l14.372,8.075h67.056v50.7h-.091a9.576,9.576,0,0,1-4.883,7.762l-76.455,42.945a26.568,26.568,0,0,1-26.034,0L45.351,97.741a9.566,9.566,0,0,1-4.883-7.762h-.1Z" transform="translate(-40.373 15.182)" fill="url(#linear-gradient-15)"/>
          <path id="路径_1195-2" data-name="路径 1195" d="M45.347,64.674,121.8,21.729a26.577,26.577,0,0,1,26.038,0l76.45,42.945a9.751,9.751,0,0,1,0,17.007l-76.45,42.945a26.577,26.577,0,0,1-26.038,0L45.347,81.68a9.755,9.755,0,0,1,0-17.007" transform="translate(-40.369 -18.322)" fill="url(#linear-gradient-15)"/>
          <path id="路径_1196-2" data-name="路径 1196" d="M42,32.894h61.824l13.248-7.445a24.523,24.523,0,0,1,24.007,0l13.248,7.445h61.824V56.126h-.086a8.835,8.835,0,0,1-4.5,7.159l-70.484,39.594a24.523,24.523,0,0,1-24.007,0L46.586,63.285a8.835,8.835,0,0,1-4.5-7.159H42Z" transform="translate(-34.626 -4.224)" fill="#141414"/>
        </g>
        <g id="组_65-2" data-name="组 65" transform="translate(0)">
          <path id="路径_1060-3" data-name="路径 1060" d="M4.264,30.7H71.316l14.369-8.07a26.559,26.559,0,0,1,26.03,0l14.374,8.07h67.046V95.752h-.092a9.574,9.574,0,0,1-4.884,7.764l-76.444,42.939a26.559,26.559,0,0,1-26.03,0L9.24,103.517a9.574,9.574,0,0,1-4.884-7.764H4.264Z" transform="translate(-3.981 23.76)" fill="url(#linear-gradient-2)"/>
          <path id="路径_1061-3" data-name="路径 1061" d="M9.238,58.123,85.683,15.179a26.589,26.589,0,0,1,26.03,0l76.444,42.944a9.746,9.746,0,0,1,0,17l-76.444,42.944a26.559,26.559,0,0,1-26.03,0L9.238,75.124a9.75,9.75,0,0,1,0-17" transform="translate(-3.979 -11.775)" fill="url(#linear-gradient-3)"/>
          <path id="路径_1063-3" data-name="路径 1063" d="M98.935,80.265a26.865,26.865,0,0,0,13.156-3.418L188.536,33.9a9.915,9.915,0,0,0,5.121-8.752h-.572a9.367,9.367,0,0,1-4.826,8.249l-76.45,42.944a26.462,26.462,0,0,1-25.747,0L9.612,33.4a9.367,9.367,0,0,1-4.826-8.249H4.214A9.915,9.915,0,0,0,9.335,33.9L85.779,76.847a26.865,26.865,0,0,0,13.156,3.418" transform="translate(-4.214 63.487)" fill="#141414"/>
          <g id="组_57-3" data-name="组 57" transform="translate(14.502 97.307)">
            <path id="路径_1064-13" data-name="路径 1064" d="M32.585,34.743c1.2,4.223,4.8,7.705,8.053,7.778s4.926-3.287,3.729-7.509-4.8-7.705-8.053-7.778-4.926,3.287-3.729,7.509" transform="translate(-32.198 -27.233)" fill="#141414"/>
            <path id="路径_1065-13" data-name="路径 1065" d="M32.759,32.385c.762,2.684,3.047,4.9,5.115,4.941S41,35.237,40.247,32.56s-3.054-4.9-5.122-4.941S32,29.7,32.759,32.385" transform="translate(-30.217 -24.825)" fill="url(#radial-gradient)"/>
            <path id="路径_1064-14" data-name="路径 1064" d="M32.585,34.743c1.2,4.223,4.8,7.705,8.053,7.778s4.926-3.287,3.729-7.509-4.8-7.705-8.053-7.778-4.926,3.287-3.729,7.509" transform="translate(-6.772 -13.019)" fill="#141414"/>
            <path id="路径_1065-14" data-name="路径 1065" d="M32.759,32.385c.762,2.684,3.047,4.9,5.115,4.941S41,35.237,40.247,32.56s-3.054-4.9-5.122-4.941S32,29.7,32.759,32.385" transform="translate(-4.792 -10.611)" fill="url(#radial-gradient)"/>
            <path id="路径_1064-15" data-name="路径 1064" d="M32.585,34.743c1.2,4.223,4.8,7.705,8.053,7.778s4.926-3.287,3.729-7.509-4.8-7.705-8.053-7.778-4.926,3.287-3.729,7.509" transform="translate(18.648 2.355)" fill="#141414"/>
            <path id="路径_1065-15" data-name="路径 1065" d="M32.759,32.385c.762,2.684,3.047,4.9,5.115,4.941S41,35.237,40.247,32.56s-3.054-4.9-5.122-4.941S32,29.7,32.759,32.385" transform="translate(20.628 4.763)" fill="url(#radial-gradient)"/>
          </g>
          <g id="组_53-3" data-name="组 53" transform="translate(112.776 97.308)">
            <path id="路径_1064-16" data-name="路径 1064" d="M44.368,34.743c-1.2,4.223-4.8,7.705-8.053,7.778s-4.926-3.287-3.729-7.509,4.8-7.705,8.053-7.778,4.926,3.287,3.729,7.509" transform="translate(18.648 -27.233)" fill="#141414"/>
            <path id="路径_1065-16" data-name="路径 1065" d="M40.243,32.385c-.762,2.684-3.047,4.9-5.115,4.941S32,35.237,32.756,32.56s3.054-4.9,5.122-4.941S41,29.7,40.243,32.385" transform="translate(20.618 -24.825)" fill="url(#radial-gradient-4)"/>
            <path id="路径_1064-17" data-name="路径 1064" d="M44.368,34.743c-1.2,4.223-4.8,7.705-8.053,7.778s-4.926-3.287-3.729-7.509,4.8-7.705,8.053-7.778,4.926,3.287,3.729,7.509" transform="translate(-6.778 -13.019)" fill="#141414"/>
            <path id="路径_1065-17" data-name="路径 1065" d="M40.243,32.385c-.762,2.684-3.047,4.9-5.115,4.941S32,35.237,32.756,32.56s3.054-4.9,5.122-4.941S41,29.7,40.243,32.385" transform="translate(-4.808 -10.611)" fill="url(#radial-gradient-4)"/>
            <path id="路径_1064-18" data-name="路径 1064" d="M44.368,34.743c-1.2,4.223-4.8,7.705-8.053,7.778s-4.926-3.287-3.729-7.509,4.8-7.705,8.053-7.778,4.926,3.287,3.729,7.509" transform="translate(-32.198 2.355)" fill="#141414"/>
            <path id="路径_1065-18" data-name="路径 1065" d="M40.243,32.385c-.762,2.684-3.047,4.9-5.115,4.941S32,35.237,32.756,32.56s3.054-4.9,5.122-4.941S41,29.7,40.243,32.385" transform="translate(-30.228 4.763)" fill="url(#radial-gradient-4)"/>
          </g>
        </g>
      </g>
    </g>
  </g>
</svg>
