<svg xmlns="http://www.w3.org/2000/svg" xmlns:xlink="http://www.w3.org/1999/xlink" width="703" height="568.241" viewBox="0 0 703 568.241">
  <defs>
    <linearGradient id="linear-gradient" x1="0.5" x2="0.5" y2="1" gradientUnits="objectBoundingBox">
      <stop offset="0" stop-color="#953dff" stop-opacity="0.424"/>
      <stop offset="1" stop-color="#e7abff" stop-opacity="0"/>
    </linearGradient>
    <linearGradient id="linear-gradient-2" x1="0.5" x2="0.5" y2="1" gradientUnits="objectBoundingBox">
      <stop offset="0" stop-color="#7e14ff"/>
      <stop offset="1" stop-color="#c431ff"/>
    </linearGradient>
    <linearGradient id="linear-gradient-3" x1="0.5" x2="0.5" y2="1" gradientUnits="objectBoundingBox">
      <stop offset="0" stop-color="#953dff"/>
      <stop offset="1" stop-color="#e7abff"/>
    </linearGradient>
    <linearGradient id="linear-gradient-4" x1="0.5" x2="0.5" y2="1" gradientUnits="objectBoundingBox">
      <stop offset="0" stop-color="#fbaf52" stop-opacity="0.514"/>
      <stop offset="1" stop-color="#d9bc98" stop-opacity="0"/>
    </linearGradient>
    <radialGradient id="radial-gradient" cx="0.696" cy="0.369" r="0.5" gradientUnits="objectBoundingBox">
      <stop offset="0" stop-color="#fff"/>
      <stop offset="1" stop-color="#ffa63e"/>
    </radialGradient>
    <linearGradient id="linear-gradient-7" y1="1" y2="0" xlink:href="#linear-gradient-4"/>
    <radialGradient id="radial-gradient-4" cx="0.304" cy="0.369" xlink:href="#radial-gradient"/>
    <linearGradient id="linear-gradient-10" x1="0.5" y1="0" x2="0.5" y2="1" xlink:href="#radial-gradient"/>
    <filter id="路径_1076" x="247.945" y="347.104" width="207.512" height="119.283" filterUnits="userSpaceOnUse">
      <feOffset input="SourceAlpha"/>
      <feGaussianBlur stdDeviation="3" result="blur"/>
      <feFlood flood-color="#a525ff"/>
      <feComposite operator="in" in2="blur"/>
      <feComposite in="SourceGraphic"/>
    </filter>
    <filter id="路径_1076-2" x="247.945" y="347.104" width="207.512" height="119.283" filterUnits="userSpaceOnUse">
      <feOffset input="SourceAlpha"/>
      <feGaussianBlur stdDeviation="7" result="blur-2"/>
      <feFlood flood-color="#fff" result="color"/>
      <feComposite operator="out" in="SourceGraphic" in2="blur-2"/>
      <feComposite operator="in" in="color"/>
      <feComposite operator="in" in2="SourceGraphic"/>
    </filter>
    <filter id="路径_1076-3" x="247.945" y="262.104" width="207.512" height="119.283" filterUnits="userSpaceOnUse">
      <feOffset input="SourceAlpha"/>
      <feGaussianBlur stdDeviation="3" result="blur-3"/>
      <feFlood flood-color="#a525ff"/>
      <feComposite operator="in" in2="blur-3"/>
      <feComposite in="SourceGraphic"/>
    </filter>
    <filter id="路径_1076-4" x="247.945" y="262.104" width="207.512" height="119.283" filterUnits="userSpaceOnUse">
      <feOffset input="SourceAlpha"/>
      <feGaussianBlur stdDeviation="7" result="blur-4"/>
      <feFlood flood-color="#fff" result="color-2"/>
      <feComposite operator="out" in="SourceGraphic" in2="blur-4"/>
      <feComposite operator="in" in="color-2"/>
      <feComposite operator="in" in2="SourceGraphic"/>
    </filter>
    <filter id="路径_1076-5" x="247.945" y="176.104" width="207.512" height="119.283" filterUnits="userSpaceOnUse">
      <feOffset input="SourceAlpha"/>
      <feGaussianBlur stdDeviation="3" result="blur-5"/>
      <feFlood flood-color="#a525ff"/>
      <feComposite operator="in" in2="blur-5"/>
      <feComposite in="SourceGraphic"/>
    </filter>
    <filter id="路径_1076-6" x="247.945" y="176.104" width="207.512" height="119.283" filterUnits="userSpaceOnUse">
      <feOffset input="SourceAlpha"/>
      <feGaussianBlur stdDeviation="7" result="blur-6"/>
      <feFlood flood-color="#fff" result="color-3"/>
      <feComposite operator="out" in="SourceGraphic" in2="blur-6"/>
      <feComposite operator="in" in="color-3"/>
      <feComposite operator="in" in2="SourceGraphic"/>
    </filter>
  </defs>
  <g id="组_48" data-name="组 48" transform="translate(209.19 83.805)">
    <rect id="矩形_81" data-name="矩形 81" width="703" height="568" rx="10" transform="translate(-209.19 -83.805)" fill="#222026" opacity="0"/>
    <path id="联合_28" data-name="联合 28" d="M492.568,424.481c1.013-1.516,2.016-3.056,2.986-4.579l1.155.735c-.976,1.532-1.985,3.081-3,4.6Zm-50.588-.355c1.2-1.356,2.4-2.748,3.559-4.136l1.049.879c-1.17,1.4-2.375,2.8-3.583,4.164Zm-313.168-3.542,1.05-.877c1.163,1.393,2.357,2.784,3.548,4.138l-1.027.905C131.184,423.388,129.983,421.986,128.812,420.583Zm258.538-.635c1.435-1.084,2.879-2.213,4.289-3.353l.861,1.064c-1.423,1.151-2.878,2.288-4.326,3.381Zm155.012-.484c.839-1.621,1.668-3.264,2.468-4.884l1.227.605c-.8,1.628-1.637,3.279-2.481,4.909ZM181.352,416.2l.873-1.053c1.392,1.156,2.821,2.305,4.251,3.416l-.839,1.081C184.195,418.521,182.753,417.362,181.352,416.2ZM29.13,414.27l1.23-.6c.791,1.62,1.612,3.257,2.438,4.868l-1.217.625C30.751,417.543,29.926,415.9,29.13,414.27Zm44.926-1.618,1.182-.691c.915,1.566,1.856,3.137,2.8,4.672l-1.165.717C75.924,415.806,74.977,414.227,74.057,412.652Zm374.932,3.107c1.13-1.425,2.254-2.878,3.336-4.319l1.094.822c-1.091,1.452-2.221,2.915-3.359,4.349Zm-326.983-3.78,1.1-.821c1.083,1.446,2.2,2.9,3.323,4.318l-1.073.849C124.221,414.9,123.1,413.435,122.005,411.979Zm376.432,3.28c.937-1.547,1.873-3.131,2.781-4.708l1.185.683c-.913,1.586-1.854,3.179-2.8,4.734ZM282.32,414.127l.059-1.367c2.268.1,4.565.131,6.821.109l.013,1.369q-.7.007-1.394.007C286,414.245,284.146,414.205,282.32,414.127Zm113.5-1.025c1.36-1.175,2.727-2.4,4.064-3.628l.928,1.007c-1.346,1.243-2.725,2.473-4.1,3.658Zm-101.18-.41c1.806-.1,3.632-.234,5.426-.409l.132,1.362c-1.813.177-3.659.316-5.485.415Zm-23.276.489.176-1.356c1.793.233,3.612.43,5.41.585l-.118,1.363C275.015,413.617,273.174,413.419,271.363,413.182Zm34.1-1.544c1.8-.254,3.6-.549,5.369-.879l.25,1.347c-1.787.332-3.613.631-5.428.888ZM173.132,408.9l.943-.993c1.319,1.251,2.67,2.492,4.015,3.686l-.909,1.024C175.825,411.408,174.463,410.157,173.132,408.9Zm87.394,2.391.294-1.337c1.758.387,3.554.742,5.339,1.055l-.236,1.348C264.12,412.038,262.3,411.678,260.527,411.287Zm55.636-1.639c1.769-.412,3.544-.865,5.273-1.347l.367,1.318c-1.749.488-3.542.946-5.33,1.361Zm231.042,0c.775-1.648,1.542-3.323,2.28-4.978l1.249.559c-.741,1.662-1.512,3.345-2.291,5ZM249.9,408.45l.41-1.306c1.722.541,3.481,1.053,5.226,1.519l-.353,1.322C253.416,409.515,251.638,409,249.9,408.45ZM24.515,404.356l1.251-.555c.734,1.658,1.492,3.325,2.25,4.956l-1.24.577C26.012,407.7,25.252,406.022,24.515,404.356Zm302.129,2.369c1.717-.562,3.444-1.168,5.134-1.8l.481,1.281c-1.707.642-3.455,1.256-5.191,1.824Zm-257.9-3.647,1.211-.638c.836,1.588,1.707,3.2,2.59,4.789l-1.2.664C70.459,406.3,69.583,404.676,68.742,403.078Zm386.806,3.954c1.055-1.483,2.1-2.994,3.1-4.492l1.136.764c-1.013,1.507-2.064,3.028-3.126,4.521Zm-339.884-4,1.137-.762c1,1.5,2.044,3.01,3.09,4.485l-1.116.792C117.723,406.059,116.676,404.54,115.665,403.03Zm288.162,2.683c1.281-1.261,2.566-2.57,3.818-3.887l.991.942c-1.263,1.329-2.557,2.648-3.85,3.921Zm-164.294-1.03.524-1.264c1.665.689,3.377,1.354,5.084,1.976l-.468,1.286C242.947,406.053,241.217,405.38,239.533,404.683Zm264.36,1.1c.868-1.589,1.732-3.213,2.569-4.829l1.214.63c-.841,1.626-1.71,3.259-2.583,4.857Zm-338.479-4.705,1.005-.93c1.234,1.334,2.5,2.66,3.764,3.939l-.974.962C167.935,403.757,166.658,402.421,165.414,401.076Zm171.4,1.823c1.656-.707,3.32-1.46,4.946-2.24l.592,1.233c-1.643.789-3.326,1.552-5,2.266Zm-107.269-2.876.632-1.213c1.595.831,3.24,1.643,4.89,2.414l-.579,1.24C232.821,401.684,231.158,400.864,229.546,400.023Zm322.123-.372c.711-1.677,1.414-3.381,2.09-5.063l1.269.509c-.678,1.69-1.384,3.4-2.1,5.088ZM346.6,398.2c1.593-.852,3.186-1.749,4.736-2.666l.7,1.178c-1.566.927-3.176,1.833-4.787,2.694ZM20.282,394.277l1.271-.506c.671,1.685,1.363,3.379,2.058,5.036l-1.262.53C21.651,397.672,20.955,395.97,20.282,394.277Zm391.053,3.535c1.2-1.345,2.394-2.734,3.557-4.131l1.052.875c-1.173,1.409-2.38,2.811-3.586,4.167Zm50.3.155c.972-1.532,1.935-3.1,2.864-4.652l1.175.7c-.935,1.565-1.906,3.14-2.884,4.683Zm-351.83-4.2,1.175-.7c.922,1.548,1.881,3.109,2.848,4.641l-1.157.731C111.7,396.892,110.735,395.32,109.808,393.762Zm-45.949-.48L65.1,392.7c.764,1.623,1.564,3.27,2.374,4.9l-1.224.611C65.431,396.571,64.627,394.915,63.859,393.282Zm156.149,1.227.736-1.154c1.523.972,3.09,1.924,4.657,2.829l-.685,1.186C223.132,396.455,221.548,395.492,220.008,394.509Zm-61.781-1.739,1.063-.862c1.137,1.405,2.314,2.811,3.5,4.178l-1.034.9C160.56,395.6,159.374,394.186,158.227,392.77Zm350.695,3.3c.8-1.638,1.594-3.3,2.352-4.941l1.242.575c-.763,1.65-1.559,3.322-2.364,4.968Zm-152.965-3.4c1.512-.986,3.022-2.018,4.489-3.068l.8,1.113c-1.483,1.062-3.01,2.105-4.538,3.1Zm-144.963-4.48.833-1.085c1.434,1.1,2.911,2.184,4.392,3.222l-.786,1.121C213.936,390.4,212.441,389.3,210.993,388.19Zm207.319,1.241c1.1-1.416,2.207-2.882,3.281-4.357l1.106.8c-1.082,1.488-2.195,2.966-3.307,4.394Zm137.437.051c.647-1.709,1.285-3.439,1.894-5.143l1.288.461c-.611,1.711-1.251,3.449-1.9,5.168Zm-88.507-.894c.893-1.589,1.772-3.2,2.613-4.8l1.211.639c-.847,1.607-1.732,3.233-2.631,4.832ZM16.424,384l1.29-.457c.6,1.7,1.231,3.427,1.871,5.131l-1.282.481C17.66,387.446,17.028,385.712,16.424,384Zm88.028.2,1.211-.638c.845,1.606,1.719,3.216,2.6,4.783l-1.193.67C106.182,387.44,105.3,385.819,104.452,384.2Zm47.15-.187,1.117-.79c1.043,1.477,2.125,2.955,3.214,4.4l-1.091.826C153.744,387,152.653,385.5,151.6,384.015Zm-92.182-.731,1.262-.528c.695,1.663,1.419,3.343,2.153,4.994l-1.251.557C60.846,386.647,60.118,384.958,59.419,383.285ZM364.8,386.34c1.419-1.112,2.835-2.271,4.208-3.447l.89,1.04c-1.389,1.188-2.82,2.361-4.255,3.484Zm148.718-.206c.732-1.685,1.45-3.382,2.129-5.044l1.267.519c-.684,1.67-1.4,3.377-2.141,5.071Zm-310.954-5.017.923-1.01c1.332,1.22,2.71,2.428,4.094,3.59l-.879,1.048C205.3,383.571,203.909,382.35,202.562,381.117Zm222.167-.506c1.022-1.508,2.026-3.045,2.988-4.567l1.157.731c-.97,1.535-1.982,3.084-3.011,4.6Zm-51.667-1.343c1.325-1.238,2.635-2.518,3.9-3.8l.977.958c-1.274,1.3-2.6,2.591-3.938,3.843Zm186.375-.105c.576-1.712,1.146-3.466,1.695-5.214l1.305.41c-.552,1.757-1.125,3.519-1.7,5.241Zm-87.092-.243c.8-1.625,1.595-3.285,2.355-4.934l1.242.574c-.766,1.659-1.563,3.331-2.372,4.967Zm-326.775-4.07,1.167-.715c.939,1.534,1.921,3.08,2.917,4.594l-1.142.753C147.5,377.954,146.515,376.4,145.568,374.849Zm-45.954-.472,1.242-.572c.751,1.634,1.538,3.286,2.338,4.911l-1.229.6C101.162,377.685,100.37,376.021,99.615,374.378ZM12.96,373.59l1.307-.406c.535,1.722,1.1,3.471,1.672,5.2l-1.3.432C14.064,377.079,13.5,375.32,12.96,373.59Zm42.461-.508,1.285-.47c.623,1.7,1.275,3.42,1.934,5.1l-1.273.5C56.7,376.522,56.049,374.795,55.421,373.082Zm139.356.261,1.008-.927c1.219,1.328,2.486,2.65,3.767,3.928l-.967.969C197.291,376.021,196.009,374.685,194.777,373.343ZM517.662,376c.648-1.692,1.289-3.419,1.9-5.135l1.289.461c-.618,1.726-1.261,3.463-1.914,5.165Zm-235.353-2.323.087-1.366c1.794.114,3.619.171,5.423.171v1.369C285.986,373.851,284.133,373.793,282.309,373.677Zm10.311-1.329c1.8-.1,3.618-.261,5.406-.475l.163,1.359c-1.816.218-3.663.381-5.492.482Zm-21.245-.069.26-1.343c1.77.343,3.573.633,5.358.86l-.174,1.358C275.006,372.922,273.174,372.627,271.375,372.279Zm109.31-.779c1.2-1.338,2.4-2.725,3.554-4.125l1.056.871c-1.167,1.415-2.376,2.817-3.593,4.169Zm-77.3-.448c1.769-.329,3.551-.721,5.3-1.164l.337,1.325c-1.776.453-3.588.851-5.386,1.185Zm127.162.329c.913-1.558,1.816-3.159,2.681-4.756l1.2.652c-.873,1.611-1.782,3.224-2.7,4.8Zm-169.84-1.893.432-1.3c1.708.567,3.459,1.087,5.2,1.543L266,371.056C264.227,370.591,262.447,370.063,260.711,369.487ZM140.153,365.31l1.212-.637c.842,1.6,1.719,3.209,2.607,4.774l-1.189.676C141.885,368.545,141,366.925,140.153,365.31ZM313.9,368.382c1.71-.554,3.429-1.173,5.1-1.839l.5,1.272c-1.7.678-3.45,1.306-5.189,1.869Zm163.019.606c.715-1.663,1.417-3.363,2.091-5.055l1.271.506c-.677,1.7-1.385,3.416-2.1,5.089ZM95.3,364.314l1.273-.506c.66,1.668,1.358,3.358,2.072,5.025l-1.257.539C96.673,367.694,95.971,365.993,95.3,364.314Zm92.393.614,1.083-.835c1.1,1.425,2.245,2.851,3.412,4.238l-1.048.88C189.966,367.809,188.807,366.369,187.7,364.928Zm375.02,3.795c.517-1.763,1.016-3.53,1.486-5.255l1.32.36c-.473,1.734-.975,3.51-1.494,5.28ZM9.9,363.051l1.322-.356c.471,1.749.967,3.518,1.471,5.259l-1.313.381C10.874,366.586,10.376,364.808,9.9,363.051Zm41.973-.359,1.3-.414c.552,1.741,1.126,3.485,1.705,5.186l-1.294.442C53.007,366.2,52.43,364.444,51.875,362.692Zm198.606,2.641.594-1.233c1.625.785,3.3,1.527,4.968,2.206l-.515,1.268C253.828,366.885,252.13,366.131,250.481,365.333Zm270.87.353c.571-1.715,1.133-3.47,1.671-5.219l1.308.4c-.542,1.757-1.108,3.524-1.681,5.247Zm-197.374-1.306c1.626-.77,3.248-1.6,4.821-2.478l.665,1.2c-1.6.888-3.248,1.736-4.9,2.519Zm63.636-1.28c1.087-1.441,2.159-2.928,3.185-4.419l1.128.776c-1.038,1.508-2.122,3.011-3.221,4.468Zm-146.737-3.2.749-1.146c1.509.986,3.07,1.937,4.639,2.825l-.673,1.191C244,361.869,242.409,360.9,240.875,359.9Zm194.88,1.881c.809-1.617,1.6-3.273,2.361-4.924l1.245.571c-.766,1.665-1.567,3.337-2.382,4.966Zm-254.379-5.847,1.152-.738c.976,1.527,2,3.045,3.03,4.516l-1.119.787C183.394,359.014,182.363,357.478,181.376,355.935Zm-46-.493,1.251-.554c.73,1.645,1.5,3.3,2.285,4.932l-1.232.6C136.891,358.774,136.116,357.1,135.38,355.441Zm198.071,3.677c1.514-.972,3.018-2.007,4.467-3.076l.812,1.1c-1.473,1.087-3,2.139-4.54,3.128Zm147.514-.3c.629-1.715,1.24-3.452,1.817-5.163l1.3.437c-.58,1.723-1.2,3.471-1.828,5.2ZM91.527,354l1.3-.437c.579,1.721,1.187,3.452,1.807,5.147l-1.284.47C92.722,357.477,92.11,355.733,91.527,354Zm474.064,4.185c.442-1.755.874-3.541,1.284-5.308l1.333.309c-.411,1.776-.845,3.57-1.29,5.334ZM7.25,352.4l1.333-.305c.4,1.761.831,3.549,1.27,5.31l-1.329.332C8.085,355.97,7.656,354.174,7.25,352.4Zm41.548-.247,1.321-.355c.472,1.76.968,3.529,1.472,5.257l-1.313.383C49.771,355.705,49.273,353.927,48.8,352.157Zm183.25,1.13.889-1.041c1.369,1.169,2.8,2.311,4.24,3.394l-.82,1.095C234.889,355.635,233.44,354.475,232.048,353.287Zm292.522,1.945c.493-1.738.974-3.509,1.43-5.266l1.325.344c-.459,1.768-.943,3.55-1.439,5.3Zm-130.784-1.106c.963-1.539,1.9-3.115,2.79-4.683l1.19.675c-.9,1.585-1.847,3.177-2.821,4.733Zm-51.6-1.442c1.375-1.156,2.735-2.375,4.041-3.623l.945.989c-1.326,1.269-2.708,2.507-4.106,3.682Zm98.131-.832c.7-1.663,1.382-3.37,2.03-5.073l1.279.488c-.654,1.717-1.343,3.438-2.047,5.117Zm-264.452-5.42,1.212-.635c.838,1.6,1.721,3.2,2.625,4.759l-1.183.687C177.6,349.669,176.707,348.051,175.861,346.433Zm-44.593-1.166,1.285-.47c.623,1.7,1.282,3.411,1.959,5.086l-1.268.514C132.56,348.707,131.9,346.981,131.268,345.267Zm92.872.338,1.014-.92c1.206,1.332,2.475,2.646,3.771,3.906l-.954.982C226.655,348.292,225.366,346.957,224.14,345.6Zm260.321,2.843c.53-1.725,1.046-3.485,1.533-5.235l1.318.367c-.49,1.76-1.01,3.533-1.543,5.27ZM88.3,343.5l1.319-.366c.485,1.746,1,3.508,1.529,5.235l-1.308.4C89.311,347.033,88.793,345.26,88.3,343.5Zm479.751,4.045c.376-1.773.738-3.574,1.08-5.353l1.344.258c-.343,1.788-.708,3.6-1.085,5.379ZM5.008,341.662l1.344-.254c.34,1.8.7,3.6,1.065,5.356l-1.339.279C5.709,345.278,5.35,343.467,5.008,341.662Zm41.187-.17,1.336-.3c.39,1.769.805,3.558,1.235,5.317l-1.329.325C47.005,345.07,46.588,343.271,46.2,341.493Zm303.831,3.7c1.225-1.332,2.419-2.715,3.548-4.111l1.064.861c-1.147,1.418-2.36,2.823-3.606,4.175Zm49.134-.544c.822-1.61,1.62-3.261,2.371-4.91l1.245.568c-.76,1.668-1.567,3.337-2.4,4.965Zm128.154.024c.417-1.77.82-3.562,1.195-5.327l1.339.285c-.377,1.775-.781,3.577-1.2,5.356ZM444.2,341.64c.593-1.725,1.161-3.474,1.691-5.2l1.308.4c-.534,1.741-1.107,3.505-1.7,5.245ZM171.2,336.494l1.263-.526c.7,1.671,1.436,3.342,2.2,4.964l-1.239.582C172.652,339.873,171.9,338.184,171.2,336.494Zm46.076.486,1.123-.781c1.027,1.474,2.117,2.938,3.241,4.35l-1.07.853C219.427,339.965,218.318,338.479,217.275,336.979Zm-89.444-2.153,1.313-.385c.506,1.729,1.049,3.479,1.618,5.205l-1.3.428C128.89,338.336,128.34,336.57,127.831,334.827Zm359.555,3.11c.436-1.749.857-3.535,1.251-5.311l1.336.3c-.4,1.788-.82,3.586-1.26,5.346ZM85.648,332.846l1.336-.3c.395,1.783.815,3.569,1.249,5.311l-1.328.331C86.469,336.438,86.045,334.64,85.648,332.846Zm271.205,3.9c1.044-1.474,2.052-3,3-4.531l1.164.718c-.959,1.557-1.983,3.107-3.044,4.6Zm213.259.072c.305-1.772.6-3.586.874-5.39l1.352.206c-.276,1.813-.572,3.637-.878,5.417ZM3.178,330.842l1.355-.2c.266,1.783.555,3.6.859,5.392l-1.35.229C3.738,334.457,3.447,332.635,3.178,330.842Zm40.891-.119,1.348-.236c.312,1.787.648,3.593,1,5.367l-1.343.265C44.719,334.334,44.383,332.52,44.069,330.722Zm359.616,4c.679-1.68,1.329-3.4,1.933-5.1l1.29.457c-.61,1.725-1.268,3.46-1.954,5.159Zm125.9-.734c.334-1.767.657-3.575.956-5.375l1.35.224c-.3,1.81-.625,3.628-.962,5.406Zm-242.448-.536.02-1.369a44.669,44.669,0,0,0,5.38-.243l.144,1.36a46.172,46.172,0,0,1-4.861.257Q287.477,333.458,287.136,333.453Zm-10.98-1.5.35-1.323a43.871,43.871,0,0,0,5.28,1.053l-.186,1.357A45.26,45.26,0,0,1,276.156,331.95Zm-64.587-4.4,1.212-.633c.833,1.6,1.728,3.188,2.659,4.727l-1.17.709C213.323,330.794,212.415,329.178,211.569,327.555Zm86.276,3.392a43.973,43.973,0,0,0,5.161-1.538l.47,1.286a45.454,45.454,0,0,1-5.321,1.585Zm149.56.254c.47-1.738.921-3.516,1.335-5.283l1.332.313c-.419,1.783-.872,3.575-1.346,5.328Zm-279.986-5.025,1.3-.414c.548,1.726,1.141,3.46,1.76,5.151l-1.285.47C168.572,329.673,167.973,327.921,167.419,326.176Zm98.444,1.648.66-1.2a44.089,44.089,0,0,0,4.869,2.309l-.509,1.269A45.034,45.034,0,0,1,265.863,327.824ZM125.1,324.181l1.336-.3c.388,1.758.817,3.542,1.268,5.3l-1.326.341C125.92,327.752,125.49,325.953,125.1,324.181Zm182.842,3.069a44.167,44.167,0,0,0,4.631-2.745l.769,1.134a45.533,45.533,0,0,1-4.775,2.829Zm54.609.254c.846-1.6,1.651-3.238,2.391-4.881l1.247.563c-.752,1.668-1.57,3.337-2.43,4.959Zm127.2-.217c.344-1.774.669-3.58.967-5.37l1.349.225c-.3,1.8-.626,3.62-.974,5.4ZM83.562,322.062l1.35-.225c.3,1.783.62,3.589.964,5.37l-1.343.259C84.187,325.673,83.86,323.855,83.562,322.062Zm488.194,3.962c.239-1.791.463-3.615.668-5.42l1.359.155c-.206,1.814-.431,3.645-.671,5.446ZM1.763,319.96l1.36-.151c.2,1.828.423,3.653.653,5.422l-1.356.177C2.187,323.63,1.967,321.8,1.763,319.96Zm40.661-.092,1.358-.175c.233,1.81.489,3.63.757,5.406l-1.352.2C42.916,323.518,42.66,321.69,42.424,319.868Zm214.454,1.461.93-1a44.535,44.535,0,0,0,4.166,3.415l-.8,1.109A45.973,45.973,0,0,1,256.878,321.329Zm150.448,3.106c.528-1.73,1.024-3.493,1.473-5.238l1.325.341c-.455,1.766-.956,3.549-1.49,5.3Zm124.048-1.214c.256-1.778.5-3.6.716-5.412l1.359.164c-.221,1.823-.464,3.653-.721,5.442ZM207.123,317.48l1.284-.47c.62,1.689,1.3,3.38,2.029,5.025l-1.252.554C208.445,320.915,207.752,319.2,207.123,317.48Zm109.711,3.737a44.66,44.66,0,0,0,3.838-3.78l1.016.916a46.1,46.1,0,0,1-3.954,3.9Zm-152.28-5.665,1.335-.3c.4,1.771.833,3.549,1.3,5.285l-1.321.357C165.4,319.14,164.954,317.342,164.554,315.553ZM449.9,320.59c.353-1.762.685-3.566.983-5.361l1.349.224c-.3,1.811-.634,3.63-.99,5.407Zm-326.826-7.21,1.352-.208c.275,1.794.583,3.6.915,5.373l-1.346.251C123.661,317.011,123.352,315.188,123.074,313.381ZM367.012,317.6c.632-1.687,1.218-3.42,1.742-5.151l1.31.4c-.531,1.758-1.127,3.519-1.771,5.235ZM249.72,312.865l1.144-.752a44.526,44.526,0,0,0,3.223,4.316l-1.045.884A45.925,45.925,0,0,1,249.72,312.865Zm241.816,3.658c.249-1.8.478-3.618.679-5.414l1.36.153c-.2,1.808-.434,3.641-.685,5.449ZM82.054,311.184l1.361-.152c.2,1.813.43,3.634.677,5.413l-1.355.188C82.489,314.842,82.259,313.009,82.054,311.184Zm490.936,3.988c.171-1.814.327-3.645.461-5.442l1.364.1c-.136,1.805-.292,3.645-.463,5.468ZM.763,309.032l1.364-.1c.133,1.822.283,3.654.447,5.443l-1.363.125C1.046,312.7.9,310.862.763,309.032Zm40.5-.078,1.363-.115c.153,1.809.327,3.637.517,5.434l-1.36.145C41.59,312.611,41.416,310.773,41.262,308.954ZM410.042,313.9c.374-1.769.713-3.569,1.009-5.348l1.35.225c-.3,1.8-.642,3.619-1.02,5.407Zm-86.017-.679a44.082,44.082,0,0,0,2.815-4.593l1.209.643a45.68,45.68,0,0,1-2.9,4.737Zm208.664-.836c.175-1.788.336-3.617.476-5.437l1.364.1c-.14,1.83-.3,3.67-.479,5.468ZM204.008,306.9l1.335-.3c.4,1.761.857,3.528,1.364,5.254l-1.312.386C204.878,310.488,204.412,308.692,204.008,306.9Zm-41.379-2.186,1.356-.18c.24,1.8.52,3.608.836,5.378l-1.347.24C163.155,308.366,162.871,306.538,162.629,304.718Zm289.059,5.12c.237-1.786.447-3.609.627-5.414l1.361.135c-.181,1.821-.393,3.658-.632,5.46Zm-206.871-6.91,1.293-.452a43.974,43.974,0,0,0,2.083,4.967l-1.227.605A45.517,45.517,0,0,1,244.816,302.928Zm-123.049-.46,1.363-.118c.156,1.809.345,3.634.559,5.421l-1.358.164C122.114,306.131,121.925,304.291,121.767,302.468Zm248.39,4.736c.408-1.752.766-3.544,1.062-5.323l1.35.224c-.3,1.809-.665,3.63-1.08,5.41Zm122.593-1.523c.153-1.789.286-3.62.394-5.44l1.366.081c-.108,1.833-.242,3.676-.4,5.477ZM81.122,300.242l1.366-.08c.106,1.811.238,3.643.391,5.441l-1.363.116C81.362,303.909,81.229,302.066,81.122,300.242ZM573.81,304.28c.1-1.805.187-3.64.256-5.454l1.367.051c-.068,1.824-.155,3.667-.257,5.481Zm-244.736-.558a44.036,44.036,0,0,0,1.617-5.142l1.328.33a45.415,45.415,0,0,1-1.667,5.3ZM.176,298.073l1.367-.048c.063,1.827.144,3.663.241,5.457l-1.367.074C.321,301.752.24,299.909.176,298.073ZM40.583,298l1.367-.055c.073,1.825.167,3.659.278,5.453l-1.366.086C40.75,301.675,40.656,299.831,40.583,298Zm371.244,5.167c.217-1.792.4-3.614.54-5.417l1.364.107c-.142,1.822-.326,3.664-.545,5.475ZM533.519,301.5c.1-1.813.179-3.648.238-5.452l1.366.044c-.058,1.815-.139,3.661-.239,5.484Zm-331.241-5.484,1.363-.127c.167,1.8.4,3.607.678,5.384l-1.352.215C202.68,299.68,202.449,297.838,202.279,296.013Zm-40.626-2.253,1.367-.063c.082,1.8.206,3.631.366,5.432l-1.363.122C161.861,297.43,161.736,295.583,161.653,293.761Zm291.109,5.231c.119-1.8.21-3.636.271-5.444l1.368.045c-.06,1.824-.153,3.67-.273,5.488Zm-210.291-6.9,1.363-.124a44.192,44.192,0,0,0,.814,5.325l-1.338.289A45.6,45.6,0,0,1,242.471,292.09Zm-121.293-.6,1.369-.028c.038,1.809.105,3.641.2,5.448l-1.367.073C121.285,295.164,121.217,293.315,121.178,291.492ZM371.938,296.5c.181-1.79.305-3.612.372-5.415l1.367.051c-.067,1.831-.195,3.682-.378,5.5ZM493.4,294.79c.059-1.8.1-3.632.108-5.455l1.368.01c-.013,1.836-.049,3.683-.109,5.491Zm-412.63-5.524,1.368-.009c.012,1.824.049,3.658.106,5.453l-1.367.044C80.814,292.949,80.777,291.1,80.765,289.267Zm250.9,4.017a44.6,44.6,0,0,0,.324-5.378h1.368a46.244,46.244,0,0,1-.333,5.542Zm242.555.083c.034-1.82.051-3.656.051-5.461h1.369c0,1.813-.017,3.659-.052,5.487ZM0,287.907v-.795H1.37v.793q0,2.339.037,4.669L.037,292.6Q0,290.256,0,287.907Zm40.38,0v-.874l1.368,0v.871q0,2.3.042,4.588l-1.369.026Q40.38,290.219,40.38,287.907Zm372.292,4.4c.049-1.454.075-2.936.075-4.4q0-.521,0-1.04l1.368-.01c0,.35,0,.7,0,1.051,0,1.483-.026,2.981-.077,4.451Zm121.2-1.724q.014-1.339.015-2.68,0-1.391-.016-2.781l1.369-.014q.014,1.4.015,2.795,0,1.348-.014,2.7ZM201.9,287.907c0-.972.016-1.953.049-2.916l1.367.045c-.031.949-.048,1.914-.048,2.871q0,1.285.038,2.561l-1.368.04Q201.9,289.212,201.9,287.907Zm-40.38.349v-.346c0-1.721.034-3.454.1-5.153l1.367.055c-.068,1.682-.1,3.395-.1,5.093v.351Zm291.606-.159v-.192c0-1.752-.028-3.521-.081-5.261l1.367-.042c.055,1.752.082,3.536.082,5.3v.192ZM242.3,286.54a46.08,46.08,0,0,1,.5-5.53l1.352.206a44.363,44.363,0,0,0-.483,5.364ZM121.151,286c.021-1.823.071-3.67.15-5.492l1.367.059c-.078,1.807-.128,3.64-.149,5.449Zm250.874-5.76,1.363-.123c.164,1.824.271,3.678.319,5.507l-1.368.035C372.292,283.855,372.186,282.031,372.025,280.236Zm-40.775-.417,1.346-.249a45.806,45.806,0,0,1,.674,5.512l-1.366.084A44.41,44.41,0,0,0,331.249,279.819Zm242.87-1.266,1.367-.043c.058,1.813.1,3.656.125,5.478l-1.369.018C574.219,282.192,574.177,280.358,574.119,278.553Zm-80.825-.128,1.366-.062c.083,1.816.142,3.662.178,5.49l-1.369.027C493.435,282.063,493.375,280.229,493.294,278.425ZM80.8,283.776c.036-1.836.1-3.683.18-5.49l1.367.063c-.082,1.8-.142,3.63-.178,5.453ZM.068,281.624c.04-1.836.1-3.681.169-5.485l1.367.055c-.071,1.8-.128,3.633-.168,5.46Zm40.393-.082c.046-1.814.113-3.66.2-5.485l1.366.064c-.085,1.816-.152,3.651-.2,5.456ZM412.188,276l1.362-.128c.172,1.809.307,3.655.4,5.488l-1.367.07C412.49,279.613,412.357,277.787,412.188,276Zm121.327-1.775,1.366-.074c.1,1.825.181,3.67.24,5.485l-1.367.045C533.695,277.871,533.614,276.037,533.515,274.222Zm-331.206,5.266c.177-1.823.415-3.664.709-5.469l1.351.219c-.289,1.777-.523,3.588-.7,5.383Zm-40.346-2.221c.151-1.822.345-3.664.575-5.472l1.357.172c-.228,1.789-.419,3.61-.57,5.413Zm290.388-5.5,1.361-.133c.176,1.816.324,3.659.441,5.478l-1.366.087C452.672,275.395,452.524,273.566,452.351,271.767ZM243.968,275.58a45.508,45.508,0,0,1,1.827-5.247l1.262.528a43.994,43.994,0,0,0-1.771,5.09Zm-122.337-.563c.138-1.811.309-3.651.508-5.471l1.36.148c-.2,1.806-.366,3.631-.5,5.428Zm248.732-5.5,1.336-.3c.4,1.8.74,3.619,1.019,5.422l-1.352.209C371.092,273.072,370.754,271.278,370.363,269.513Zm-42.349.052,1.244-.568a45.391,45.391,0,0,1,1.993,5.183l-1.3.412A44.573,44.573,0,0,0,328.014,269.566Zm245.55-1.92,1.365-.094c.127,1.825.238,3.667.331,5.477l-1.367.069C573.8,271.3,573.69,269.462,573.564,267.645Zm-81.051-.1,1.362-.133c.177,1.8.334,3.642.465,5.471l-1.364.1C492.843,271.161,492.689,269.332,492.513,267.543ZM81.3,272.806c.131-1.822.287-3.662.466-5.471l1.361.133c-.177,1.8-.332,3.628-.464,5.437ZM.509,270.66c.106-1.811.233-3.653.375-5.475l1.364.107c-.141,1.813-.268,3.647-.374,5.448Zm40.468-.082c.127-1.829.276-3.67.439-5.471l1.363.125c-.164,1.791-.311,3.622-.437,5.442Zm369.717-5.362,1.346-.247c.329,1.794.623,3.621.873,5.432l-1.355.189C411.308,268.8,411.018,266.991,410.693,265.217ZM204.077,268.6c.41-1.788.883-3.583,1.408-5.334l1.31.391c-.515,1.723-.981,3.489-1.384,5.248Zm328.6-5.267,1.362-.136c.178,1.8.34,3.637.481,5.468l-1.365.105C533.016,266.954,532.855,265.125,532.678,263.337Zm-369.325,3.014c.309-1.8.663-3.614,1.05-5.4l1.338.29c-.384,1.768-.734,3.566-1.039,5.343Zm287.592-5.392,1.35-.222c.294,1.792.563,3.622.8,5.437l-1.356.176C451.5,264.551,451.235,262.736,450.944,260.959ZM248.25,265.347a45.616,45.616,0,0,1,3.043-4.646l1.1.818a44.342,44.342,0,0,0-2.953,4.508Zm74.141-4.94,1.07-.853a46.108,46.108,0,0,1,3.188,4.545l-1.167.717A44.564,44.564,0,0,0,322.391,260.407Zm-199.563,3.686c.259-1.811.551-3.637.867-5.427l1.347.238c-.314,1.775-.6,3.586-.86,5.382Zm244.506-5,1.287-.467c.622,1.718,1.2,3.482,1.71,5.244l-1.313.383C368.513,262.52,367.948,260.784,367.335,259.095ZM572.6,256.767l1.36-.147c.2,1.829.379,3.666.537,5.46l-1.363.121C572.975,260.416,572.795,258.587,572.6,256.767Zm-81.436-.049,1.352-.206c.274,1.806.528,3.636.753,5.44l-1.357.17C491.685,260.329,491.432,258.512,491.161,256.718ZM82.38,261.878c.226-1.8.48-3.634.755-5.44l1.352.206c-.273,1.794-.526,3.611-.75,5.4Zm325.884-7.269,1.319-.363c.483,1.755.937,3.55,1.346,5.336l-1.333.306C409.191,258.119,408.743,256.344,408.264,254.608ZM1.362,259.72c.176-1.815.373-3.651.583-5.456l1.358.158c-.209,1.8-.4,3.624-.58,5.431Zm40.614-.074c.208-1.831.437-3.665.681-5.446l1.356.186c-.242,1.771-.47,3.594-.678,5.416Zm165.257-1.608c.639-1.722,1.34-3.443,2.086-5.115l1.248.557c-.733,1.645-1.425,3.339-2.052,5.034ZM531.362,252.5l1.354-.2c.258,1.791.5,3.621.722,5.441l-1.357.165C531.859,256.1,531.619,254.281,531.362,252.5Zm-276.486,3.959a46.013,46.013,0,0,1,4.069-3.777l.869,1.057a44.79,44.79,0,0,0-3.948,3.665Zm59.848-3.595.834-1.086a45.9,45.9,0,0,1,4.187,3.648l-.96.976A44.322,44.322,0,0,0,314.724,252.865ZM165.688,255.6c.468-1.774.979-3.553,1.52-5.289l1.307.408c-.535,1.717-1.041,3.477-1.5,5.23Zm283.139-5.333,1.332-.311c.413,1.777.8,3.586,1.156,5.373l-1.342.266C449.622,253.822,449.237,252.029,448.827,250.267ZM363,249.166l1.216-.628c.84,1.626,1.636,3.3,2.368,4.975l-1.254.548C364.606,252.413,363.823,250.766,363,249.166Zm-238.253,4.1c.375-1.775.787-3.578,1.225-5.357l1.328.327c-.434,1.766-.842,3.553-1.214,5.314Zm446.476-7.336,1.354-.2c.263,1.8.514,3.626.745,5.435l-1.358.174C571.729,249.542,571.48,247.722,571.218,245.934Zm-81.984.044,1.341-.276c.368,1.78.717,3.593,1.041,5.393l-1.347.243C489.949,249.549,489.6,247.746,489.234,245.978Zm-405.2,5.042c.323-1.794.673-3.609,1.043-5.393l1.341.278c-.368,1.773-.716,3.575-1.036,5.358Zm179.405-1.594a45.456,45.456,0,0,1,4.858-2.685l.587,1.236a44.371,44.371,0,0,0-4.711,2.6Zm42.027-2.033.548-1.255a45.389,45.389,0,0,1,4.945,2.53l-.7,1.178A44.029,44.029,0,0,0,305.467,247.393Zm99.448-3.139,1.281-.478c.64,1.713,1.248,3.462,1.809,5.2l-1.3.422C406.149,247.677,405.547,245.948,404.915,244.254ZM2.631,248.819c.246-1.809.511-3.636.789-5.43l1.352.21c-.277,1.785-.542,3.6-.785,5.4Zm40.826-.049c.287-1.808.6-3.628.921-5.411l1.345.244c-.321,1.774-.629,3.584-.915,5.382Zm168.273-.815c.853-1.623,1.769-3.239,2.724-4.8l1.168.714c-.94,1.538-1.842,3.128-2.682,4.725Zm317.836-6.222,1.344-.256c.339,1.787.663,3.606.963,5.4l-1.35.225C530.225,245.318,529.9,243.51,529.566,241.733Zm-256.118,2.936a45.3,45.3,0,0,1,5.367-1.424l.269,1.342a43.731,43.731,0,0,0-5.2,1.381Zm21.712-.338.226-1.351a45.164,45.164,0,0,1,5.411,1.25l-.391,1.313A43.725,43.725,0,0,0,295.16,244.332Zm-126.2.747c.621-1.725,1.287-3.457,1.982-5.148l1.265.52c-.687,1.672-1.346,3.385-1.961,5.091Zm277.042-5.341,1.31-.4c.531,1.751,1.04,3.529,1.51,5.284l-1.322.355C447.037,243.237,446.532,241.474,446.005,239.738Zm-88.59.131,1.125-.778c1.045,1.512,2.05,3.07,2.988,4.633l-1.174.7C359.433,242.891,358.444,241.357,357.416,239.869Zm-73.1,2.619a46.264,46.264,0,0,1,5.55-.088l-.062,1.367a44.963,44.963,0,0,0-5.384.085Zm-156.948.109c.494-1.752,1.025-3.524,1.578-5.264l1.3.414c-.549,1.726-1.075,3.483-1.565,5.221Zm359.373-7.238,1.323-.349c.462,1.759.91,3.552,1.327,5.33l-1.332.313C487.644,238.887,487.2,237.105,486.741,235.359ZM86.265,240.265c.418-1.776.867-3.569,1.329-5.328l1.324.349c-.461,1.749-.9,3.529-1.321,5.294Zm483.161-5.105,1.346-.251c.334,1.8.654,3.615.952,5.4l-1.35.225C570.077,238.756,569.759,236.947,569.425,235.16Zm-351.944,3.377c1.054-1.5,2.17-2.983,3.315-4.411l1.067.857c-1.128,1.405-2.226,2.865-3.263,4.342Zm183.2-4.281,1.236-.588c.782,1.642,1.539,3.327,2.251,5.008l-1.26.533C402.2,237.548,401.455,235.881,400.682,234.256ZM45.419,237.969c.363-1.776.754-3.58,1.161-5.365l1.333.3c-.4,1.774-.793,3.57-1.154,5.336Zm-41.105.007c.315-1.8.65-3.614,1-5.4l1.343.262c-.346,1.774-.679,3.58-.992,5.37Zm522.979-6.921,1.332-.315c.421,1.787.826,3.589,1.2,5.356l-1.339.285C528.115,234.624,527.713,232.831,527.293,231.054Zm-176.6.3,1.017-.916c1.224,1.362,2.421,2.78,3.555,4.215l-1.073.848C353.074,234.094,351.9,232.7,350.692,231.358Zm-177.54,3.52c.766-1.656,1.583-3.321,2.425-4.951l1.215.63c-.833,1.611-1.64,3.258-2.4,4.9Zm269.339-5.458,1.28-.484c.642,1.7,1.267,3.437,1.858,5.172l-1.295.442C443.747,232.83,443.127,231.1,442.491,229.42ZM130.7,232.106c.615-1.73,1.264-3.467,1.93-5.162l1.273.5c-.66,1.681-1.305,3.4-1.915,5.12Zm93.683-2.169c1.234-1.351,2.531-2.68,3.849-3.951l.948.986c-1.3,1.25-2.572,2.559-3.787,3.889Zm259.295-5.051,1.3-.418c.562,1.747,1.1,3.513,1.61,5.25l-1.314.384C484.778,228.376,484.24,226.622,483.682,224.886ZM89.065,229.645c.508-1.738,1.051-3.505,1.611-5.249l1.3.418c-.557,1.734-1.1,3.489-1.6,5.216Zm478.158-5.182,1.335-.3c.4,1.76.787,3.564,1.158,5.363l-1.341.276C568.008,228.011,567.62,226.215,567.224,224.463Zm-171.633.2,1.18-.694c.923,1.57,1.824,3.184,2.68,4.8l-1.209.641C397.395,227.807,396.5,226.211,395.59,224.659ZM47.861,227.268c.448-1.778.918-3.564,1.4-5.308l1.319.363c-.478,1.735-.946,3.511-1.391,5.279ZM6.409,227.2c.381-1.774.785-3.575,1.2-5.353l1.332.313c-.416,1.769-.819,3.562-1.2,5.328Zm336.525-3.435.893-1.038c1.387,1.194,2.754,2.449,4.064,3.73l-.957.979C345.646,226.179,344.3,224.944,342.934,223.769ZM178.215,225.09c.906-1.58,1.864-3.167,2.846-4.718l1.156.733c-.971,1.534-1.918,3.1-2.815,4.666Zm346.331-4.6,1.316-.374c.5,1.754.982,3.537,1.441,5.3l-1.324.344C525.523,224.008,525.041,222.235,524.546,220.491Zm-86.232-1.1,1.245-.568c.753,1.653,1.49,3.344,2.189,5.024l-1.262.526C439.791,222.7,439.061,221.028,438.314,219.389Zm-205.985,2.9c1.4-1.183,2.851-2.337,4.319-3.428l.816,1.1c-1.445,1.073-2.875,2.208-4.25,3.372Zm-97.595-.439c.723-1.674,1.485-3.364,2.267-5.02l1.237.585c-.775,1.643-1.531,3.318-2.248,4.978Zm199.538-4.624.752-1.143c1.526,1,3.042,2.075,4.508,3.182l-.824,1.093C337.265,219.27,335.772,218.216,334.272,217.227Zm55.408-1.692,1.114-.793c1.058,1.486,2.1,3.016,3.089,4.547l-1.147.745C391.753,218.519,390.725,217.005,389.68,215.535Zm90.387-.943,1.279-.488c.65,1.706,1.286,3.44,1.888,5.157l-1.291.453C481.344,218.009,480.713,216.286,480.067,214.592ZM92.435,219.172c.605-1.719,1.242-3.46,1.9-5.172l1.279.488c-.65,1.7-1.283,3.43-1.884,5.138Zm472.177-5.314,1.322-.353c.465,1.743.923,3.532,1.363,5.316l-1.328.327C565.531,217.373,565.075,215.593,564.612,213.858ZM50.777,216.684c.522-1.742,1.074-3.512,1.642-5.261l1.3.422c-.564,1.739-1.113,3.5-1.632,5.231Zm190.4-.966c1.532-.993,3.119-1.95,4.719-2.846l.668,1.194c-1.574.882-3.136,1.825-4.644,2.8Zm-232.258.8c.453-1.78.927-3.564,1.406-5.3l1.319.363c-.477,1.731-.948,3.506-1.4,5.278Zm175.192-.737c1.046-1.5,2.136-3,3.244-4.45l1.088.83c-1.1,1.435-2.175,2.916-3.209,4.4Zm337.219-5.726,1.3-.433c.576,1.732,1.14,3.491,1.675,5.227l-1.308.4C522.463,213.53,521.9,211.781,521.329,210.059Zm-87.848-.41,1.2-.648c.859,1.6,1.705,3.234,2.517,4.871l-1.225.609C435.172,212.857,434.333,211.232,433.481,209.649Zm-108.641,2.2.6-1.23c1.653.807,3.3,1.676,4.882,2.581l-.679,1.188C328.083,213.5,326.467,212.643,324.84,211.847Zm-185.407.041c.832-1.621,1.7-3.255,2.594-4.856l1.2.665c-.881,1.587-1.747,3.208-2.572,4.817Zm111.351-1.555c1.645-.788,3.341-1.533,5.041-2.216l.511,1.269c-1.674.672-3.343,1.407-4.962,2.182ZM383,206.954l1.043-.887c1.179,1.387,2.348,2.822,3.472,4.265l-1.08.841C385.32,209.746,384.164,208.326,383,206.954Zm-68.207.77.436-1.3c1.733.582,3.473,1.231,5.176,1.929l-.519,1.267C318.207,208.936,316.494,208.3,314.79,207.724Zm161.127-3.2,1.251-.556c.736,1.659,1.461,3.352,2.153,5.033l-1.265.521C477.368,207.852,476.648,206.17,475.917,204.522ZM96.366,208.881c.7-1.687,1.426-3.39,2.168-5.061l1.251.555c-.739,1.661-1.464,3.353-2.156,5.028ZM561.6,203.362l1.307-.4c.528,1.713,1.055,3.482,1.566,5.259l-1.315.379C562.648,206.829,562.123,205.067,561.6,203.362Zm-370.811,3.669c1.167-1.4,2.384-2.8,3.616-4.149l1.012.921c-1.22,1.339-2.424,2.72-3.578,4.105Zm70.221-.8c1.743-.572,3.523-1.093,5.292-1.549l.342,1.325c-1.741.448-3.492.961-5.208,1.524ZM54.179,206.2c.6-1.726,1.234-3.469,1.876-5.179l1.282.481c-.638,1.7-1.265,3.433-1.865,5.15Zm-42.347-.261c.52-1.755,1.061-3.52,1.61-5.247l1.3.414c-.545,1.718-1.085,3.474-1.6,5.221Zm292.474-1,.265-1.344c1.8.356,3.607.774,5.373,1.244l-.352,1.323C307.856,205.7,306.077,205.288,304.306,204.938Zm123.707-4.7,1.16-.727c.971,1.552,1.925,3.132,2.834,4.7l-1.183.687C429.923,203.349,428.977,201.782,428.013,200.243Zm89.636-.462,1.277-.49c.649,1.689,1.29,3.421,1.908,5.147l-1.288.461C518.931,203.184,518.293,201.461,517.649,199.781Zm-245.966,3.694c1.8-.341,3.63-.63,5.448-.854l.168,1.358c-1.787.221-3.592.5-5.36.841Zm21.87.047.09-1.366c1.829.122,3.676.305,5.488.544l-.179,1.356C297.168,203.822,295.352,203.642,293.552,203.522Zm-10.932-1.405c1.716-.1,3.464-.155,5.2-.156h.317l-.01,1.369h-.307c-1.707,0-3.428.052-5.117.153Zm-137.841.148c.938-1.565,1.917-3.137,2.907-4.672l1.15.743c-.983,1.522-1.953,3.081-2.884,4.634Zm230.814-3.286.962-.974c1.3,1.285,2.589,2.615,3.829,3.951l-1,.931C378.155,201.566,376.88,200.252,375.593,198.98Zm-177.4-.086c1.286-1.3,2.618-2.581,3.96-3.82l.929,1.006c-1.327,1.226-2.646,2.5-3.917,3.778ZM471.243,194.7l1.22-.622c.823,1.62,1.637,3.272,2.419,4.914l-1.237.588C472.87,197.95,472.061,196.307,471.243,194.7Zm-370.4,4.12c.79-1.656,1.609-3.317,2.436-4.935l1.218.622c-.82,1.608-1.634,3.258-2.419,4.9Zm457.34-5.831,1.291-.453c.594,1.7,1.189,3.443,1.767,5.2l-1.3.429C559.362,196.416,558.771,194.676,558.179,192.989Zm-500.136,2.9c.674-1.684,1.383-3.4,2.1-5.087l1.259.537c-.718,1.682-1.422,3.384-2.092,5.059Zm-42.886-.428c.593-1.752,1.206-3.5,1.818-5.2l1.287.465c-.609,1.69-1.217,3.43-1.808,5.174Zm406.779-4.249,1.109-.8c1.066,1.477,2.122,2.991,3.139,4.5l-1.134.764C424.041,194.181,422.993,192.677,421.937,191.213Zm-54.412.461.873-1.053c1.406,1.166,2.806,2.379,4.159,3.606l-.918,1.014C370.3,194.026,368.916,192.827,367.525,191.673Zm146-1.977,1.254-.547c.727,1.671,1.443,3.366,2.128,5.038l-1.267.519C514.958,193.044,514.246,191.358,513.522,189.7Zm-362.777,3.325c1.039-1.5,2.117-3,3.207-4.469l1.1.817c-1.08,1.454-2.151,2.945-3.181,4.431Zm55.525-1.592c1.4-1.182,2.834-2.346,4.274-3.463l.838,1.083c-1.424,1.1-2.848,2.256-4.227,3.425Zm259.781-6.3,1.185-.684c.9,1.566,1.806,3.175,2.677,4.781l-1.2.652C467.845,188.287,466.951,186.689,466.052,185.133ZM105.84,189.017c.873-1.6,1.779-3.216,2.694-4.8l1.184.686c-.909,1.569-1.808,3.172-2.676,4.764Zm253.011-3.926.778-1.126c1.5,1.04,3,2.128,4.458,3.233l-.828,1.091C361.821,187.194,360.337,186.119,358.852,185.09Zm195.516-2.335,1.272-.5c.664,1.682,1.325,3.405,1.965,5.123l-1.282.478C555.686,186.144,555.028,184.428,554.367,182.755ZM415.276,182.6l1.054-.874c1.159,1.4,2.313,2.846,3.43,4.29l-1.083.837C417.569,185.418,416.426,183.988,415.276,182.6ZM62.366,185.766c.751-1.656,1.534-3.334,2.328-4.986l1.234.593c-.79,1.644-1.568,3.311-2.316,4.958Zm152.6-1.07c1.495-1.058,3.027-2.093,4.554-3.077l.741,1.151c-1.511.974-3.027,2-4.5,3.044ZM18.891,185.1c.649-1.7,1.327-3.421,2.015-5.123l1.269.513c-.685,1.694-1.36,3.409-2,5.1Zm138.414-.909c1.145-1.439,2.319-2.867,3.493-4.247l1.041.888c-1.163,1.367-2.329,2.784-3.464,4.212Zm351.653-4.374,1.229-.6c.8,1.642,1.594,3.3,2.35,4.942l-1.242.574C510.543,183.105,509.756,181.452,508.958,179.819Zm-159.323-.537.677-1.188c1.59.907,3.179,1.859,4.725,2.834l-.73,1.158C352.779,181.123,351.207,180.18,349.635,179.282Zm110.723-3.431,1.147-.746c.995,1.53,1.98,3.089,2.928,4.635l-1.167.715C462.324,178.919,461.346,177.371,460.357,175.851Zm-349,3.647c.949-1.543,1.94-3.106,2.943-4.644l1.147.747c-1,1.529-1.981,3.081-2.924,4.615Zm112.846-.753c1.577-.922,3.193-1.819,4.8-2.669l.639,1.211c-1.592.84-3.19,1.726-4.75,2.638Zm183.864-4.314,1-.94c1.261,1.337,2.506,2.7,3.7,4.058l-1.026.906C410.551,177.11,409.314,175.756,408.064,174.431Zm142.118-1.718,1.252-.551c.732,1.665,1.456,3.356,2.152,5.026l-1.263.527C551.63,176.052,550.911,174.37,550.182,172.713Zm-385.757,3.1c1.232-1.356,2.5-2.7,3.761-4.007l.982.954c-1.253,1.29-2.509,2.628-3.731,3.974ZM339.942,174.3l.572-1.243c1.655.761,3.323,1.572,4.955,2.411l-.626,1.217C343.229,175.855,341.58,175.053,339.942,174.3Zm-272.81,1.55c.838-1.648,1.695-3.288,2.548-4.876l1.2.648c-.848,1.579-1.7,3.209-2.533,4.848ZM23.019,174.9c.712-1.666,1.455-3.362,2.209-5.039l1.248.561c-.75,1.67-1.491,3.358-2.2,5.015Zm480.937-4.747,1.2-.656c.867,1.589,1.732,3.216,2.569,4.834l-1.215.63C505.679,173.348,504.819,171.731,503.956,170.15Zm-270.045,3.472c1.64-.775,3.327-1.529,5.013-2.238l.53,1.262c-1.668.7-3.337,1.446-4.958,2.213Zm95.932-3.439.459-1.289c1.726.616,3.459,1.278,5.153,1.969l-.517,1.268C333.264,171.448,331.549,170.793,329.843,170.183Zm124.335-3.3,1.107-.806c1.065,1.462,2.13,2.967,3.169,4.474l-1.126.776C456.3,169.828,455.237,168.332,454.179,166.88Zm-336.817,3.41c1.036-1.5,2.108-3.008,3.184-4.481l1.1.808c-1.069,1.463-2.133,2.959-3.163,4.45Zm126.666-.921c1.72-.635,3.47-1.238,5.2-1.794l.416,1.3c-1.71.549-3.442,1.146-5.143,1.776Zm156.3-2.616.931-1c1.335,1.242,2.669,2.523,3.963,3.807l-.963.972C402.976,169.255,401.654,167.985,400.329,166.753Zm-228.252,1.176c1.3-1.259,2.655-2.521,4.013-3.75l.918,1.014c-1.348,1.22-2.688,2.472-3.982,3.721Zm147.355-.956.345-1.325c1.768.461,3.548.969,5.291,1.506l-.4,1.309C322.942,167.929,321.181,167.429,319.433,166.973Zm226.181-4.138,1.231-.6c.792,1.632,1.582,3.3,2.343,4.943l-1.241.575C547.187,166.112,546.4,164.457,545.613,162.835ZM254.5,166.01c1.764-.481,3.559-.928,5.337-1.331l.3,1.335c-1.758.4-3.534.841-5.28,1.317Zm-182.17.147c.894-1.581,1.823-3.181,2.761-4.756l1.175.7c-.933,1.567-1.856,3.157-2.746,4.729Zm236.459-1.466.228-1.35c1.806.307,3.624.654,5.4,1.036l-.287,1.338C312.378,165.338,310.58,164.993,308.793,164.691Zm-281.259.173c.779-1.646,1.587-3.311,2.4-4.949l1.226.61c-.811,1.629-1.614,3.287-2.39,4.924Zm471-4.157L499.7,160c.937,1.549,1.873,3.137,2.782,4.717l-1.186.683C500.392,163.827,499.46,162.248,498.529,160.707Zm-233.3,2.876c1.8-.324,3.627-.613,5.433-.86l.185,1.356c-1.786.243-3.594.529-5.375.851ZM298,163.346l.11-1.365c1.817.147,3.659.335,5.473.561l-.169,1.359C301.617,163.677,299.8,163.49,298,163.346ZM276.13,162.1c1.815-.167,3.66-.3,5.487-.384l.067,1.367c-1.807.087-3.633.215-5.429.38Zm115.975-2.507.864-1.062c1.419,1.154,2.833,2.346,4.2,3.541l-.9,1.032C394.914,161.921,393.51,160.74,392.105,159.595Zm-104.287,3.342-.693,0-.008-1.369.7,0c1.588,0,3.2.03,4.8.09l-.051,1.367C290.986,162.967,289.389,162.937,287.818,162.937Zm159.715-4.7,1.062-.863c1.151,1.416,2.3,2.864,3.4,4.3l-1.085.834C449.813,161.088,448.676,159.649,447.533,158.242Zm-323.688,3.172c1.118-1.447,2.267-2.9,3.415-4.3l1.06.865c-1.141,1.4-2.282,2.837-3.391,4.276Zm56.379-.852c1.388-1.175,2.818-2.345,4.25-3.478l.848,1.073c-1.419,1.124-2.837,2.285-4.214,3.45Zm360.447-7.43,1.206-.645c.859,1.61,1.711,3.241,2.531,4.852l-1.218.621C542.373,156.358,541.526,154.734,540.671,153.132Zm-462.711,3.58c.967-1.544,1.965-3.1,2.968-4.626l1.144.753c-1,1.517-1.99,3.064-2.952,4.6Zm305.467-3.721.792-1.116c1.489,1.059,2.98,2.155,4.43,3.258l-.828,1.09C386.382,155.127,384.9,154.039,383.426,152.99Zm109.262-1.48,1.139-.759c1.007,1.512,2.013,3.056,2.988,4.593l-1.154.733C494.69,154.55,493.69,153.013,492.688,151.51Zm-460.259,3.5c.838-1.61,1.709-3.242,2.587-4.852l1.2.656c-.874,1.6-1.741,3.227-2.576,4.829Zm156.405-1.266c1.468-1.086,2.971-2.159,4.466-3.191l.777,1.126c-1.483,1.024-2.974,2.088-4.429,3.165Zm251.6-3.785,1.015-.918c1.217,1.346,2.437,2.733,3.626,4.119l-1.038.892C442.859,152.679,441.647,151.3,440.438,149.964ZM130.787,152.9c1.2-1.39,2.419-2.776,3.637-4.116l1.013.919c-1.209,1.333-2.425,2.708-3.612,4.09Zm243.542-5.931.718-1.166c1.55.955,3.111,1.951,4.636,2.961l-.755,1.142C377.415,148.9,375.867,147.915,374.328,146.968Zm-176.461.548c1.53-.983,3.1-1.955,4.663-2.888l.7,1.175c-1.551.926-3.107,1.89-4.625,2.865Zm337.491-3.895,1.181-.689c.915,1.567,1.829,3.166,2.715,4.753l-1.195.667C537.177,146.774,536.269,145.182,535.358,143.622ZM84,147.529c1.027-1.49,2.094-3,3.169-4.489l1.109.8c-1.069,1.48-2.131,2.981-3.151,4.462Zm402.446-4.952,1.1-.809c1.069,1.46,2.143,2.96,3.19,4.457l-1.121.784C488.574,145.52,487.506,144.029,486.442,142.576ZM37.7,145.362c.9-1.575,1.831-3.173,2.769-4.747l1.175.7c-.934,1.567-1.862,3.157-2.757,4.725Zm395.219-3.294.965-.97c1.287,1.281,2.579,2.6,3.839,3.923l-.99.945C435.477,144.653,434.194,143.341,432.915,142.068Zm-294.748,2.694c1.259-1.317,2.553-2.634,3.846-3.917l.963.972c-1.285,1.275-2.57,2.584-3.821,3.892Zm226.683-3.2.639-1.211c1.611.851,3.234,1.742,4.823,2.65l-.678,1.188C368.057,143.285,366.448,142.4,364.849,141.558Zm-157.563.336c1.6-.882,3.224-1.749,4.841-2.574l.621,1.219c-1.6.819-3.218,1.678-4.8,2.553ZM90.434,138.624c1.108-1.465,2.24-2.926,3.363-4.342l1.072.85c-1.117,1.409-2.242,2.862-3.345,4.318Zm264.595-1.841.557-1.25c1.671.745,3.35,1.526,4.991,2.324l-.6,1.231C358.351,138.3,356.686,137.521,355.029,136.783Zm174.658-2.466,1.155-.735c.982,1.544,1.955,3.108,2.893,4.649l-1.168.712C531.633,137.409,530.664,135.853,529.686,134.317Zm-104.7.261.912-1.02c1.361,1.219,2.722,2.47,4.041,3.717l-.94,1C427.687,137.032,426.337,135.79,424.985,134.578Zm54.822-.654,1.068-.857c1.133,1.414,2.273,2.865,3.383,4.314l-1.085.833C482.068,136.773,480.935,135.33,479.807,133.924Zm-262.758,2.983c1.657-.778,3.338-1.534,5-2.247l.539,1.258c-1.644.705-3.311,1.455-4.955,2.228Zm-71.089.122c1.326-1.249,2.688-2.5,4.045-3.709l.912,1.021c-1.35,1.2-2.7,2.445-4.019,3.684ZM43.325,135.923c.971-1.561,1.962-3.12,2.948-4.638l1.148.746c-.982,1.51-1.969,3.064-2.935,4.615Zm301.581-3.253.472-1.285c1.718.633,3.447,1.3,5.138,1.989L350,134.643C348.325,133.961,346.61,133.3,344.907,132.67Zm-117.794-.091c1.708-.669,3.441-1.314,5.149-1.917l.455,1.291c-1.694.6-3.412,1.238-5.106,1.9Zm189.552-5.067.859-1.066c1.42,1.143,2.845,2.321,4.233,3.5l-.887,1.043C419.491,129.819,418.077,128.649,416.665,127.513Zm-319.411,2.5c1.153-1.392,2.348-2.8,3.55-4.189l1.035.9c-1.2,1.38-2.384,2.781-3.531,4.166Zm237.29-.774.386-1.312c1.74.512,3.5,1.063,5.245,1.637l-.428,1.3C338.021,130.3,336.27,129.749,334.544,129.241Zm-180.4.479c1.391-1.178,2.816-2.351,4.234-3.489l.856,1.068c-1.41,1.13-2.824,2.3-4.206,3.466Zm83.325-.8c1.752-.555,3.523-1.082,5.265-1.57l.368,1.318c-1.727.484-3.484,1.007-5.221,1.557Zm286.19-3.687,1.127-.778c1.032,1.5,2.065,3.021,3.069,4.536l-1.14.756C525.718,128.237,524.691,126.719,523.662,125.23Zm-50.868.341,1.027-.9c1.206,1.373,2.408,2.774,3.574,4.162l-1.048.879C475.188,128.329,473.992,126.936,472.794,125.571Zm-148.8.945.3-1.336c1.777.4,3.574.829,5.341,1.286l-.343,1.324C327.54,127.339,325.756,126.91,323.994,126.516Zm-274.686.191c1.016-1.5,2.066-3.022,3.121-4.52l1.119.788c-1.049,1.491-2.1,3-3.106,4.5Zm198.744-.757c1.767-.433,3.57-.842,5.358-1.218l.281,1.339c-1.774.372-3.561.779-5.313,1.209Zm65.235-1.455.209-1.353c1.8.279,3.625.592,5.415.93l-.253,1.345C316.881,125.081,315.074,124.77,313.287,124.495Zm-54.482-.8c1.8-.316,3.628-.606,5.426-.86l.191,1.356c-1.783.252-3.593.54-5.38.854Zm149.179-2.8.8-1.111c1.479,1.067,2.964,2.169,4.414,3.273l-.829,1.09C410.929,123.05,409.453,121.956,407.983,120.9Zm-245.277,1.96c1.459-1.109,2.943-2.206,4.41-3.261l.8,1.112c-1.458,1.047-2.932,2.136-4.381,3.238Zm139.763.33.121-1.363c1.808.159,3.646.351,5.464.57l-.164,1.359C306.086,123.534,304.263,123.343,302.469,123.185Zm-32.785-1.034c1.8-.2,3.645-.363,5.47-.5l.1,1.365c-1.81.136-3.635.3-5.425.5Zm21.9.436.031-1.369c1.816.041,3.663.112,5.489.213l-.075,1.366C295.222,122.7,293.39,122.628,291.588,122.588Zm-10.95-1.26c1.833-.077,3.679-.126,5.487-.144l.014,1.369c-1.794.017-3.624.065-5.443.142Zm-176.192.391c1.227-1.354,2.482-2.709,3.73-4.026l.993.941c-1.241,1.31-2.489,2.658-3.709,4.005Zm360.971-4.187.987-.948c1.275,1.329,2.537,2.675,3.754,4l-1.009.924C467.941,120.191,466.685,118.853,465.417,117.531Zm51.88-1.154,1.1-.82c1.092,1.461,2.183,2.947,3.24,4.418l-1.111.8C519.469,119.31,518.385,117.831,517.3,116.378Zm-461.66,1.351c1.073-1.463,2.18-2.942,3.29-4.4l1.088.831c-1.1,1.446-2.207,2.919-3.276,4.376Zm343.324-2.983.74-1.151c1.539.991,3.08,2.013,4.583,3.036l-.772,1.131C402.021,116.743,400.49,115.729,398.962,114.745Zm-227.35,1.709c1.506-1.023,3.045-2.04,4.574-3.021l.738,1.152c-1.52.975-3.048,1.984-4.545,3Zm-59.618-2.7c1.276-1.289,2.59-2.587,3.9-3.857l.952.984c-1.307,1.264-2.614,2.554-3.882,3.836Zm345.7-3.928.945-.991c1.311,1.252,2.632,2.543,3.927,3.833l-.966.969C460.31,112.35,459,111.067,457.693,109.823Zm52.905-2.054,1.064-.86c1.153,1.426,2.3,2.871,3.406,4.293l-1.08.841C512.887,110.626,511.747,109.189,510.6,107.769Zm-120.976,1.31.677-1.188c1.584.9,3.178,1.841,4.74,2.79l-.71,1.171C392.778,110.908,391.194,109.977,389.622,109.079Zm-208.785,1.457c1.564-.945,3.154-1.878,4.726-2.773l.676,1.19c-1.561.888-3.141,1.815-4.693,2.754ZM62.3,109c1.133-1.427,2.295-2.863,3.454-4.267l1.055.871c-1.153,1.4-2.31,2.826-3.437,4.246Zm57.585-2.876c1.33-1.231,2.7-2.468,4.068-3.68l.906,1.025c-1.361,1.205-2.722,2.436-4.045,3.66Zm260.106-2.209.615-1.223c1.632.82,3.276,1.673,4.883,2.534l-.647,1.207C383.243,105.578,381.612,104.73,379.99,103.915Zm-189.631,1.2c1.6-.856,3.238-1.7,4.864-2.518l.613,1.224c-1.615.809-3.24,1.65-4.832,2.5Zm259.273-2.655.9-1.031c1.372,1.2,2.749,2.429,4.094,3.657l-.923,1.01C452.366,104.875,451,103.652,449.631,102.46Zm53.943-3.042,1.031-.9c1.2,1.376,2.4,2.776,3.568,4.163l-1.047.881C505.965,102.18,504.77,100.785,503.574,99.417ZM370.092,99.27l.549-1.254c1.675.732,3.362,1.5,5.013,2.271l-.582,1.239C373.432,100.757,371.756,100,370.092,99.27Zm-169.941.941c1.65-.774,3.328-1.532,4.988-2.255l.546,1.255c-1.648.719-3.314,1.471-4.954,2.239Zm-130.863.323c1.178-1.376,2.394-2.766,3.612-4.132l1.021.91c-1.212,1.36-2.421,2.744-3.595,4.113ZM128.1,98.855c1.388-1.175,2.81-2.352,4.226-3.5l.86,1.064c-1.407,1.138-2.82,2.309-4.2,3.477Zm313.155-3.4.853-1.069c1.435,1.146,2.865,2.315,4.253,3.474l-.878,1.05C444.1,97.76,442.679,96.6,441.253,95.457Zm-81.3-.3.48-1.282c1.706.64,3.433,1.313,5.131,2l-.514,1.268C363.365,96.465,361.651,95.8,359.956,95.161Zm-149.773.675c1.7-.689,3.422-1.359,5.116-1.993l.479,1.282c-1.682.629-3.392,1.3-5.082,1.979Zm286.057-4.5,1-.938c1.248,1.324,2.5,2.678,3.724,4.024l-1.013.922C498.729,94,497.482,92.655,496.239,91.336Zm-146.63.261.41-1.306c1.746.55,3.506,1.13,5.232,1.724l-.445,1.294C353.092,92.718,351.343,92.142,349.609,91.6Zm-129.143.39c1.713-.589,3.467-1.166,5.215-1.716l.41,1.306c-1.736.546-3.478,1.12-5.18,1.7ZM76.588,92.34C77.83,91,79.1,89.656,80.353,88.35l.986.949c-1.25,1.3-2.511,2.638-3.748,3.973Zm60.034-.383c1.439-1.112,2.91-2.224,4.375-3.306l.812,1.1c-1.455,1.076-2.919,2.181-4.349,3.287ZM432.57,88.831l.8-1.108c1.5,1.091,2.978,2.2,4.4,3.286l-.831,1.088C435.53,91.013,434.056,89.914,432.57,88.831ZM339.12,88.6l.341-1.325c1.767.454,3.55.937,5.3,1.436l-.375,1.317C342.646,89.533,340.875,89.052,339.12,88.6ZM230.941,88.7c1.736-.5,3.518-.978,5.3-1.436l.34,1.325c-1.77.456-3.542.935-5.265,1.426ZM488.6,83.536l.959-.975c1.3,1.275,2.6,2.581,3.876,3.882l-.979.958C491.19,86.106,489.893,84.806,488.6,83.536ZM328.489,86.173l.268-1.342c1.78.358,3.586.745,5.368,1.153l-.3,1.334C332.051,86.912,330.256,86.528,328.489,86.173Zm-86.913-.206c1.78-.406,3.587-.794,5.369-1.151l.269,1.342c-1.772.355-3.566.739-5.333,1.142Zm-96.136-.521c1.483-1.046,3-2.091,4.514-3.108l.763,1.136c-1.5,1.011-3.013,2.05-4.488,3.091ZM423.6,82.591l.757-1.141c1.516,1.007,3.047,2.046,4.545,3.087l-.781,1.124C426.628,84.625,425.107,83.592,423.6,82.591ZM84.192,84.432c1.3-1.3,2.614-2.593,3.912-3.844l.948.985c-1.292,1.246-2.6,2.533-3.893,3.827Zm233.549-.119.2-1.355c1.8.262,3.622.553,5.421.865l-.232,1.349C321.339,84.862,319.526,84.573,317.741,84.312Zm-65.4-.5c1.8-.311,3.624-.6,5.422-.862l.2,1.354c-1.786.26-3.6.548-5.386.857Zm54.568-.785.126-1.363c1.818.167,3.655.361,5.46.575l-.161,1.359C310.542,83.384,308.717,83.193,306.91,83.026Zm-43.7-.8c1.8-.213,3.632-.405,5.459-.574l.126,1.364c-1.816.167-3.641.359-5.425.57Zm32.82.081.053-1.367c1.825.071,3.669.167,5.483.288l-.089,1.366C299.671,82.478,297.839,82.382,296.027,82.312Zm-21.889-1.084c1.8-.118,3.649-.214,5.484-.286l.054,1.367c-1.823.072-3.656.167-5.447.285Zm10.982.942L285.1,80.8c1.828-.023,3.665-.024,5.491,0l-.017,1.369C288.76,82.145,286.937,82.146,285.12,82.169ZM154.533,79.332c1.518-.972,3.08-1.949,4.644-2.9l.713,1.168c-1.556.949-3.11,1.921-4.619,2.888Zm326.136-3.3.923-1.011c1.346,1.227,2.7,2.483,4.02,3.734l-.941.994C483.355,78.5,482.009,77.249,480.669,76.029Zm-66.311.726.7-1.174c1.565.941,3.139,1.91,4.68,2.883l-.73,1.157C417.477,78.654,415.912,77.689,414.358,76.755Zm-322.27.064c1.321-1.227,2.685-2.469,4.053-3.692l.912,1.02c-1.362,1.219-2.719,2.456-4.033,3.676Zm71.8-3.191c1.574-.913,3.178-1.82,4.766-2.694l.66,1.2c-1.58.87-3.175,1.771-4.741,2.68Zm240.979-2.295.653-1.2c1.588.861,3.2,1.76,4.8,2.673l-.677,1.188C408.051,73.084,406.444,72.189,404.863,71.333Zm67.6-2.506.881-1.047c1.4,1.185,2.8,2.39,4.161,3.58l-.9,1.029C475.25,71.205,473.857,70.007,472.46,68.827Zm-372.2.685c1.384-1.19,2.794-2.38,4.19-3.535l.873,1.055c-1.39,1.149-2.792,2.334-4.17,3.519Zm73.209-1.166c1.612-.841,3.254-1.675,4.879-2.478l.606,1.227c-1.615.8-3.248,1.628-4.852,2.466Zm221.662-2.009.6-1.232c1.647.8,3.3,1.627,4.921,2.458l-.626,1.218C398.418,67.953,396.771,67.132,395.135,66.337Zm68.843-4.4.842-1.079c1.422,1.112,2.867,2.262,4.294,3.42l-.862,1.063C466.831,64.189,465.394,63.044,463.978,61.938ZM183.283,63.5c1.655-.773,3.331-1.533,4.981-2.259l.551,1.252c-1.641.722-3.307,1.478-4.953,2.247Zm201.9-1.72.542-1.257c1.671.721,3.362,1.473,5.029,2.236L390.187,64C388.529,63.244,386.847,62.5,385.186,61.779Zm-276.477.745c1.422-1.132,2.876-2.268,4.319-3.373l.831,1.087c-1.437,1.1-2.884,2.23-4.3,3.356Zm84.585-3.432c1.693-.7,3.407-1.388,5.094-2.042l.5,1.276c-1.679.65-3.383,1.334-5.065,2.031Zm181.748-1.423.485-1.28c1.7.647,3.428,1.323,5.125,2.01l-.514,1.269C378.449,58.984,376.735,58.312,375.041,57.669Zm80.2-2.293.8-1.111c1.483,1.071,2.971,2.166,4.422,3.256l-.822,1.095C458.2,57.531,456.715,56.441,455.239,55.376ZM117.41,55.86c1.468-1.081,2.963-2.159,4.443-3.205l.789,1.118c-1.472,1.041-2.96,2.114-4.422,3.191Zm86.116-.737c1.7-.617,3.447-1.227,5.18-1.812l.438,1.3c-1.724.582-3.458,1.188-5.151,1.8Zm161.191-1.107.427-1.3c1.735.571,3.488,1.17,5.212,1.78l-.456,1.29C368.185,55.179,366.441,54.584,364.716,54.016Zm-150.792-2.4c1.726-.54,3.494-1.071,5.255-1.579l.38,1.315c-1.752.5-3.511,1.034-5.228,1.57Zm140.331-.781.368-1.318c1.758.492,3.531,1.01,5.268,1.538l-.4,1.31C357.766,51.838,356,51.324,354.255,50.834Zm92-1.686.758-1.14c1.513,1.007,3.042,2.045,4.543,3.086l-.779,1.126C449.283,51.183,447.761,50.149,446.255,49.148Zm-319.9.388c1.5-1.018,3.034-2.04,4.559-3.034l.747,1.147c-1.519.99-3.045,2.007-4.538,3.02Zm98.116-.96c1.769-.467,3.559-.919,5.321-1.342l.32,1.331c-1.752.421-3.532.87-5.292,1.334Zm119.213-.447.309-1.334c1.779.413,3.573.851,5.332,1.3l-.339,1.325C347.235,48.975,345.451,48.539,343.682,48.129ZM235.141,46.01c1.778-.386,3.586-.757,5.375-1.1l.261,1.344c-1.779.345-3.578.714-5.346,1.1ZM333,45.9l.25-1.346c1.8.334,3.607.69,5.384,1.062l-.279,1.339C336.586,46.584,334.784,46.229,333,45.9Zm104.039-2.632.713-1.168c1.548.947,3.116,1.927,4.66,2.913l-.736,1.154C440.139,45.182,438.578,44.207,437.038,43.265Zm-191.125.659c1.783-.3,3.607-.595,5.419-.863l.2,1.354c-1.8.268-3.617.556-5.39.858Zm76.315.22.189-1.355c1.813.254,3.639.53,5.427.82l-.22,1.352C325.847,44.673,324.032,44.4,322.229,44.145Zm-186.7-.589c1.553-.971,3.125-1.931,4.67-2.857l.7,1.175c-1.538.92-3.1,1.877-4.648,2.843ZM256.77,42.319c1.8-.225,3.635-.434,5.451-.621l.14,1.362c-1.808.185-3.632.394-5.422.617Zm54.62.554.129-1.362c1.827.174,3.663.369,5.457.579l-.161,1.359C315.032,43.24,313.206,43.046,311.39,42.873Zm-43.7-1.676c1.8-.145,3.641-.274,5.474-.381l.08,1.366c-1.822.107-3.654.235-5.445.38Zm32.819.882.069-1.367c1.833.094,3.675.208,5.476.339l-.1,1.365C304.16,42.286,302.328,42.172,300.5,42.079Zm-21.864-1.523c1.822-.067,3.665-.114,5.477-.141l.02,1.369c-1.8.026-3.635.073-5.448.139ZM289.6,41.764,289.6,40.4c1.825.013,3.672.046,5.487.1l-.041,1.369C293.247,41.81,291.411,41.777,289.6,41.764Zm138-4.026.668-1.194c1.591.89,3.195,1.809,4.77,2.731l-.692,1.182C430.779,39.538,429.182,38.624,427.6,37.738Zm-282.679.192c1.579-.9,3.184-1.8,4.772-2.676l.657,1.2c-1.581.868-3.178,1.763-4.75,2.664Zm273.034-5.357.622-1.219c1.63.833,3.269,1.69,4.871,2.548L422.8,35.11C421.208,34.255,419.576,33.4,417.954,32.573Zm-263.439.1c1.612-.845,3.25-1.682,4.87-2.492L160,31.4c-1.612.806-3.243,1.64-4.846,2.48Zm253.6-4.892.576-1.241c1.646.764,3.318,1.558,4.966,2.36l-.6,1.231C411.416,29.331,409.753,28.54,408.113,27.78Zm-243.813,0c1.65-.784,3.318-1.559,4.96-2.3l.564,1.247c-1.632.739-3.293,1.51-4.936,2.292Zm233.793-4.415.528-1.263c1.694.708,3.4,1.438,5.055,2.169l-.552,1.252C401.472,24.8,399.779,24.072,398.093,23.367Zm-223.834-.1c1.665-.714,3.361-1.425,5.041-2.11l.516,1.268c-1.672.681-3.36,1.387-5.017,2.1Zm213.648-3.931.478-1.282c1.708.637,3.437,1.3,5.138,1.973l-.5,1.272C391.328,20.637,389.607,19.975,387.907,19.341Zm-203.506-.2c1.711-.658,3.44-1.306,5.137-1.923l.468,1.286c-1.691.613-3.411,1.258-5.114,1.914Zm193.167-3.431.429-1.3c1.743.576,3.5,1.173,5.212,1.776l-.453,1.292C381.048,16.877,379.3,16.283,377.568,15.711Zm-182.857-.317c1.721-.588,3.473-1.168,5.209-1.724l.416,1.3c-1.726.554-3.47,1.131-5.182,1.716Zm172.4-2.909.377-1.315c1.744.5,3.514,1.028,5.258,1.567l-.4,1.308C370.609,13.509,368.849,12.984,367.114,12.485Zm-161.954-.439c1.752-.525,3.525-1.037,5.27-1.522l.367,1.319c-1.736.483-3.5.993-5.245,1.515Zm151.4-2.377.327-1.328c1.762.434,3.549.893,5.314,1.364l-.353,1.323C360.1,10.558,358.317,10.1,356.564,9.669ZM215.728,9.1c1.771-.457,3.562-.9,5.324-1.319l.317,1.331c-1.754.417-3.537.859-5.3,1.314Zm130.188-1.84.276-1.341c1.774.366,3.579.756,5.363,1.159l-.3,1.335C349.476,8.012,347.681,7.625,345.915,7.261ZM226.4,6.565c1.766-.384,3.573-.759,5.371-1.114l.265,1.343c-1.789.353-3.587.727-5.346,1.109Zm108.781-1.3.225-1.35c1.786.3,3.6.618,5.4.952l-.25,1.346C338.77,5.878,336.961,5.559,335.183,5.263Zm-98.02-.823c1.8-.32,3.618-.625,5.411-.909l.213,1.353c-1.783.281-3.594.585-5.384.9Zm87.217-.764.173-1.359c1.81.231,3.638.482,5.434.746l-.2,1.354C328,4.155,326.181,3.906,324.38,3.676ZM248,2.729c1.809-.251,3.641-.487,5.44-.7l.161,1.359c-1.791.214-3.613.448-5.414.7ZM313.525,2.5l.121-1.363c1.8.16,3.641.341,5.459.537l-.147,1.361C317.149,2.842,315.321,2.662,313.525,2.5Zm-54.634-1.07c1.8-.18,3.635-.346,5.464-.493l.11,1.365c-1.82.147-3.649.312-5.436.491Zm43.742.309L302.7.374c1.82.092,3.663.2,5.476.332l-.1,1.365C306.279,1.944,304.445,1.833,302.633,1.741ZM269.827.548c1.8-.111,3.643-.208,5.478-.286l.059,1.367c-1.826.078-3.66.174-5.453.285Zm21.895.842L291.74.021c1.835.026,3.68.068,5.484.126l-.044,1.368C295.384,1.457,293.548,1.416,291.722,1.39ZM280.773.08c1.814-.043,3.658-.07,5.481-.08l.008,1.369c-1.815.01-3.652.037-5.458.08Z" transform="translate(-145.19 59.195)" fill="url(#linear-gradient)"/>
    <g id="组_56" data-name="组 56" transform="translate(-13.393 261.195)">
      <path id="路径_1060" data-name="路径 1060" d="M222.672,32.494H145.134l-16.616-9.333a30.713,30.713,0,0,0-30.1,0L81.8,32.494H4.264V83.5h.107a11.071,11.071,0,0,0,5.648,8.979l88.4,49.654a30.713,30.713,0,0,0,30.1,0l88.4-49.654a11.071,11.071,0,0,0,5.648-8.979h.107Z" transform="translate(42.444 30.481)" fill="url(#linear-gradient-2)"/>
      <path id="路径_1061" data-name="路径 1061" d="M216.92,65.371l-88.4-49.66a30.747,30.747,0,0,0-30.1,0l-88.4,49.66a11.27,11.27,0,0,0,0,19.66l88.4,49.66a30.713,30.713,0,0,0,30.1,0l88.4-49.66a11.275,11.275,0,0,0,0-19.66" transform="translate(42.441 -11.776)" fill="url(#linear-gradient-3)"/>
      <path id="路径_1063" data-name="路径 1063" d="M113.748,88.884a31.066,31.066,0,0,1-15.214-3.952l-88.4-49.66a11.466,11.466,0,0,1-5.921-10.12h.661a10.832,10.832,0,0,0,5.581,9.54l88.406,49.66a30.6,30.6,0,0,0,29.773,0l88.406-49.66a10.832,10.832,0,0,0,5.581-9.54h.661a11.466,11.466,0,0,1-5.921,10.12l-88.4,49.66a31.066,31.066,0,0,1-15.214,3.952" transform="translate(42.16 64.139)" fill="#141414"/>
      <g id="组_60" data-name="组 60" transform="translate(175.354 99.315)">
        <path id="路径_1064" data-name="路径 1064" d="M46.271,35.918c-1.384,4.883-5.554,8.91-9.313,8.994s-5.7-3.8-4.312-8.684,5.554-8.91,9.313-8.994,5.7,3.8,4.312,8.684" transform="translate(26.599 -27.233)" fill="#141414"/>
        <rect id="矩形_80" data-name="矩形 80" width="12.051" height="76.748" transform="translate(62.538 13.804) rotate(-59.999)" fill="url(#linear-gradient-4)"/>
        <path id="路径_1065" data-name="路径 1065" d="M41.452,33.131c-.881,3.1-3.524,5.663-5.915,5.714s-3.616-2.416-2.743-5.512,3.532-5.663,5.923-5.714,3.616,2.408,2.735,5.512" transform="translate(28.927 -24.388)" fill="url(#radial-gradient)"/>
        <path id="路径_1064-2" data-name="路径 1064" d="M46.271,35.918c-1.384,4.883-5.554,8.91-9.313,8.994s-5.7-3.8-4.312-8.684,5.554-8.91,9.313-8.994,5.7,3.8,4.312,8.684" transform="translate(-2.802 -10.796)" fill="#141414"/>
        <rect id="矩形_80-2" data-name="矩形 80" width="12.051" height="76.748" transform="translate(33.136 30.241) rotate(-59.999)" fill="url(#linear-gradient-4)"/>
        <path id="路径_1065-2" data-name="路径 1065" d="M41.452,33.131c-.881,3.1-3.524,5.663-5.915,5.714s-3.616-2.416-2.743-5.512,3.532-5.663,5.923-5.714,3.616,2.408,2.735,5.512" transform="translate(-0.475 -7.951)" fill="url(#radial-gradient)"/>
        <path id="路径_1064-3" data-name="路径 1064" d="M46.271,35.918c-1.384,4.883-5.554,8.91-9.313,8.994s-5.7-3.8-4.312-8.684,5.554-8.91,9.313-8.994,5.7,3.8,4.312,8.684" transform="translate(-32.198 6.982)" fill="#141414"/>
        <rect id="矩形_80-3" data-name="矩形 80" width="12.051" height="76.748" transform="translate(3.741 48.019) rotate(-59.999)" fill="url(#linear-gradient-4)"/>
        <path id="路径_1065-3" data-name="路径 1065" d="M41.452,33.131c-.881,3.1-3.524,5.663-5.915,5.714s-3.616-2.416-2.743-5.512,3.532-5.663,5.923-5.714,3.616,2.408,2.735,5.512" transform="translate(-29.87 9.827)" fill="url(#radial-gradient)"/>
      </g>
      <g id="组_53" data-name="组 53" transform="translate(0 99.315)">
        <path id="路径_1064-4" data-name="路径 1064" d="M32.646,35.918c1.384,4.883,5.554,8.91,9.313,8.994s5.7-3.8,4.312-8.684-5.554-8.91-9.313-8.994-5.7,3.8-4.312,8.684" transform="translate(29.513 -27.233)" fill="#141414"/>
        <rect id="矩形_80-4" data-name="矩形 80" width="12.051" height="76.748" transform="matrix(-0.5, -0.866, 0.866, -0.5, 6.026, 52.18)" fill="url(#linear-gradient-7)"/>
        <path id="路径_1065-4" data-name="路径 1065" d="M32.8,33.131c.881,3.1,3.524,5.663,5.915,5.714s3.616-2.416,2.744-5.512-3.532-5.663-5.923-5.714-3.616,2.408-2.735,5.512" transform="translate(31.852 -24.388)" fill="url(#radial-gradient-4)"/>
        <path id="路径_1064-5" data-name="路径 1064" d="M32.646,35.918c1.384,4.883,5.554,8.91,9.313,8.994s5.7-3.8,4.312-8.684-5.554-8.91-9.313-8.994-5.7,3.8-4.312,8.684" transform="translate(58.915 -10.796)" fill="#141414"/>
        <rect id="矩形_80-5" data-name="矩形 80" width="12.051" height="76.748" transform="matrix(-0.5, -0.866, 0.866, -0.5, 35.428, 68.617)" fill="url(#linear-gradient-7)"/>
        <path id="路径_1065-5" data-name="路径 1065" d="M32.8,33.131c.881,3.1,3.524,5.663,5.915,5.714s3.616-2.416,2.744-5.512-3.532-5.663-5.923-5.714-3.616,2.408-2.735,5.512" transform="translate(61.254 -7.951)" fill="url(#radial-gradient-4)"/>
        <path id="路径_1064-6" data-name="路径 1064" d="M32.646,35.918c1.384,4.883,5.554,8.91,9.313,8.994s5.7-3.8,4.312-8.684-5.554-8.91-9.313-8.994-5.7,3.8-4.312,8.684" transform="translate(88.31 6.982)" fill="#141414"/>
        <rect id="矩形_80-6" data-name="矩形 80" width="12.051" height="76.748" transform="matrix(-0.5, -0.866, 0.866, -0.5, 64.823, 86.395)" fill="url(#linear-gradient-7)"/>
        <path id="路径_1065-6" data-name="路径 1065" d="M32.8,33.131c.881,3.1,3.524,5.663,5.915,5.714s3.616-2.416,2.744-5.512-3.532-5.663-5.923-5.714-3.616,2.408-2.735,5.512" transform="translate(90.649 9.827)" fill="url(#radial-gradient-4)"/>
      </g>
      <g data-type="innerShadowGroup">
        <g transform="matrix(1, 0, 0, 1, -195.8, -345)" filter="url(#路径_1076)">
          <path id="路径_1076-7" data-name="路径 1076" d="M195.053,62.816,113.2,16.834a24.546,24.546,0,0,0-24.039,0L7.313,62.816a1.744,1.744,0,0,0,0,3.037l81.85,45.975a24.546,24.546,0,0,0,24.039,0l81.85-45.975a1.744,1.744,0,0,0,0-3.037" transform="translate(250.52 342.41)" fill="url(#linear-gradient-10)"/>
        </g>
        <g transform="matrix(1, 0, 0, 1, -195.8, -345)" filter="url(#路径_1076-2)">
          <path id="路径_1076-8" data-name="路径 1076" d="M195.053,62.816,113.2,16.834a24.546,24.546,0,0,0-24.039,0L7.313,62.816a1.744,1.744,0,0,0,0,3.037l81.85,45.975a24.546,24.546,0,0,0,24.039,0l81.85-45.975a1.744,1.744,0,0,0,0-3.037" transform="translate(250.52 342.41)" fill="#fff"/>
        </g>
      </g>
    </g>
    <g id="组_55" data-name="组 55" transform="translate(-13.393 176.195)">
      <path id="路径_1060-2" data-name="路径 1060" d="M222.672,32.494H145.134l-16.616-9.333a30.713,30.713,0,0,0-30.1,0L81.8,32.494H4.264V83.5h.107a11.071,11.071,0,0,0,5.648,8.979l88.4,49.654a30.713,30.713,0,0,0,30.1,0l88.4-49.654a11.071,11.071,0,0,0,5.648-8.979h.107Z" transform="translate(42.444 30.481)" fill="url(#linear-gradient-2)"/>
      <path id="路径_1061-2" data-name="路径 1061" d="M216.92,65.371l-88.4-49.66a30.747,30.747,0,0,0-30.1,0l-88.4,49.66a11.27,11.27,0,0,0,0,19.66l88.4,49.66a30.713,30.713,0,0,0,30.1,0l88.4-49.66a11.275,11.275,0,0,0,0-19.66" transform="translate(42.441 -11.776)" fill="url(#linear-gradient-3)"/>
      <path id="路径_1063-2" data-name="路径 1063" d="M113.748,88.884a31.066,31.066,0,0,1-15.214-3.952l-88.4-49.66a11.466,11.466,0,0,1-5.921-10.12h.661a10.832,10.832,0,0,0,5.581,9.54l88.406,49.66a30.6,30.6,0,0,0,29.773,0l88.406-49.66a10.832,10.832,0,0,0,5.581-9.54h.661a11.466,11.466,0,0,1-5.921,10.12l-88.4,49.66a31.066,31.066,0,0,1-15.214,3.952" transform="translate(42.16 64.139)" fill="#141414"/>
      <g id="组_59" data-name="组 59" transform="translate(175.354 99.315)">
        <path id="路径_1064-7" data-name="路径 1064" d="M46.271,35.918c-1.384,4.883-5.554,8.91-9.313,8.994s-5.7-3.8-4.312-8.684,5.554-8.91,9.313-8.994,5.7,3.8,4.312,8.684" transform="translate(26.599 -27.233)" fill="#141414"/>
        <rect id="矩形_80-7" data-name="矩形 80" width="12.051" height="76.748" transform="translate(62.538 13.804) rotate(-59.999)" fill="url(#linear-gradient-4)"/>
        <path id="路径_1065-7" data-name="路径 1065" d="M41.452,33.131c-.881,3.1-3.524,5.663-5.915,5.714s-3.616-2.416-2.743-5.512,3.532-5.663,5.923-5.714,3.616,2.408,2.735,5.512" transform="translate(28.927 -24.388)" fill="url(#radial-gradient)"/>
        <path id="路径_1064-8" data-name="路径 1064" d="M46.271,35.918c-1.384,4.883-5.554,8.91-9.313,8.994s-5.7-3.8-4.312-8.684,5.554-8.91,9.313-8.994,5.7,3.8,4.312,8.684" transform="translate(-2.802 -10.796)" fill="#141414"/>
        <rect id="矩形_80-8" data-name="矩形 80" width="12.051" height="76.748" transform="translate(33.136 30.241) rotate(-59.999)" fill="url(#linear-gradient-4)"/>
        <path id="路径_1065-8" data-name="路径 1065" d="M41.452,33.131c-.881,3.1-3.524,5.663-5.915,5.714s-3.616-2.416-2.743-5.512,3.532-5.663,5.923-5.714,3.616,2.408,2.735,5.512" transform="translate(-0.475 -7.951)" fill="url(#radial-gradient)"/>
        <path id="路径_1064-9" data-name="路径 1064" d="M46.271,35.918c-1.384,4.883-5.554,8.91-9.313,8.994s-5.7-3.8-4.312-8.684,5.554-8.91,9.313-8.994,5.7,3.8,4.312,8.684" transform="translate(-32.198 6.982)" fill="#141414"/>
        <rect id="矩形_80-9" data-name="矩形 80" width="12.051" height="76.748" transform="translate(3.741 48.019) rotate(-59.999)" fill="url(#linear-gradient-4)"/>
        <path id="路径_1065-9" data-name="路径 1065" d="M41.452,33.131c-.881,3.1-3.524,5.663-5.915,5.714s-3.616-2.416-2.743-5.512,3.532-5.663,5.923-5.714,3.616,2.408,2.735,5.512" transform="translate(-29.87 9.827)" fill="url(#radial-gradient)"/>
      </g>
      <g id="组_53-2" data-name="组 53" transform="translate(0 99.315)">
        <path id="路径_1064-10" data-name="路径 1064" d="M32.646,35.918c1.384,4.883,5.554,8.91,9.313,8.994s5.7-3.8,4.312-8.684-5.554-8.91-9.313-8.994-5.7,3.8-4.312,8.684" transform="translate(29.513 -27.233)" fill="#141414"/>
        <rect id="矩形_80-10" data-name="矩形 80" width="12.051" height="76.748" transform="matrix(-0.5, -0.866, 0.866, -0.5, 6.026, 52.18)" fill="url(#linear-gradient-7)"/>
        <path id="路径_1065-10" data-name="路径 1065" d="M32.8,33.131c.881,3.1,3.524,5.663,5.915,5.714s3.616-2.416,2.744-5.512-3.532-5.663-5.923-5.714-3.616,2.408-2.735,5.512" transform="translate(31.852 -24.388)" fill="url(#radial-gradient-4)"/>
        <path id="路径_1064-11" data-name="路径 1064" d="M32.646,35.918c1.384,4.883,5.554,8.91,9.313,8.994s5.7-3.8,4.312-8.684-5.554-8.91-9.313-8.994-5.7,3.8-4.312,8.684" transform="translate(58.915 -10.796)" fill="#141414"/>
        <rect id="矩形_80-11" data-name="矩形 80" width="12.051" height="76.748" transform="matrix(-0.5, -0.866, 0.866, -0.5, 35.428, 68.617)" fill="url(#linear-gradient-7)"/>
        <path id="路径_1065-11" data-name="路径 1065" d="M32.8,33.131c.881,3.1,3.524,5.663,5.915,5.714s3.616-2.416,2.744-5.512-3.532-5.663-5.923-5.714-3.616,2.408-2.735,5.512" transform="translate(61.254 -7.951)" fill="url(#radial-gradient-4)"/>
        <path id="路径_1064-12" data-name="路径 1064" d="M32.646,35.918c1.384,4.883,5.554,8.91,9.313,8.994s5.7-3.8,4.312-8.684-5.554-8.91-9.313-8.994-5.7,3.8-4.312,8.684" transform="translate(88.31 6.982)" fill="#141414"/>
        <rect id="矩形_80-12" data-name="矩形 80" width="12.051" height="76.748" transform="matrix(-0.5, -0.866, 0.866, -0.5, 64.823, 86.395)" fill="url(#linear-gradient-7)"/>
        <path id="路径_1065-12" data-name="路径 1065" d="M32.8,33.131c.881,3.1,3.524,5.663,5.915,5.714s3.616-2.416,2.744-5.512-3.532-5.663-5.923-5.714-3.616,2.408-2.735,5.512" transform="translate(90.649 9.827)" fill="url(#radial-gradient-4)"/>
      </g>
      <g data-type="innerShadowGroup">
        <g transform="matrix(1, 0, 0, 1, -195.8, -260)" filter="url(#路径_1076-3)">
          <path id="路径_1076-9" data-name="路径 1076" d="M195.053,62.816,113.2,16.834a24.546,24.546,0,0,0-24.039,0L7.313,62.816a1.744,1.744,0,0,0,0,3.037l81.85,45.975a24.546,24.546,0,0,0,24.039,0l81.85-45.975a1.744,1.744,0,0,0,0-3.037" transform="translate(250.52 257.41)" fill="url(#linear-gradient-10)"/>
        </g>
        <g transform="matrix(1, 0, 0, 1, -195.8, -260)" filter="url(#路径_1076-4)">
          <path id="路径_1076-10" data-name="路径 1076" d="M195.053,62.816,113.2,16.834a24.546,24.546,0,0,0-24.039,0L7.313,62.816a1.744,1.744,0,0,0,0,3.037l81.85,45.975a24.546,24.546,0,0,0,24.039,0l81.85-45.975a1.744,1.744,0,0,0,0-3.037" transform="translate(250.52 257.41)" fill="#fff"/>
        </g>
      </g>
    </g>
    <g id="组_54" data-name="组 54" transform="translate(-13.393 90.194)">
      <path id="路径_1060-3" data-name="路径 1060" d="M222.672,32.494H145.134l-16.616-9.333a30.713,30.713,0,0,0-30.1,0L81.8,32.494H4.264V83.5h.107a11.071,11.071,0,0,0,5.648,8.979l88.4,49.654a30.713,30.713,0,0,0,30.1,0l88.4-49.654a11.071,11.071,0,0,0,5.648-8.979h.107Z" transform="translate(42.444 30.481)" fill="url(#linear-gradient-2)"/>
      <path id="路径_1061-3" data-name="路径 1061" d="M216.92,65.371l-88.4-49.66a30.747,30.747,0,0,0-30.1,0l-88.4,49.66a11.27,11.27,0,0,0,0,19.66l88.4,49.66a30.713,30.713,0,0,0,30.1,0l88.4-49.66a11.275,11.275,0,0,0,0-19.66" transform="translate(42.441 -11.776)" fill="url(#linear-gradient-3)"/>
      <path id="路径_1063-3" data-name="路径 1063" d="M113.748,88.884a31.066,31.066,0,0,1-15.214-3.952l-88.4-49.66a11.466,11.466,0,0,1-5.921-10.12h.661a10.832,10.832,0,0,0,5.581,9.54l88.406,49.66a30.6,30.6,0,0,0,29.773,0l88.406-49.66a10.832,10.832,0,0,0,5.581-9.54h.661a11.466,11.466,0,0,1-5.921,10.12l-88.4,49.66a31.066,31.066,0,0,1-15.214,3.952" transform="translate(42.16 64.139)" fill="#141414"/>
      <g id="组_58" data-name="组 58" transform="translate(175.354 99.315)">
        <path id="路径_1064-13" data-name="路径 1064" d="M46.271,35.918c-1.384,4.883-5.554,8.91-9.313,8.994s-5.7-3.8-4.312-8.684,5.554-8.91,9.313-8.994,5.7,3.8,4.312,8.684" transform="translate(26.599 -27.233)" fill="#141414"/>
        <rect id="矩形_80-13" data-name="矩形 80" width="12.051" height="76.748" transform="translate(62.538 13.804) rotate(-59.999)" fill="url(#linear-gradient-4)"/>
        <path id="路径_1065-13" data-name="路径 1065" d="M41.452,33.131c-.881,3.1-3.524,5.663-5.915,5.714s-3.616-2.416-2.743-5.512,3.532-5.663,5.923-5.714,3.616,2.408,2.735,5.512" transform="translate(28.927 -24.388)" fill="url(#radial-gradient)"/>
        <path id="路径_1064-14" data-name="路径 1064" d="M46.271,35.918c-1.384,4.883-5.554,8.91-9.313,8.994s-5.7-3.8-4.312-8.684,5.554-8.91,9.313-8.994,5.7,3.8,4.312,8.684" transform="translate(-2.802 -10.796)" fill="#141414"/>
        <rect id="矩形_80-14" data-name="矩形 80" width="12.051" height="76.748" transform="translate(33.136 30.241) rotate(-59.999)" fill="url(#linear-gradient-4)"/>
        <path id="路径_1065-14" data-name="路径 1065" d="M41.452,33.131c-.881,3.1-3.524,5.663-5.915,5.714s-3.616-2.416-2.743-5.512,3.532-5.663,5.923-5.714,3.616,2.408,2.735,5.512" transform="translate(-0.475 -7.951)" fill="url(#radial-gradient)"/>
        <path id="路径_1064-15" data-name="路径 1064" d="M46.271,35.918c-1.384,4.883-5.554,8.91-9.313,8.994s-5.7-3.8-4.312-8.684,5.554-8.91,9.313-8.994,5.7,3.8,4.312,8.684" transform="translate(-32.198 6.983)" fill="#141414"/>
        <rect id="矩形_80-15" data-name="矩形 80" width="12.051" height="76.748" transform="translate(3.741 48.02) rotate(-59.999)" fill="url(#linear-gradient-4)"/>
        <path id="路径_1065-15" data-name="路径 1065" d="M41.452,33.131c-.881,3.1-3.524,5.663-5.915,5.714s-3.616-2.416-2.743-5.512,3.532-5.663,5.923-5.714,3.616,2.408,2.735,5.512" transform="translate(-29.87 9.827)" fill="url(#radial-gradient)"/>
      </g>
      <g id="组_53-3" data-name="组 53" transform="translate(0 99.315)">
        <path id="路径_1064-16" data-name="路径 1064" d="M32.646,35.918c1.384,4.883,5.554,8.91,9.313,8.994s5.7-3.8,4.312-8.684-5.554-8.91-9.313-8.994-5.7,3.8-4.312,8.684" transform="translate(29.513 -27.233)" fill="#141414"/>
        <rect id="矩形_80-16" data-name="矩形 80" width="12.051" height="76.748" transform="matrix(-0.5, -0.866, 0.866, -0.5, 6.026, 52.18)" fill="url(#linear-gradient-7)"/>
        <path id="路径_1065-16" data-name="路径 1065" d="M32.8,33.131c.881,3.1,3.524,5.663,5.915,5.714s3.616-2.416,2.744-5.512-3.532-5.663-5.923-5.714-3.616,2.408-2.735,5.512" transform="translate(31.852 -24.388)" fill="url(#radial-gradient-4)"/>
        <path id="路径_1064-17" data-name="路径 1064" d="M32.646,35.918c1.384,4.883,5.554,8.91,9.313,8.994s5.7-3.8,4.312-8.684-5.554-8.91-9.313-8.994-5.7,3.8-4.312,8.684" transform="translate(58.915 -10.796)" fill="#141414"/>
        <rect id="矩形_80-17" data-name="矩形 80" width="12.051" height="76.748" transform="matrix(-0.5, -0.866, 0.866, -0.5, 35.428, 68.617)" fill="url(#linear-gradient-7)"/>
        <path id="路径_1065-17" data-name="路径 1065" d="M32.8,33.131c.881,3.1,3.524,5.663,5.915,5.714s3.616-2.416,2.744-5.512-3.532-5.663-5.923-5.714-3.616,2.408-2.735,5.512" transform="translate(61.254 -7.951)" fill="url(#radial-gradient-4)"/>
        <path id="路径_1064-18" data-name="路径 1064" d="M32.646,35.918c1.384,4.883,5.554,8.91,9.313,8.994s5.7-3.8,4.312-8.684-5.554-8.91-9.313-8.994-5.7,3.8-4.312,8.684" transform="translate(88.31 6.982)" fill="#141414"/>
        <rect id="矩形_80-18" data-name="矩形 80" width="12.051" height="76.748" transform="matrix(-0.5, -0.866, 0.866, -0.5, 64.823, 86.395)" fill="url(#linear-gradient-7)"/>
        <path id="路径_1065-18" data-name="路径 1065" d="M32.8,33.131c.881,3.1,3.524,5.663,5.915,5.714s3.616-2.416,2.744-5.512-3.532-5.663-5.923-5.714-3.616,2.408-2.735,5.512" transform="translate(90.649 9.827)" fill="url(#radial-gradient-4)"/>
      </g>
      <g data-type="innerShadowGroup">
        <g transform="matrix(1, 0, 0, 1, -195.8, -174)" filter="url(#路径_1076-5)">
          <path id="路径_1076-11" data-name="路径 1076" d="M195.053,62.816,113.2,16.834a24.546,24.546,0,0,0-24.039,0L7.313,62.816a1.744,1.744,0,0,0,0,3.037l81.85,45.975a24.546,24.546,0,0,0,24.039,0l81.85-45.975a1.744,1.744,0,0,0,0-3.037" transform="translate(250.52 171.41)" fill="url(#linear-gradient-10)"/>
        </g>
        <g transform="matrix(1, 0, 0, 1, -195.8, -174)" filter="url(#路径_1076-6)">
          <path id="路径_1076-12" data-name="路径 1076" d="M195.053,62.816,113.2,16.834a24.546,24.546,0,0,0-24.039,0L7.313,62.816a1.744,1.744,0,0,0,0,3.037l81.85,45.975a24.546,24.546,0,0,0,24.039,0l81.85-45.975a1.744,1.744,0,0,0,0-3.037" transform="translate(250.52 171.41)" fill="#fff"/>
        </g>
      </g>
    </g>
    <g id="组_50" data-name="组 50" transform="translate(-13.393 5.195)">
      <path id="路径_1060-4" data-name="路径 1060" d="M222.672,32.494H145.134l-16.616-9.333a30.713,30.713,0,0,0-30.1,0L81.8,32.494H4.264V83.5h.107a11.071,11.071,0,0,0,5.648,8.979l88.4,49.654a30.713,30.713,0,0,0,30.1,0l88.4-49.654a11.071,11.071,0,0,0,5.648-8.979h.107Z" transform="translate(42.444 30.481)" fill="url(#linear-gradient-2)"/>
      <path id="路径_1061-4" data-name="路径 1061" d="M216.92,65.371l-88.4-49.66a30.747,30.747,0,0,0-30.1,0l-88.4,49.66a11.27,11.27,0,0,0,0,19.66l88.4,49.66a30.713,30.713,0,0,0,30.1,0l88.4-49.66a11.275,11.275,0,0,0,0-19.66" transform="translate(42.441 -11.776)" fill="url(#linear-gradient-3)"/>
      <path id="路径_1063-4" data-name="路径 1063" d="M113.748,88.884a31.066,31.066,0,0,1-15.214-3.952l-88.4-49.66a11.466,11.466,0,0,1-5.921-10.12h.661a10.832,10.832,0,0,0,5.581,9.54l88.406,49.66a30.6,30.6,0,0,0,29.773,0l88.406-49.66a10.832,10.832,0,0,0,5.581-9.54h.661a11.466,11.466,0,0,1-5.921,10.12l-88.4,49.66a31.066,31.066,0,0,1-15.214,3.952" transform="translate(42.16 64.139)" fill="#141414"/>
      <g id="组_57" data-name="组 57" transform="translate(175.354 99.315)">
        <path id="路径_1064-19" data-name="路径 1064" d="M46.271,35.918c-1.384,4.883-5.554,8.91-9.313,8.994s-5.7-3.8-4.312-8.684,5.554-8.91,9.313-8.994,5.7,3.8,4.312,8.684" transform="translate(26.599 -27.233)" fill="#141414"/>
        <rect id="矩形_80-19" data-name="矩形 80" width="12.051" height="76.748" transform="translate(62.538 13.804) rotate(-59.999)" fill="url(#linear-gradient-4)"/>
        <path id="路径_1065-19" data-name="路径 1065" d="M41.452,33.131c-.881,3.1-3.524,5.663-5.915,5.714s-3.616-2.416-2.743-5.512,3.532-5.663,5.923-5.714,3.616,2.408,2.735,5.512" transform="translate(28.927 -24.388)" fill="url(#radial-gradient)"/>
        <path id="路径_1064-20" data-name="路径 1064" d="M46.271,35.918c-1.384,4.883-5.554,8.91-9.313,8.994s-5.7-3.8-4.312-8.684,5.554-8.91,9.313-8.994,5.7,3.8,4.312,8.684" transform="translate(-2.802 -10.796)" fill="#141414"/>
        <rect id="矩形_80-20" data-name="矩形 80" width="12.051" height="76.748" transform="translate(33.136 30.241) rotate(-59.999)" fill="url(#linear-gradient-4)"/>
        <path id="路径_1065-20" data-name="路径 1065" d="M41.452,33.131c-.881,3.1-3.524,5.663-5.915,5.714s-3.616-2.416-2.743-5.512,3.532-5.663,5.923-5.714,3.616,2.408,2.735,5.512" transform="translate(-0.475 -7.951)" fill="url(#radial-gradient)"/>
        <path id="路径_1064-21" data-name="路径 1064" d="M46.271,35.918c-1.384,4.883-5.554,8.91-9.313,8.994s-5.7-3.8-4.312-8.684,5.554-8.91,9.313-8.994,5.7,3.8,4.312,8.684" transform="translate(-32.198 6.982)" fill="#141414"/>
        <rect id="矩形_80-21" data-name="矩形 80" width="12.051" height="76.748" transform="translate(3.741 48.019) rotate(-59.999)" fill="url(#linear-gradient-4)"/>
        <path id="路径_1065-21" data-name="路径 1065" d="M41.452,33.131c-.881,3.1-3.524,5.663-5.915,5.714s-3.616-2.416-2.743-5.512,3.532-5.663,5.923-5.714,3.616,2.408,2.735,5.512" transform="translate(-29.87 9.827)" fill="url(#radial-gradient)"/>
      </g>
      <g id="组_53-4" data-name="组 53" transform="translate(0 99.315)">
        <path id="路径_1064-22" data-name="路径 1064" d="M32.646,35.918c1.384,4.883,5.554,8.91,9.313,8.994s5.7-3.8,4.312-8.684-5.554-8.91-9.313-8.994-5.7,3.8-4.312,8.684" transform="translate(29.513 -27.233)" fill="#141414"/>
        <rect id="矩形_80-22" data-name="矩形 80" width="12.051" height="76.748" transform="matrix(-0.5, -0.866, 0.866, -0.5, 6.026, 52.18)" fill="url(#linear-gradient-7)"/>
        <path id="路径_1065-22" data-name="路径 1065" d="M32.8,33.131c.881,3.1,3.524,5.663,5.915,5.714s3.616-2.416,2.744-5.512-3.532-5.663-5.923-5.714-3.616,2.408-2.735,5.512" transform="translate(31.852 -24.388)" fill="url(#radial-gradient-4)"/>
        <path id="路径_1064-23" data-name="路径 1064" d="M32.646,35.918c1.384,4.883,5.554,8.91,9.313,8.994s5.7-3.8,4.312-8.684-5.554-8.91-9.313-8.994-5.7,3.8-4.312,8.684" transform="translate(58.915 -10.796)" fill="#141414"/>
        <rect id="矩形_80-23" data-name="矩形 80" width="12.051" height="76.748" transform="matrix(-0.5, -0.866, 0.866, -0.5, 35.428, 68.617)" fill="url(#linear-gradient-7)"/>
        <path id="路径_1065-23" data-name="路径 1065" d="M32.8,33.131c.881,3.1,3.524,5.663,5.915,5.714s3.616-2.416,2.744-5.512-3.532-5.663-5.923-5.714-3.616,2.408-2.735,5.512" transform="translate(61.254 -7.951)" fill="url(#radial-gradient-4)"/>
        <path id="路径_1064-24" data-name="路径 1064" d="M32.646,35.918c1.384,4.883,5.554,8.91,9.313,8.994s5.7-3.8,4.312-8.684-5.554-8.91-9.313-8.994-5.7,3.8-4.312,8.684" transform="translate(88.31 6.982)" fill="#141414"/>
        <rect id="矩形_80-24" data-name="矩形 80" width="12.051" height="76.748" transform="matrix(-0.5, -0.866, 0.866, -0.5, 64.823, 86.395)" fill="url(#linear-gradient-7)"/>
        <path id="路径_1065-24" data-name="路径 1065" d="M32.8,33.131c.881,3.1,3.524,5.663,5.915,5.714s3.616-2.416,2.744-5.512-3.532-5.663-5.923-5.714-3.616,2.408-2.735,5.512" transform="translate(90.649 9.827)" fill="url(#radial-gradient-4)"/>
      </g>
    </g>
  </g>
</svg>
