<svg xmlns="http://www.w3.org/2000/svg" width="148" height="118" viewBox="0 0 148 118">
  <g id="service_1_18" data-name="组 18" transform="translate(-1472 -1866)">
    <g id="矩形_42" data-name="矩形 42" transform="translate(1472 1866)" fill="#fff" stroke="#707070" stroke-width="1" opacity="0">
      <rect width="148" height="118" stroke="none"/>
      <rect x="0.5" y="0.5" width="147" height="117" fill="none"/>
    </g>
    <path id="交叉_1" data-name="交叉 1" d="M137.773,122a15.405,15.405,0,0,0,.132-2.02,15.2,15.2,0,0,0-.559-3.892L143.241,122Zm-35.588,0,1.7-1.7L68.747,85.069l3.867-3.885-40.3,40.408a15.042,15.042,0,0,0-14.439-19.776,14.929,14.929,0,0,0-4.154.65L54.833,61.244a15.038,15.038,0,0,0-.649,4.165A15.215,15.215,0,0,0,69.377,80.654a15.012,15.012,0,0,0,4.525-.764h0a15.13,15.13,0,0,0,9.909-9.928l.01-.01a15.01,15.01,0,0,0-18.6-19.124l43.224-43.34a15.035,15.035,0,0,0-.924,5.073,15.193,15.193,0,1,0,29.46-5.083L158,28.554V66.329L122.722,30.946,86.37,67.4l1.208-1.211,39.015,39.119a15.017,15.017,0,0,0-19.082,14.674,15.405,15.405,0,0,0,.132,2.02Z" transform="translate(1462 1862)" fill="#5519a0" opacity="0.339"/>
  </g>
</svg>
