<svg xmlns="http://www.w3.org/2000/svg" xmlns:xlink="http://www.w3.org/1999/xlink" width="70" height="70" viewBox="0 0 70 70">
  <defs>
    <linearGradient id="linear-gradient" x1="0.138" y1="0.169" x2="0.845" y2="0.859" gradientUnits="objectBoundingBox">
      <stop offset="0" stop-color="#261f2c"/>
      <stop offset="1" stop-color="#392e3f"/>
    </linearGradient>
    <linearGradient id="linear-gradient-2" x1="1" y1="1" x2="0.061" gradientUnits="objectBoundingBox">
      <stop offset="0" stop-color="#953dff"/>
      <stop offset="1" stop-color="#1e1e1e"/>
    </linearGradient>
    <linearGradient id="linear-gradient-3" x1="0.378" x2="0.383" y2="1" gradientUnits="objectBoundingBox">
      <stop offset="0" stop-color="#953dff"/>
      <stop offset="1" stop-color="#e7abff"/>
    </linearGradient>
  </defs>
  <g id="dataUse" transform="translate(-330 -1277)">
    <circle id="椭圆_1" data-name="椭圆 1" cx="35" cy="35" r="35" transform="translate(330 1277)" fill="url(#linear-gradient)"/>
    <g id="组_6" data-name="组 6" transform="translate(-1.923 -2)">
      <rect id="矩形_26" data-name="矩形 26" width="31" height="35" transform="translate(351.923 1297)" fill="#fff" opacity="0"/>
      <rect id="矩形_15" data-name="矩形 15" width="25.56" height="30.004" rx="3" transform="translate(356.969 1301.766)" fill="url(#linear-gradient-2)"/>
      <rect id="矩形_16" data-name="矩形 16" width="25.559" height="30.004" rx="3" transform="translate(352.204 1297)" fill="url(#linear-gradient-3)"/>
      <rect id="矩形_18" data-name="矩形 18" width="4.064" height="5.999" transform="translate(356.794 1318.05)" fill="#141414"/>
      <rect id="矩形_27" data-name="矩形 27" width="4.064" height="8.437" transform="translate(363.112 1315.612)" fill="#141414"/>
      <rect id="矩形_28" data-name="矩形 28" width="4.064" height="12.047" transform="translate(369.43 1312.002)" fill="#141414"/>
      <path id="联合_1" data-name="联合 1" d="M6.212,8.152l-3.7,3.759L0,9.356l6.2-6.3.008.008.008-.008L9.973,6.865,16.727,0,19.24,2.554,12.486,9.419l.011.012L9.983,11.985Z" transform="translate(355.288 1300.017)" fill="#141414" stroke="rgba(0,0,0,0)" stroke-width="1"/>
    </g>
  </g>
</svg>
