<svg xmlns="http://www.w3.org/2000/svg" xmlns:xlink="http://www.w3.org/1999/xlink" width="70" height="70" viewBox="0 0 70 70">
  <defs>
    <radialGradient id="radial-gradient" cx="0.5" cy="0.5" r="0.5" gradientUnits="objectBoundingBox">
      <stop offset="0" stop-color="#c99dff"/>
      <stop offset="1" stop-color="#fff"/>
    </radialGradient>
    <linearGradient id="linear-gradient" x1="0.378" x2="0.383" y2="1" gradientUnits="objectBoundingBox">
      <stop offset="0" stop-color="#953dff"/>
      <stop offset="1" stop-color="#e7abff"/>
    </linearGradient>
    <linearGradient id="linear-gradient-2" x1="1" y1="1" x2="0.061" gradientUnits="objectBoundingBox">
      <stop offset="0" stop-color="#953dff"/>
      <stop offset="1" stop-color="#fff"/>
    </linearGradient>
  </defs>
  <g id="goodHover" transform="translate(-430 -1177)">
    <circle id="椭圆_10" data-name="椭圆 10" cx="35" cy="35" r="35" transform="translate(430 1177)" fill="#fff"/>
    <g id="组_11" data-name="组 11" transform="translate(100 0)">
      <path id="路径_21" data-name="路径 21" d="M37.6,29.323c0,1.871-8.417,3.388-18.8,3.388S0,31.194,0,29.323s8.417-3.388,18.8-3.388,18.8,1.517,18.8,3.388" transform="translate(346.201 1195.645)" fill="url(#radial-gradient)"/>
      <path id="联合_3" data-name="联合 3" d="M.855,23.066A.856.856,0,0,1,0,22.211V8.767a.855.855,0,0,1,.855-.855H5.308V23.066Zm7.084,0V7.911L11.757.361A.659.659,0,0,1,12.343,0h1.89a2.347,2.347,0,0,1,2.275,2.923L15.247,7.911h9.4a1.3,1.3,0,0,1,1.231,1.7l-4,12.128a1.93,1.93,0,0,1-1.832,1.324Z" transform="translate(351.215 1202.19)" fill="url(#linear-gradient)"/>
      <path id="路径_24" data-name="路径 24" d="M12.826,1.3a3.247,3.247,0,0,0-4.33.3l-.235.234-.235-.234A3.247,3.247,0,0,0,3.7,1.3a3.158,3.158,0,0,0-.23,4.673l4.495,4.495a.426.426,0,0,0,.6,0l4.495-4.495a3.158,3.158,0,0,0-.23-4.673" transform="translate(346.201 1195.645)" fill="url(#linear-gradient-2)"/>
      <path id="路径_25" data-name="路径 25" d="M36.492,1.06,33.559,2.789V.575A.574.574,0,0,0,32.984,0H24.579A.575.575,0,0,0,24,.575v8.4a.576.576,0,0,0,.576.576h8.405a.575.575,0,0,0,.575-.576V6.767l2.933,1.728a.647.647,0,0,0,.976-.557V1.618a.647.647,0,0,0-.976-.558" transform="translate(346.201 1195.645)" fill="url(#linear-gradient)"/>
      <rect id="矩形_32" data-name="矩形 32" width="1.675" height="3.669" transform="translate(374.21 1199.939)" fill="#fff"/>
      <rect id="矩形_33" data-name="矩形 33" width="1.675" height="2.907" transform="translate(371.626 1200.702)" fill="#fff"/>
      <rect id="矩形_34" data-name="矩形 34" width="1.675" height="5.678" transform="translate(376.793 1197.931)" fill="#fff"/>
    </g>
  </g>
</svg>
